SplineFontDB: 3.0
FontName: Fanwood-Italic
FullName: Fanwood Italic
FamilyName: Fanwood
Weight: Regular
Copyright: Copyright (c) 2011, Barry Schwartz
UComments: "10pt on 11pt body: Scan 6400, cut 1000, scale 105%; print at 11pt to match original size." 
Version: 1.0
ItalicAngle: -9
UnderlinePosition: -100
UnderlineWidth: 50
Ascent: 690
Descent: 310
LayerCount: 3
Layer: 0 0 "Back"  1
Layer: 1 0 "Fore"  0
Layer: 2 0 "backup"  0
NeedsXUIDChange: 1
XUID: [1021 658 797806517 11107023]
OS2Version: 0
OS2_WeightWidthSlopeOnly: 0
OS2_UseTypoMetrics: 1
CreationTime: 1287776574
ModificationTime: 1294200067
OS2TypoAscent: 0
OS2TypoAOffset: 1
OS2TypoDescent: 0
OS2TypoDOffset: 1
OS2TypoLinegap: 0
OS2WinAscent: 0
OS2WinAOffset: 1
OS2WinDescent: 0
OS2WinDOffset: 1
HheadAscent: 0
HheadAOffset: 1
HheadDescent: 0
HheadDOffset: 1
OS2Vendor: 'PfEd'
Lookup: 3 0 0 "'aalt' Access All Alternates lookup 0"  {"'aalt' Access All Alternates lookup 0 subtable"  } ['aalt' ('DFLT' <'dflt' > ) ]
Lookup: 3 0 0 "'aalt' Access All Alternates in Latin lookup 0"  {"'aalt' Access All Alternates in Latin lookup 0 subtable"  } ['aalt' ('latn' <'CAT ' 'ROM ' 'MOL ' 'TRK ' 'AZE ' 'CRT ' 'dflt' > ) ]
Lookup: 1 0 0 "catalan"  {"catalan subtable"  } ['locl' ('latn' <'CAT ' > ) ]
Lookup: 1 0 0 "romanian"  {"romanian subtable"  } ['locl' ('latn' <'ROM ' 'MOL ' > ) ]
Lookup: 1 0 0 "turkish"  {"turkish subtable"  } ['locl' ('latn' <'TRK ' 'AZE ' 'CRT ' > ) ]
Lookup: 1 0 0 "numerators"  {"numerators subtable"  } ['frac' ('latn' <'dflt' 'CAT ' 'ROM ' 'MOL ' 'TRK ' 'AZE ' 'CRT ' > 'DFLT' <'dflt' > ) 'numr' ('latn' <'dflt' 'CAT ' 'ROM ' 'MOL ' 'TRK ' 'AZE ' 'CRT ' > 'DFLT' <'dflt' > ) ]
Lookup: 1 0 0 "denominators"  {"denominators subtable"  } ['dnom' ('latn' <'dflt' 'CAT ' 'ROM ' 'MOL ' 'TRK ' 'AZE ' 'CRT ' > 'DFLT' <'dflt' > ) ]

StartChar: a
Encoding: 97 97 0
Width: 433
VWidth: 0
Flags: HW
HStem: -11 54<72.2148 143.035 286.753 336> 347 40<191.99 291.625>
VStem: 25 69<43.4021 182.266> 254 65<2.6875 112.486> 343 57<329.906 382.072>
AnchorPoint: "top" 284 500 basechar 0
AnchorPoint: "l;bl" 0 10 basechar 0
AnchorPoint: "l;x" 20 380 basechar 0
AnchorPoint: "l;o" 0 200 basechar 0
AnchorPoint: "r;bl" 413 10 basechar 0
AnchorPoint: "r;x" 433 380 basechar 0
AnchorPoint: "r;o" 433 200 basechar 0
LayerCount: 3
Fore
SplineSet
252 387 m 4
 275 387 295 376 308 357 c 4
 317 344 323 329 328 329 c 4
 331 329 343 371 343 373 c 4
 346 381 365 382 379 384 c 4
 389 385 400 383 400 379 c 4
 400 365 319 107 319 63 c 4
 319 53 323 43 333 43 c 4
 348 43 394 99 397 99 c 4
 401 99 408 93 408 85 c 4
 408 81 324 -11 281 -11 c 4
 265 -11 254 -3 254 13 c 4
 254 55 311 226 311 226 c 5
 311 226 256 125 186 52 c 4
 151 16 127 -10 90 -10 c 4
 47 -10 25 21 25 59 c 4
 25 175 102 387 252 387 c 4
232 347 m 4
 164 347 94 177 94 96 c 4
 94 74 97 43 120 43 c 4
 156 43 249 153 299 235 c 4
 311 254 314 284 314 289 c 4
 314 327 262 347 232 347 c 4
EndSplineSet
AlternateSubs2: "'aalt' Access All Alternates lookup 0 subtable" a.sub a.sup a.denom a.numer
AlternateSubs2: "'aalt' Access All Alternates in Latin lookup 0 subtable" a.sub a.sup a.denom a.numer
Substitution2: "'subs' Subscript in Latin lookup 8 subtable" a.sub
Substitution2: "'sups' Superscript in Latin lookup 7 subtable" a.sup
Substitution2: "denominators subtable" a.denom
Substitution2: "numerators subtable" a.numer
EndChar

StartChar: b
Encoding: 98 98 1
Width: 453
VWidth: 0
Flags: HW
HStem: -8 28<134.058 220.697> 341 47<277.96 366.48> 662 20G<200 208>
VStem: 25 87<10 96> 133 83<527.59 675.5> 359 69<207.05 335.312>
AnchorPoint: "l;k;hi2" 40 710 basechar 0
AnchorPoint: "top" 198 780 basechar 0
AnchorPoint: "l;bl" 0 10 basechar 0
AnchorPoint: "l;x" 20 380 basechar 0
AnchorPoint: "l;o" 0 200 basechar 0
AnchorPoint: "r;bl" 433 10 basechar 0
AnchorPoint: "r;x" 453 380 basechar 0
AnchorPoint: "r;o" 453 200 basechar 0
LayerCount: 3
Fore
SplineSet
40 644 m 4
 101 659 196 682 204 682 c 0
 212 682 216 679 216 672 c 0
 216 664 183 452 176 414 c 0
 164 345 127 163 127 163 c 1
 127 163 178 248 214 296 c 0
 258 355 285 388 350 388 c 0
 382 388 402 377 414 365 c 0
 426 353 428 339 428 323 c 0
 428 118 254 -8 170 -8 c 0
 124 -8 91 20 82 20 c 0
 79 20 70 16 62 12 c 0
 57 10 44 4 35 4 c 0
 27 4 25 8 25 12 c 0
 25 20 36 32 38 35 c 0
 44 43 44 45 46 54 c 0
 88 278 133 588 133 623 c 0
 133 627 131 630 126 630 c 0
 119 630 51 608 44 608 c 4
 37 608 35 615 35 633 c 4
 35 638 35 643 40 644 c 4
112 80 m 0
 112 50 132 20 180 20 c 0
 269 20 359 211 359 282 c 0
 359 307 350 341 317 341 c 0
 279 341 254 310 234 282 c 0
 167 189 112 112 112 80 c 0
EndSplineSet
AlternateSubs2: "'aalt' Access All Alternates lookup 0 subtable" b.sub b.sup b.denom b.numer
AlternateSubs2: "'aalt' Access All Alternates in Latin lookup 0 subtable" b.sub b.sup b.denom b.numer
Substitution2: "'subs' Subscript in Latin lookup 8 subtable" b.sub
Substitution2: "'sups' Superscript in Latin lookup 7 subtable" b.sup
Substitution2: "denominators subtable" b.denom
Substitution2: "numerators subtable" b.numer
EndChar

StartChar: c
Encoding: 99 99 2
Width: 402
VWidth: 0
Flags: HW
HStem: -9 49<121.945 245.784> 364 27<194.669 277.013>
VStem: 25 65<72.5693 238.434> 289 65<260.927 358.005>
AnchorPoint: "cedilla" 138 -100 basechar 0
AnchorPoint: "top" 278 500 basechar 0
AnchorPoint: "l;bl" 0 10 basechar 0
AnchorPoint: "l;x" 20 380 basechar 0
AnchorPoint: "l;o" 0 200 basechar 0
AnchorPoint: "r;bl" 382 10 basechar 0
AnchorPoint: "r;x" 402 380 basechar 0
AnchorPoint: "r;o" 402 200 basechar 0
LayerCount: 3
Fore
SplineSet
289 292 m 0
 289 300 290 308 290 316 c 0
 290 339 277 364 243 364 c 0
 205 364 163 337 137 297 c 0
 107 252 90 192 90 144 c 0
 90 118 91 40 196 40 c 0
 283 40 351 118 358 118 c 0
 362 118 370 110 370 104 c 0
 370 98 261 -9 162 -9 c 0
 55 -9 25 63 25 128 c 0
 25 291 151 391 246 391 c 0
 283 391 313 381 332 360 c 0
 345 346 354 328 354 304 c 0
 354 277 337 255 311 255 c 0
 295 255 289 273 289 292 c 0
EndSplineSet
AlternateSubs2: "'aalt' Access All Alternates lookup 0 subtable" c.sub c.sup c.denom c.numer
AlternateSubs2: "'aalt' Access All Alternates in Latin lookup 0 subtable" c.sub c.sup c.denom c.numer
Substitution2: "'subs' Subscript in Latin lookup 8 subtable" c.sub
Substitution2: "'sups' Superscript in Latin lookup 7 subtable" c.sup
Substitution2: "denominators subtable" c.denom
Substitution2: "numerators subtable" c.numer
EndChar

StartChar: d
Encoding: 100 100 3
Width: 473
VWidth: 0
Flags: HW
HStem: -7 52<97.2829 161.661 328.003 379.548> 357 22<206.222 284.789> 608 34<285.097 355.859> 659 20G<443.5 449>
VStem: 25 66<51.5711 182.913> 287 70<11.8384 152.743>
AnchorPoint: "top" 428 780 basechar 0
AnchorPoint: "caron" 491 550 basechar 0
AnchorPoint: "l;bl" 0 10 basechar 0
AnchorPoint: "l;x" 20 380 basechar 0
AnchorPoint: "l;o" 0 200 basechar 0
AnchorPoint: "r;bl" 453 10 basechar 0
AnchorPoint: "r;x" 473 380 basechar 0
AnchorPoint: "r;k;hi" 473 650 basechar 0
AnchorPoint: "r;o" 473 200 basechar 0
LayerCount: 3
Fore
SplineSet
370 45 m 4
 400 45 459 118 463 118 c 4
 467 118 473 112 473 110 c 4
 473 105 395 -7 314 -7 c 4
 299 -7 287 6 287 28 c 4
 287 69 328 237 328 237 c 5
 328 237 290 165 239 98 c 4
 200 46 163 -4 102 -4 c 4
 86 -4 25 0 25 74 c 4
 25 159 99 379 240 379 c 4
 290 379 317 360 327 356 c 4
 339 351 341 352 344 366 c 4
 357 436 380 608 381 612 c 4
 383 619 384 629 377 629 c 4
 373 629 293 608 288 608 c 4
 284 608 283 612 285 629 c 4
 286 640 288 640 295 642 c 4
 385 661 441 679 446 679 c 4
 452 679 457 677 457 664 c 4
 457 649 357 112 357 60 c 4
 357 47 365 45 370 45 c 4
329 304 m 4
 329 321 285 357 240 357 c 4
 151 357 91 176 91 102 c 4
 91 65 103 46 137 46 c 4
 174 46 228 118 275 186 c 4
 296 218 329 266 329 304 c 4
EndSplineSet
AlternateSubs2: "'aalt' Access All Alternates lookup 0 subtable" d.sub d.sup d.denom d.numer
AlternateSubs2: "'aalt' Access All Alternates in Latin lookup 0 subtable" d.sub d.sup d.denom d.numer
Substitution2: "'subs' Subscript in Latin lookup 8 subtable" d.sub
Substitution2: "'sups' Superscript in Latin lookup 7 subtable" d.sup
Substitution2: "denominators subtable" d.denom
Substitution2: "numerators subtable" d.numer
EndChar

StartChar: e
Encoding: 101 101 4
Width: 390
VWidth: 0
Flags: HW
HStem: -5 40<119.02 240.583> 170 23<106.001 190.893> 367 24<203.987 284.361>
VStem: 25 66<60.5308 191.807> 298 65<264.557 360.723>
AnchorPoint: "top" 283 500 basechar 0
AnchorPoint: "l;bl" 0 10 basechar 0
AnchorPoint: "l;x" 20 380 basechar 0
AnchorPoint: "l;o" 0 200 basechar 0
AnchorPoint: "r;bl" 370 10 basechar 0
AnchorPoint: "r;x" 390 380 basechar 0
AnchorPoint: "r;o" 390 200 basechar 0
LayerCount: 3
Fore
SplineSet
187 35 m 4
 281 35 350 122 357 122 c 4
 362 122 370 114 370 108 c 4
 370 104 270 -5 151 -5 c 4
 83 -5 25 28 25 105 c 4
 25 256 138 391 270 391 c 4
 312 391 363 378 363 325 c 4
 363 264 304 218 240 194 c 4
 191 176 137 170 99 170 c 4
 94 170 91 151 91 124 c 4
 91 58 131 35 187 35 c 4
116 193 m 4
 210 193 298 242 298 326 c 4
 298 351 277 367 248 367 c 4
 178 367 140 298 120 245 c 4
 114 230 106 203 106 200 c 4
 106 196 108 193 116 193 c 4
EndSplineSet
AlternateSubs2: "'aalt' Access All Alternates lookup 0 subtable" e.sub e.sup e.denom e.numer
AlternateSubs2: "'aalt' Access All Alternates in Latin lookup 0 subtable" e.sub e.sup e.denom e.numer
Substitution2: "'subs' Subscript in Latin lookup 8 subtable" e.sub
Substitution2: "'sups' Superscript in Latin lookup 7 subtable" e.sup
Substitution2: "denominators subtable" e.denom
Substitution2: "numerators subtable" e.numer
EndChar

StartChar: f
Encoding: 102 102 5
Width: 284
VWidth: 0
Flags: HW
HStem: -276 53<-88.829 28.2793> 347 25<35.6328 121.974 188.957 282.822> 641 40<287.059 377.5>
DStem2: 33.8387 -276 92.8387 -276 0.156434 0.987688<116.559 443.869 668.753 866.737>
AnchorPoint: "top" 351 779 basechar 0
AnchorPoint: "l;bl" 0 10 basechar 0
AnchorPoint: "l;x" 0 380 basechar 0
AnchorPoint: "l;o" 0 200 basechar 0
AnchorPoint: "l;k;lo" -30 -260 basechar 0
AnchorPoint: "r;bl" 244 10 basechar 0
AnchorPoint: "r;x" 284 380 basechar 0
AnchorPoint: "r;k;hi" 424 650 basechar 0
AnchorPoint: "r;o" 264 200 basechar 0
LayerCount: 3
Fore
SplineSet
69 -54 m 0
 92 91 122 330 122 336 c 0
 122 340 123 347 118 347 c 2
 42 347 l 2
 36 347 35 347 35 353 c 0
 35 357 36 362 37 366 c 0
 38 371 39 372 44 372 c 2
 117 372 l 2
 126 372 126 372 127 384 c 0
 129 406 140 489 169 541 c 0
 181 562 211 619 270 653 c 0
 294 667 329 681 361 681 c 0
 394 681 434 659 434 645 c 0
 434 627 400 604 380 604 c 0
 354 604 333 641 299 641 c 0
 220 641 196 429 189 378 c 0
 188 374 193 372 197 372 c 2
 279 372 l 2
 283 372 284 371 284 370 c 0
 284 366 283 359 282 356 c 0
 281 350 280 347 275 347 c 2
 195 347 l 2
 186 347 187 347 185 336 c 0
 178 289 147 59 128 -54 c 0
 125 -73 99 -185 34 -234 c 0
 12 -250 -19 -276 -57 -276 c 0
 -90 -276 -125 -254 -125 -240 c 0
 -125 -222 -96 -199 -76 -199 c 0
 -50 -199 -29 -223 5 -223 c 0
 51 -223 61 -104 69 -54 c 0
EndSplineSet
AlternateSubs2: "'aalt' Access All Alternates lookup 0 subtable" f.sub f.sup f.denom f.numer
AlternateSubs2: "'aalt' Access All Alternates in Latin lookup 0 subtable" f.sub f.sup f.denom f.numer
Substitution2: "'subs' Subscript in Latin lookup 8 subtable" f.sub
Substitution2: "'sups' Superscript in Latin lookup 7 subtable" f.sup
Substitution2: "denominators subtable" f.denom
Substitution2: "numerators subtable" f.numer
EndChar

StartChar: g
Encoding: 103 103 6
Width: 426
VWidth: 0
Flags: HW
HStem: -251 29<95.4284 284.113> 376 23<196.305 270.957> 400 20G<378.5 390.5>
VStem: -6 42<-189.056 -101.223> 54 50<-4 43.3916> 60 63<152.935 310.187> 314 62<190.816 332.304> 344 61<-175.98 -91.1214> 364 48<363.203 419.711>
AnchorPoint: "top" 256 498 basechar 0
AnchorPoint: "l;bl" 0 10 basechar 0
AnchorPoint: "l;x" 20 380 basechar 0
AnchorPoint: "l;o" 0 200 basechar 0
AnchorPoint: "l;k;lo" -20 -260 basechar 0
AnchorPoint: "r;bl" 426 10 basechar 0
AnchorPoint: "r;x" 426 380 basechar 0
AnchorPoint: "r;o" 426 200 basechar 0
AnchorPoint: "r;lo" 406 -260 basechar 0
LayerCount: 3
Fore
SplineSet
165 -251 m 0xf9
 87 -251 -6 -233 -6 -157 c 0
 -6 -97 58 -60 85 -48 c 0
 93 -44 97 -42 97 -40 c 0
 97 -37 86 -35 79 -30 c 0
 65 -20 54 -11 54 3 c 0xf9
 54 11 86 65 99 70 c 2
 159 92 l 2
 164 94 171 95 158 99 c 0
 129 108 60 138 60 230 c 0
 60 324 139 399 237 399 c 0
 303 399 333 354 336 354 c 0
 340 354 358 400 364 411 c 0
 368 418 372 420 385 420 c 0
 396 420 412 416 412 409 c 0xf480
 412 382 366 325 366 320 c 0
 366 317 367 312 369 307 c 0
 374 294 376 280 376 267 c 0xf2
 376 221 354 174 323 146 c 0
 285 111 253 102 197 87 c 0
 155 75 104 59 104 40 c 0
 104 11 196 1 274 -11 c 0
 347 -23 405 -40 405 -106 c 0
 405 -212 294 -251 165 -251 c 0xf9
204 -222 m 0
 282 -222 344 -195 344 -133 c 0
 344 -86 296 -74 240 -64 c 0
 194 -56 139 -47 133 -47 c 0
 122 -47 112 -53 101 -58 c 0
 65 -76 36 -108 36 -151 c 0
 36 -212 150 -222 204 -222 c 0
314 279 m 0xf6
 314 325 283 376 236 376 c 0
 163 376 123 286 123 229 c 0
 123 138 173 115 197 115 c 0
 245 115 314 183 314 279 c 0xf6
EndSplineSet
AlternateSubs2: "'aalt' Access All Alternates lookup 0 subtable" g.sub g.sup g.denom g.numer
AlternateSubs2: "'aalt' Access All Alternates in Latin lookup 0 subtable" g.sub g.sup g.denom g.numer
Substitution2: "'subs' Subscript in Latin lookup 8 subtable" g.sub
Substitution2: "'sups' Superscript in Latin lookup 7 subtable" g.sup
Substitution2: "denominators subtable" g.denom
Substitution2: "numerators subtable" g.numer
EndChar

StartChar: h
Encoding: 104 104 7
Width: 468
VWidth: 0
Flags: HW
HStem: 0 45<296.5 368.333> 346 37<274.579 359> 638 37<90.67 193.894>
VStem: 25 66<1.16183 37.7> 267 68<21.0905 119.588> 340 62<228.75 344.018>
AnchorPoint: "l;k;hi2" 40 710 basechar 0
AnchorPoint: "top" 198 780 basechar 0
AnchorPoint: "l;bl" 0 10 basechar 0
AnchorPoint: "l;x" 20 380 basechar 0
AnchorPoint: "l;o" 0 200 basechar 0
AnchorPoint: "r;bl" 448 10 basechar 0
AnchorPoint: "r;x" 468 380 basechar 0
AnchorPoint: "r;o" 468 200 basechar 0
LayerCount: 3
Fore
SplineSet
356 45 m 0
 382 45 447 132 451 132 c 0
 454 132 463 124 463 122 c 0
 463 117 384 0 308 0 c 0
 285 0 267 15 267 38 c 0
 267 71 340 255 340 307 c 0
 340 329 328 346 306 346 c 0
 257 346 206 267 165 199 c 0
 143 162 120 125 111 91 c 2
 91 9 l 2
 89 0 36 -2 33 -2 c 0
 27 -2 25 1 25 6 c 0
 25 17 89 270 123 619 c 0
 124 630 121 638 119 638 c 0
 102 638 36 611 32 611 c 0
 30 611 29 619 29 625 c 0
 29 633 32 639 36 641 c 0
 77 656 167 675 191 675 c 0
 197 675 197 670 197 660 c 0
 192 563 131 257 104 123 c 1
 104 123 151 233 219 315 c 0
 248 350 284 383 343 383 c 0
 375 383 402 369 402 335 c 0
 402 270 335 96 335 67 c 0
 335 56 342 45 356 45 c 0
EndSplineSet
AlternateSubs2: "'aalt' Access All Alternates lookup 0 subtable" h.sub h.sup h.denom h.numer
AlternateSubs2: "'aalt' Access All Alternates in Latin lookup 0 subtable" h.sub h.sup h.denom h.numer
Substitution2: "'subs' Subscript in Latin lookup 8 subtable" h.sub
Substitution2: "'sups' Superscript in Latin lookup 7 subtable" h.sup
Substitution2: "denominators subtable" h.denom
Substitution2: "numerators subtable" h.numer
EndChar

StartChar: i
Encoding: 105 105 8
Width: 270
VWidth: 0
Flags: HW
HStem: -6 61<73.1719 153.5> 328 55<106 185.582> 501 94<135.36 205.64>
VStem: 60 71<7.6574 107.493> 128 85<507.521 588.479> 131 65<255.991 368.623>
AnchorPoint: "l;k;hi" 135 650 basechar 0
AnchorPoint: "r;k;hi" 220 650 basechar 0
AnchorPoint: "l;bl" 0 10 basechar 0
AnchorPoint: "l;x" 20 380 basechar 0
AnchorPoint: "l;o" 0 200 basechar 0
AnchorPoint: "r;bl" 250 10 basechar 0
AnchorPoint: "r;x" 270 380 basechar 0
AnchorPoint: "r;o" 270 200 basechar 0
LayerCount: 3
Fore
SplineSet
169 595 m 4xe8
 198 595 213 568 213 547 c 4
 213 521 196 501 172 501 c 4
 143 501 128 528 128 549 c 4
 128 575 143 595 169 595 c 4xe8
196 361 m 0xe4
 196 314 131 103 131 75 c 0
 131 65 131 55 144 55 c 0
 163 55 220 119 223 119 c 0
 227 119 235 110 235 107 c 0
 235 93 115 -6 84 -6 c 0
 74 -6 60 -3 60 12 c 0xf0
 60 63 131 249 131 310 c 0
 131 320 129 328 119 328 c 0
 93 328 42 269 37 269 c 0
 32 269 25 277 25 282 c 0
 25 288 139 383 176 383 c 0
 186 383 196 378 196 361 c 0xe4
EndSplineSet
AlternateSubs2: "'aalt' Access All Alternates lookup 0 subtable" i.sub i.sup i.denom i.numer
AlternateSubs2: "'aalt' Access All Alternates in Latin lookup 0 subtable" i.sub i.sup i.denom i.numer i.TRK
Substitution2: "'subs' Subscript in Latin lookup 8 subtable" i.sub
Substitution2: "'sups' Superscript in Latin lookup 7 subtable" i.sup
Substitution2: "denominators subtable" i.denom
Substitution2: "numerators subtable" i.numer
Substitution2: "turkish subtable" i.TRK
EndChar

StartChar: j
Encoding: 106 106 9
Width: 297
VWidth: 0
Flags: HW
HStem: -255 45<-39.451 48.0988> 328 55<133 208> 531 94<164.36 234.64>
VStem: 157 85<537.521 618.479> 158 66<201.729 368.188>
AnchorPoint: "l;k;lo" -30 -260 basechar 0
AnchorPoint: "l;bl" 0 10 basechar 0
AnchorPoint: "l;x" 0 380 basechar 0
AnchorPoint: "l;o" 0 200 basechar 0
AnchorPoint: "r;bl" 277 10 basechar 0
AnchorPoint: "r;x" 297 380 basechar 0
AnchorPoint: "r;o" 287 200 basechar 0
LayerCount: 3
Fore
SplineSet
-69 -221 m 0xe8
 -69 -201 -54 -185 -34 -185 c 0
 2 -185 7 -210 41 -210 c 0
 69 -210 79 -159 91 -102 c 0
 117 26 158 283 158 310 c 0
 158 320 156 328 146 328 c 0
 120 328 52 239 47 239 c 0
 42 239 35 245 35 250 c 0
 35 256 148 383 203 383 c 0
 213 383 224 376 224 359 c 0
 224 312 173 27 169 -3 c 0
 159 -63 142 -165 73 -217 c 0
 51 -233 16 -255 -14 -255 c 0
 -48 -255 -69 -236 -69 -221 c 0xe8
198 625 m 0
 227 625 242 598 242 577 c 0
 242 551 225 531 201 531 c 0
 172 531 157 558 157 579 c 0xf0
 157 605 172 625 198 625 c 0
EndSplineSet
AlternateSubs2: "'aalt' Access All Alternates lookup 0 subtable" j.sub j.sup j.denom j.numer
AlternateSubs2: "'aalt' Access All Alternates in Latin lookup 0 subtable" j.sub j.sup j.denom j.numer
Substitution2: "'subs' Subscript in Latin lookup 8 subtable" j.sub
Substitution2: "'sups' Superscript in Latin lookup 7 subtable" j.sup
Substitution2: "denominators subtable" j.denom
Substitution2: "numerators subtable" j.numer
EndChar

StartChar: k
Encoding: 107 107 10
Width: 450
VWidth: 0
Flags: HW
HStem: -2 39<333.74 417.559> 348 33<263.518 353.5> 659 20G<196 204>
VStem: 25 65<-1.63953 108.153> 133 81<555.628 673> 169 42<172.244 188.918> 329 68<279.447 346.933> 423 27<41.4799 93.1993>
AnchorPoint: "l;k;hi2" 50 710 basechar 0
AnchorPoint: "cedilla" 187 -100 basechar 0
AnchorPoint: "l;bl" 0 10 basechar 0
AnchorPoint: "l;x" 20 380 basechar 0
AnchorPoint: "l;o" 0 200 basechar 0
AnchorPoint: "r;bl" 450 10 basechar 0
AnchorPoint: "r;x" 450 380 basechar 0
AnchorPoint: "r;o" 450 200 basechar 0
LayerCount: 3
Fore
SplineSet
50 641 m 0xfb
 146 664 192 679 200 679 c 0
 208 679 214 678 214 668 c 0xfb
 214 648 133 257 117 179 c 1
 117 179 153 248 189 296 c 0
 229 349 268 381 338 381 c 0
 369 381 397 371 397 344 c 0
 397 252 281 200 232 189 c 0
 226 188 211 186 211 185 c 0
 211 184 225 179 238 167 c 0
 263 143 302 101 311 90 c 0
 336 59 353 37 389 37 c 0
 414 37 423 50 423 64 c 0
 423 71 421 78 421 84 c 0
 421 91 424 96 429 96 c 0
 437 96 450 86 450 53 c 0
 450 21 378 -2 339 -2 c 0
 326 -2 313 2 296 18 c 0
 271 41 246 79 219 113 c 0
 194 145 169 172 169 175 c 0xf7
 169 180 184 195 186 197 c 0
 188 199 191 199 196 199 c 0
 204 199 214 200 224 204 c 0
 269 224 329 280 329 328 c 0
 329 341 318 348 298 348 c 0
 274 348 256 336 235 316 c 0
 203 286 172 234 135 178 c 0
 123 159 116 142 111 120 c 0
 105 95 94 46 90 22 c 0
 87 3 86 0 80 0 c 0
 78 0 41 -6 30 -6 c 0
 26 -6 25 -6 25 -3 c 0
 25 24 107 352 133 623 c 0
 133 627 131 632 126 632 c 0
 119 632 58 615 51 613 c 0
 43 611 42 614 44 632 c 0
 45 637 45 640 50 641 c 0xfb
EndSplineSet
AlternateSubs2: "'aalt' Access All Alternates lookup 0 subtable" k.sub k.sup k.denom k.numer
AlternateSubs2: "'aalt' Access All Alternates in Latin lookup 0 subtable" k.sub k.sup k.denom k.numer
Substitution2: "'subs' Subscript in Latin lookup 8 subtable" k.sub
Substitution2: "'sups' Superscript in Latin lookup 7 subtable" k.sup
Substitution2: "denominators subtable" k.denom
Substitution2: "numerators subtable" k.numer
EndChar

StartChar: z
Encoding: 122 122 11
Width: 414
VWidth: 0
Flags: HW
HStem: -10 21G<33.5 42.5> -2 53<119.344 351.369> 14 51<116.875 282.406> 318 34<258.307 279.125> 350 46<108.323 224.738> 369 20G<362.5 378>
VStem: 352 27<51.0333 102.683>
DStem2: 56 48 110 77 0.668189 0.743992<57.658 356.187>
AnchorPoint: "top" 257 500 basechar 0
AnchorPoint: "l;bl" 0 10 basechar 0
AnchorPoint: "l;x" 20 380 basechar 0
AnchorPoint: "l;o" 0 200 basechar 0
AnchorPoint: "r;bl" 414 10 basechar 0
AnchorPoint: "r;x" 414 380 basechar 0
AnchorPoint: "r;o" 414 200 basechar 0
LayerCount: 3
Fore
SplineSet
324 352 m 0x12
 342 352 351 389 374 389 c 0
 382 389 389 381 389 373 c 0
 389 347 345 337 330 321 c 2
 110 77 l 2
 103 69 100 66 120 65 c 0x36
 206 61 299 51 337 51 c 0
 350 51 352 56 352 69 c 0
 352 70 351 95 351 97 c 0
 351 101 357 103 362 103 c 0
 366 103 371 102 371 98 c 0
 374 64 379 17 379 12 c 0
 379 -1 361 -2 343 -2 c 2
 336 -2 l 2x42
 283 -2 144 14 65 14 c 0
 56 14 49 -10 36 -10 c 0
 31 -10 25 -7 25 2 c 0
 25 20 46 36 56 48 c 2
 294 313 l 2
 304 325 289 318 280 318 c 0xb2
 237 318 170 350 137 350 c 0
 101 350 74 302 70 302 c 0
 65 302 57 307 57 310 c 0
 57 314 105 396 158 396 c 0x0a
 203 396 282 352 324 352 c 0x12
EndSplineSet
AlternateSubs2: "'aalt' Access All Alternates lookup 0 subtable" z.sub z.sup z.denom z.numer
AlternateSubs2: "'aalt' Access All Alternates in Latin lookup 0 subtable" z.sub z.sup z.denom z.numer
Substitution2: "'subs' Subscript in Latin lookup 8 subtable" z.sub
Substitution2: "'sups' Superscript in Latin lookup 7 subtable" z.sup
Substitution2: "denominators subtable" z.denom
Substitution2: "numerators subtable" z.numer
EndChar

StartChar: l
Encoding: 108 108 12
Width: 272
VWidth: 0
Flags: HW
HStem: -10 57<76.5 143.548> 659 20G<214.5 220.5>
VStem: 55 72<10.7563 154.333> 150 77<538.487 625.169>
AnchorPoint: "l;k;hi2" 60 710 basechar 0
AnchorPoint: "cedilla" 76 -100 basechar 0
AnchorPoint: "caron" 261 550 basechar 0
AnchorPoint: "top" 215 780 basechar 0
AnchorPoint: "l;bl" 0 10 basechar 0
AnchorPoint: "l;x" 0 380 basechar 0
AnchorPoint: "l;o" 0 200 basechar 0
AnchorPoint: "r;bl" 252 10 basechar 0
AnchorPoint: "r;x" 272 380 basechar 0
AnchorPoint: "r;k;hi" 272 650 basechar 0
AnchorPoint: "r;o" 272 200 basechar 0
LayerCount: 3
Fore
SplineSet
141 47 m 0
 169 47 237 131 241 131 c 0
 245 131 257 120 257 118 c 0
 257 113 152 -10 84 -10 c 0
 69 -10 55 0 55 28 c 0
 55 46 125 402 150 612 c 0
 152 625 150 631 136 627 c 0
 114 621 66 609 62 609 c 0
 58 609 57 612 59 629 c 0
 60 640 62 640 69 642 c 0
 159 662 212 679 217 679 c 0
 224 679 227 675 227 670 c 0
 227 649 127 77 127 68 c 0
 127 50 136 47 141 47 c 0
EndSplineSet
AlternateSubs2: "'aalt' Access All Alternates lookup 0 subtable" l.sub l.sup l.denom l.numer
AlternateSubs2: "'aalt' Access All Alternates in Latin lookup 0 subtable" l.sub l.sup l.denom l.numer l.CAT
Substitution2: "'subs' Subscript in Latin lookup 8 subtable" l.sub
Substitution2: "'sups' Superscript in Latin lookup 7 subtable" l.sup
Substitution2: "denominators subtable" l.denom
Substitution2: "numerators subtable" l.numer
Substitution2: "catalan subtable" l.CAT
EndChar

StartChar: m
Encoding: 109 109 13
Width: 739
VWidth: 0
Flags: HW
HStem: -11 21G<93 98.5> -4 53<551 629> 336 43<331.625 387.87 564.049 635.99>
VStem: 135 68<192.581 359.757> 304 64<2.13574 76.6213> 362 65<203.064 354.614> 526 75<12.2517 107.836> 604 70<252.628 353.5>
AnchorPoint: "top" 471 500 basechar 0
AnchorPoint: "l;bl" 0 10 basechar 0
AnchorPoint: "l;x" 20 380 basechar 0
AnchorPoint: "l;o" 0 200 basechar 0
AnchorPoint: "r;bl" 719 10 basechar 0
AnchorPoint: "r;x" 739 380 basechar 0
AnchorPoint: "r;o" 739 200 basechar 0
LayerCount: 3
Fore
SplineSet
619 49 m 0x77
 639 49 708 131 712 131 c 0
 716 131 724 122 724 119 c 0
 724 113 616 -4 561 -4 c 0
 541 -4 526 9 526 25 c 0
 526 65 604 253 604 314 c 0
 604 324 597 336 583 336 c 0
 554 336 502 271 458 203 c 0
 417 140 390 91 368 15 c 0
 366 7 361 4 354 3 c 0
 338 1 324 0 312 0 c 0
 307 0 304 2 304 7 c 0x7b
 304 30 362 181 362 296 c 0x77
 362 318 355 333 341 333 c 0
 327 333 311 317 304 308 c 0
 273 271 239 229 196 141 c 0
 178 105 161 44 155 23 c 0
 153 16 151 6 144 3 c 0
 126 -4 102 -11 95 -11 c 0xbb
 91 -11 89 -6 90 -1 c 0
 103 53 135 229 135 296 c 0
 135 306 131 313 121 313 c 0
 95 313 32 238 27 238 c 0
 24 238 15 240 15 255 c 0
 15 265 136 373 185 373 c 0
 195 373 203 371 203 354 c 0
 203 293 182 201 168 117 c 1
 234 269 312 379 393 379 c 0
 416 379 427 355 427 332 c 0
 427 249 370 81 370 81 c 1
 409 152 517 379 623 379 c 0
 668 379 674 362 674 345 c 0
 674 293 601 112 601 73 c 0
 601 65 604 49 619 49 c 0x77
EndSplineSet
AlternateSubs2: "'aalt' Access All Alternates lookup 0 subtable" m.sub m.sup m.denom m.numer
AlternateSubs2: "'aalt' Access All Alternates in Latin lookup 0 subtable" m.sub m.sup m.denom m.numer
Substitution2: "'subs' Subscript in Latin lookup 8 subtable" m.sub
Substitution2: "'sups' Superscript in Latin lookup 7 subtable" m.sup
Substitution2: "denominators subtable" m.denom
Substitution2: "numerators subtable" m.numer
EndChar

StartChar: n
Encoding: 110 110 14
Width: 515
VWidth: 0
Flags: HW
HStem: -6 21G<78 83.5> 1 49<330 403.29> 344 42<344.856 418.585>
VStem: 135 73<239.52 372.414> 308 71<22.5102 126.751> 388 68<250.593 343.806>
AnchorPoint: "cedilla" 221 -100 basechar 0
AnchorPoint: "top" 352 500 basechar 0
AnchorPoint: "l;bl" 0 10 basechar 0
AnchorPoint: "l;x" 20 380 basechar 0
AnchorPoint: "l;o" 0 200 basechar 0
AnchorPoint: "r;bl" 495 10 basechar 0
AnchorPoint: "r;x" 515 380 basechar 0
AnchorPoint: "r;o" 515 200 basechar 0
LayerCount: 3
Fore
SplineSet
405 386 m 4xbc
 450 386 456 359 456 342 c 4
 456 290 379 98 379 70 c 4
 379 62 383 50 398 50 c 4
 428 50 484 124 488 124 c 4
 492 124 500 116 500 113 c 4
 500 107 413 1 340 1 c 4x7c
 320 1 308 18 308 42 c 4
 308 99 388 254 388 315 c 4
 388 330 380 344 366 344 c 4
 328 344 236 215 187 136 c 4
 166 102 149 45 143 24 c 4
 141 17 138 -1 128 -2 c 4
 108 -4 87 -6 80 -6 c 4
 76 -6 74 -1 75 4 c 4
 88 58 135 249 135 316 c 4
 135 326 132 334 122 334 c 4
 98 334 34 270 29 270 c 4
 26 270 15 277 15 287 c 4
 15 289 127 386 187 386 c 4
 196 386 208 381 208 365 c 4
 208 304 176 202 154 118 c 5
 244 277 326 386 405 386 c 4xbc
EndSplineSet
AlternateSubs2: "'aalt' Access All Alternates lookup 0 subtable" n.sub n.sup n.denom n.numer
AlternateSubs2: "'aalt' Access All Alternates in Latin lookup 0 subtable" n.sub n.sup n.denom n.numer
Substitution2: "'subs' Subscript in Latin lookup 8 subtable" n.sub
Substitution2: "'sups' Superscript in Latin lookup 7 subtable" n.sup
Substitution2: "denominators subtable" n.denom
Substitution2: "numerators subtable" n.numer
EndChar

StartChar: o
Encoding: 111 111 15
Width: 419
VWidth: 0
Flags: HW
HStem: -8 24<127.067 210.74> 374 23<206.101 289.766>
VStem: 25 62<55.4044 238.969> 331 63<170.758 327.843>
AnchorPoint: "top" 290 500 basechar 0
AnchorPoint: "l;bl" 0 10 basechar 0
AnchorPoint: "l;x" 20 380 basechar 0
AnchorPoint: "l;o" 0 200 basechar 0
AnchorPoint: "r;bl" 399 10 basechar 0
AnchorPoint: "r;x" 419 380 basechar 0
AnchorPoint: "r;o" 419 200 basechar 0
LayerCount: 3
Fore
SplineSet
245 374 m 0
 165 374 87 234 87 146 c 0
 87 104 89 16 167 16 c 0
 265 16 331 188 331 278 c 0
 331 312 318 374 245 374 c 0
165 -8 m 0
 71 -8 25 62 25 138 c 0
 25 284 123 397 256 397 c 0
 362 397 394 300 394 238 c 4
 394 115 291 -8 165 -8 c 0
EndSplineSet
AlternateSubs2: "'aalt' Access All Alternates lookup 0 subtable" o.sub o.sup o.denom o.numer
AlternateSubs2: "'aalt' Access All Alternates in Latin lookup 0 subtable" o.sub o.sup o.denom o.numer
Substitution2: "'subs' Subscript in Latin lookup 8 subtable" o.sub
Substitution2: "'sups' Superscript in Latin lookup 7 subtable" o.sup
Substitution2: "denominators subtable" o.denom
Substitution2: "numerators subtable" o.numer
EndChar

StartChar: p
Encoding: 112 112 16
Width: 486
VWidth: 0
Flags: HW
HStem: -280 39<134.606 222.952> -266 32<12.1602 67.9986> -7 26<185.219 280.213> 342 40<321.91 389.044>
VStem: 147 71<192.734 376.25> 399 62<181.514 335.343>
AnchorPoint: "top" 337 500 basechar 0
AnchorPoint: "l;bl" 0 10 basechar 0
AnchorPoint: "l;x" 20 380 basechar 0
AnchorPoint: "l;o" 0 200 basechar 0
AnchorPoint: "l;k;lo" 0 -260 basechar 0
AnchorPoint: "r;bl" 466 10 basechar 0
AnchorPoint: "r;x" 486 380 basechar 0
AnchorPoint: "r;o" 486 200 basechar 0
LayerCount: 3
Fore
SplineSet
399 278 m 0x3c
 399 311 390 342 355 342 c 0
 302 342 261 242 236 195 c 0
 204 134 181 80 181 51 c 0
 181 24 216 19 245 19 c 0
 314 19 399 173 399 278 c 0x3c
223 -259 m 0
 223 -279 216 -280 203 -280 c 0xbc
 195 -280 115 -266 29 -266 c 0
 18 -266 12 -265 12 -256 c 0
 12 -238 15 -234 31 -234 c 2
 47 -234 l 2x7c
 63 -234 66 -231 69 -213 c 0
 127 120 147 238 147 304 c 0
 147 314 145 322 135 322 c 0
 101 322 31 210 26 210 c 0
 21 210 10 220 10 225 c 1
 10 225 109 395 201 395 c 0
 213 395 218 388 218 364 c 0
 218 317 186 131 186 131 c 1
 213 198 233 244 286 325 c 0
 308 359 343 382 385 382 c 0
 449 382 461 342 461 291 c 0
 461 140 335 -7 236 -7 c 0
 217 -7 189 0 180 0 c 0
 174 0 168 0 167 -8 c 2
 135 -217 l 2
 133 -227 135 -240 144 -241 c 0xbc
 207 -248 223 -244 223 -259 c 0
EndSplineSet
AlternateSubs2: "'aalt' Access All Alternates lookup 0 subtable" p.sub p.sup p.denom p.numer
AlternateSubs2: "'aalt' Access All Alternates in Latin lookup 0 subtable" p.sub p.sup p.denom p.numer
Substitution2: "'subs' Subscript in Latin lookup 8 subtable" p.sub
Substitution2: "'sups' Superscript in Latin lookup 7 subtable" p.sup
Substitution2: "denominators subtable" p.denom
Substitution2: "numerators subtable" p.numer
EndChar

StartChar: q
Encoding: 113 113 17
Width: 455
VWidth: 0
Flags: HW
HStem: -288 33<183.408 233.556> -281 34<306.004 383.992> -7 47<99.2057 168.324> 361 20<239.552 313.853>
VStem: 25 64<49.0928 172.225> 342 88<315.03 368.5>
AnchorPoint: "l;bl" 0 10 basechar 0
AnchorPoint: "l;x" 20 380 basechar 0
AnchorPoint: "l;o" 0 200 basechar 0
AnchorPoint: "r;bl" 455 10 basechar 0
AnchorPoint: "r;x" 455 380 basechar 0
AnchorPoint: "r;o" 455 200 basechar 0
AnchorPoint: "r;k;lo" 455 -260 basechar 0
LayerCount: 3
Fore
SplineSet
306 -236 m 0xbc
 306 -245 312 -247 320 -247 c 0
 339 -247 353 -247 372 -249 c 0
 383 -250 384 -256 384 -265 c 0
 384 -278 385 -284 368 -284 c 0
 363 -284 326 -281 283 -281 c 0x7c
 252 -281 201 -288 196 -288 c 0
 189 -288 182 -288 183 -276 c 0
 184 -258 188 -258 204 -255 c 0
 229 -251 231 -253 236 -229 c 0
 258 -125 261 -136 329 237 c 1
 329 237 298 168 247 98 c 0
 209 45 161 -7 109 -7 c 0
 93 -7 25 0 25 74 c 0
 25 166 118 381 274 381 c 0
 310 381 342 369 360 361 c 0
 369 357 371 355 374 355 c 0
 377 355 380 356 390 362 c 0
 395 364 408 373 420 375 c 0
 425 376 430 372 430 365 c 0
 430 359 417 334 403 304 c 0
 400 297 397 287 396 279 c 0
 360 73 306 -223 306 -236 c 0xbc
342 318 m 0
 342 330 319 361 274 361 c 0
 185 361 89 173 89 99 c 0
 89 62 112 40 136 40 c 0
 172 40 231 118 278 186 c 0
 299 218 342 288 342 318 c 0
EndSplineSet
Layer: 2
SplineSet
306 -236 m 4xbc
 306 -245 312 -247 320 -247 c 6
 341 -247 l 6
 351 -247 360 -247 372 -248 c 4
 383 -249 384 -256 384 -265 c 4
 384 -278 387 -284 370 -284 c 4
 365 -284 326 -281 283 -281 c 4x7c
 252 -281 201 -288 196 -288 c 4
 189 -288 182 -288 183 -276 c 4
 184 -258 188 -258 204 -255 c 4
 229 -251 231 -253 236 -229 c 4
 258 -125 261 -136 329 237 c 5
 329 237 298 168 247 98 c 4
 209 45 161 -7 109 -7 c 4
 93 -7 25 0 25 74 c 4
 25 166 118 381 274 381 c 4
 310 381 342 369 360 361 c 4
 369 357 371 355 374 355 c 4
 377 355 380 356 390 362 c 4
 395 364 408 373 420 375 c 4
 425 376 430 372 430 365 c 4
 430 359 417 334 403 304 c 4
 400 297 397 287 396 279 c 4
 360 73 306 -223 306 -236 c 4xbc
342 318 m 4
 342 330 319 361 274 361 c 4
 185 361 89 173 89 99 c 4
 89 62 112 40 136 40 c 4
 172 40 231 118 278 186 c 4
 299 218 342 288 342 318 c 4
EndSplineSet
AlternateSubs2: "'aalt' Access All Alternates lookup 0 subtable" q.sub q.sup q.denom q.numer
AlternateSubs2: "'aalt' Access All Alternates in Latin lookup 0 subtable" q.sub q.sup q.denom q.numer
Substitution2: "'subs' Subscript in Latin lookup 8 subtable" q.sub
Substitution2: "'sups' Superscript in Latin lookup 7 subtable" q.sup
Substitution2: "denominators subtable" q.denom
Substitution2: "numerators subtable" q.numer
EndChar

StartChar: r
Encoding: 114 114 18
Width: 341
VWidth: 0
Flags: HW
HStem: -4 21G<72 80.5> 338 55<236.714 317.608>
VStem: 114 59<180.74 373.86>
AnchorPoint: "cedilla" 83 -100 basechar 0
AnchorPoint: "top" 216 500 basechar 0
AnchorPoint: "l;bl" 0 10 basechar 0
AnchorPoint: "l;x" 20 380 basechar 0
AnchorPoint: "l;o" 0 200 basechar 0
AnchorPoint: "r;bl" 321 10 basechar 0
AnchorPoint: "r;x" 341 380 basechar 0
AnchorPoint: "r;o" 321 200 basechar 0
LayerCount: 3
Fore
SplineSet
101 331 m 4
 75 331 39 280 34 280 c 4
 29 280 25 286 25 291 c 4
 25 302 112 386 155 386 c 4
 171 386 173 376 173 366 c 4
 173 346 155 243 146 190 c 5
 150 189 l 5
 165 228 186 291 212 338 c 0
 227 366 252 393 284 393 c 0
 306 393 331 380 331 357 c 0
 331 340 325 320 309 320 c 0
 287 320 275 338 254 338 c 0
 244 338 236 332 229 321 c 0
 211 293 190 243 172 196 c 4
 166 180 164 169 161 158 c 4
 146 96 140 61 128 7 c 4
 127 1 85 -4 76 -4 c 4
 68 -4 66 -3 66 0 c 4
 66 8 114 236 114 293 c 4
 114 306 114 331 101 331 c 4
EndSplineSet
AlternateSubs2: "'aalt' Access All Alternates lookup 0 subtable" r.sub r.sup r.denom r.numer
AlternateSubs2: "'aalt' Access All Alternates in Latin lookup 0 subtable" r.sub r.sup r.denom r.numer
Substitution2: "'subs' Subscript in Latin lookup 8 subtable" r.sub
Substitution2: "'sups' Superscript in Latin lookup 7 subtable" r.sup
Substitution2: "denominators subtable" r.denom
Substitution2: "numerators subtable" r.numer
EndChar

StartChar: s
Encoding: 115 115 19
Width: 336
VWidth: 0
Flags: HW
HStem: -5 26<115.447 186.917> 380 19<164.688 223.244>
VStem: 73 61<261.518 345.504> 217 62<47.4232 135.23>
AnchorPoint: "cedilla" 126 -100 basechar 0
AnchorPoint: "top" 220 500 basechar 0
AnchorPoint: "l;bl" 0 10 basechar 0
AnchorPoint: "l;x" 20 380 basechar 0
AnchorPoint: "l;o" 0 200 basechar 0
AnchorPoint: "r;bl" 316 10 basechar 0
AnchorPoint: "r;x" 336 380 basechar 0
AnchorPoint: "r;o" 336 200 basechar 0
LayerCount: 3
Fore
SplineSet
301 335 m 0
 301 324 293 318 283 318 c 0
 259 318 245 335 235 353 c 0
 227 367 220 380 203 380 c 0
 173 380 134 366 134 317 c 0
 134 222 279 216 279 107 c 0
 279 48 220 -5 148 -5 c 0
 87 -5 20 30 20 61 c 0
 20 77 36 86 44 86 c 0
 66 86 74 75 87 62 c 0
 111 38 121 21 146 21 c 0
 185 21 217 49 217 94 c 0
 217 156 73 200 73 283 c 0
 73 346 133 399 204 399 c 0
 292 399 301 346 301 335 c 0
EndSplineSet
AlternateSubs2: "'aalt' Access All Alternates lookup 0 subtable" longs s.sub s.sup s.denom s.numer
AlternateSubs2: "'aalt' Access All Alternates in Latin lookup 0 subtable" longs s.sub s.sup s.denom s.numer
Substitution2: "'hist' Historical Forms in Latin lookup 11 subtable" longs
Substitution2: "'subs' Subscript in Latin lookup 8 subtable" s.sub
Substitution2: "'sups' Superscript in Latin lookup 7 subtable" s.sup
Substitution2: "denominators subtable" s.denom
Substitution2: "numerators subtable" s.numer
EndChar

StartChar: t
Encoding: 116 116 20
Width: 284
VWidth: 0
Flags: HW
HStem: -2 66<77 158> 342 30<35.6563 106.925 177.225 266.497>
VStem: 132 67<393.477 497.928>
AnchorPoint: "top" 178 540 basechar 0
AnchorPoint: "caron" 256 550 basechar 0
AnchorPoint: "cedilla" 74 -100 basechar 0
AnchorPoint: "l;bl" 0 10 basechar 0
AnchorPoint: "l;x" 0 380 basechar 0
AnchorPoint: "l;o" 0 200 basechar 0
AnchorPoint: "r;bl" 264 10 basechar 0
AnchorPoint: "r;x" 284 380 basechar 0
AnchorPoint: "r;o" 284 200 basechar 0
LayerCount: 3
Fore
SplineSet
181 342 m 6
 169 342 170 342 168 332 c 4
 152 246 127 94 127 85 c 4
 127 77 127 64 146 64 c 4
 170 64 251 154 255 154 c 4
 258 154 269 145 269 143 c 4
 269 138 149 -2 89 -2 c 4
 65 -2 54 9 54 32 c 4
 54 49 107 324 107 331 c 4
 107 340 110 342 98 342 c 6
 51 342 l 6
 47 342 35 342 35 346 c 4
 35 349 36 361 36 365 c 4
 36 367 38 372 44 372 c 6
 105 372 l 6
 111 372 114 372 116 380 c 4
 120 402 129 458 132 481 c 4
 134 493 135 496 150 498 c 4
 155 499 162 499 171 499 c 4
 185 499 199 498 199 494 c 4
 199 491 178 400 175 382 c 4
 174 373 174 372 185 372 c 6
 258 372 l 6
 266 372 267 369 267 364 c 4
 267 351 263 342 254 342 c 6
 181 342 l 6
EndSplineSet
AlternateSubs2: "'aalt' Access All Alternates lookup 0 subtable" t.sub t.sup t.denom t.numer
AlternateSubs2: "'aalt' Access All Alternates in Latin lookup 0 subtable" t.sub t.sup t.denom t.numer
Substitution2: "'subs' Subscript in Latin lookup 8 subtable" t.sub
Substitution2: "'sups' Superscript in Latin lookup 7 subtable" t.sup
Substitution2: "denominators subtable" t.denom
Substitution2: "numerators subtable" t.numer
EndChar

StartChar: u
Encoding: 117 117 21
Width: 521
VWidth: 0
Flags: HW
HStem: 0 54<139.509 200.948> 344 47<108.01 181.5>
VStem: 332 63<14.2581 143.43> 388 62<305.126 392.557>
AnchorPoint: "top" 318 500 basechar 0
AnchorPoint: "l;bl" 0 10 basechar 0
AnchorPoint: "l;x" 20 380 basechar 0
AnchorPoint: "l;o" 0 200 basechar 0
AnchorPoint: "r;bl" 501 10 basechar 0
AnchorPoint: "r;x" 521 380 basechar 0
AnchorPoint: "r;o" 521 200 basechar 0
LayerCount: 3
Fore
SplineSet
506 147 m 4xe0
 506 140 425 0 365 0 c 4
 347 0 332 11 332 27 c 4xe0
 332 68 373 214 381 280 c 5
 380 277 347 206 312 153 c 4
 264 80 197 -5 139 -5 c 4
 120 -5 84 -1 84 37 c 4
 84 68 145 248 145 315 c 4
 145 326 144 344 125 344 c 4
 99 344 34 246 29 246 c 4
 24 246 15 251 15 256 c 4
 15 260 58 319 97 360 c 4
 114 377 139 391 168 391 c 4
 195 391 223 380 223 355 c 4
 223 325 159 124 159 77 c 4
 159 66 165 54 187 54 c 4
 214 54 242 85 275 132 c 4
 316 191 357 268 376 331 c 4
 379 342 385 369 388 386 c 4
 389 392 399 391 441 396 c 4
 445 396 450 395 450 387 c 4xd0
 450 375 395 110 395 89 c 4
 395 79 397 64 414 64 c 4
 439 64 494 154 498 154 c 4
 502 154 506 150 506 147 c 4xe0
EndSplineSet
AlternateSubs2: "'aalt' Access All Alternates lookup 0 subtable" u.sub u.sup u.denom u.numer
AlternateSubs2: "'aalt' Access All Alternates in Latin lookup 0 subtable" u.sub u.sup u.denom u.numer
Substitution2: "'subs' Subscript in Latin lookup 8 subtable" u.sub
Substitution2: "'sups' Superscript in Latin lookup 7 subtable" u.sup
Substitution2: "denominators subtable" u.denom
Substitution2: "numerators subtable" u.numer
EndChar

StartChar: v
Encoding: 118 118 22
Width: 443
VWidth: 0
Flags: HW
HStem: -5 69<185.469 225.666> 350 42<80.7412 134.213> 371 30<298.262 389>
VStem: 120 60<70.4242 283.401> 140 65<136.474 344.39> 370 48<268.985 370.46>
AnchorPoint: "l;bl" 0 10 basechar 0
AnchorPoint: "l;x" 0 380 basechar 0
AnchorPoint: "l;o" 0 200 basechar 0
AnchorPoint: "r;bl" 423 10 basechar 0
AnchorPoint: "r;x" 443 380 basechar 0
AnchorPoint: "r;o" 443 200 basechar 0
LayerCount: 3
Fore
SplineSet
205 337 m 0xcc
 205 268 180 138 180 100 c 0
 180 82 209 64 214 64 c 0
 219 64 229 65 237 75 c 0
 244 83 256 100 268 116 c 0
 311 174 370 253 370 331 c 0
 370 363 360 371 345 371 c 0
 321 371 289 362 286 362 c 0
 285 362 280 367 280 378 c 0
 280 384 350 401 378 401 c 0
 400 401 418 396 418 361 c 0
 418 260 326 149 247 48 c 0
 240 39 230 24 224 14 c 0
 216 1 211 -5 200 -5 c 0
 188 -5 169 8 159 16 c 0
 131 38 120 50 120 97 c 0xb4
 120 137 140 256 140 319 c 0
 140 329 139 336 130 342 c 0
 123 346 110 350 106 350 c 0
 72 350 31 286 27 286 c 0
 20 286 10 295 10 299 c 0
 10 310 88 392 124 392 c 0
 135 392 156 388 166 382 c 0
 196 365 205 359 205 337 c 0xcc
EndSplineSet
AlternateSubs2: "'aalt' Access All Alternates lookup 0 subtable" v.sub v.sup v.denom v.numer
AlternateSubs2: "'aalt' Access All Alternates in Latin lookup 0 subtable" v.sub v.sup v.denom v.numer
Substitution2: "'subs' Subscript in Latin lookup 8 subtable" v.sub
Substitution2: "'sups' Superscript in Latin lookup 7 subtable" v.sup
Substitution2: "denominators subtable" v.denom
Substitution2: "numerators subtable" v.numer
EndChar

StartChar: w
Encoding: 119 119 23
Width: 681
VWidth: 0
Flags: HW
HStem: -1 55<191.835 227.782 409.719 449.228> 344 42<84.2313 135.901> 362 32<533.485 627>
VStem: 126 59<59.8191 267.346> 148 62<118.869 333.044> 345 59<58.7199 197.94> 372 62<200.434 336.577> 605 51<268.7 361.6>
DStem2: 241 72 249 51 0.565892 0.824479<-27.1791 208.696>
AnchorPoint: "r;o" 681 200 basechar 0
AnchorPoint: "r;x" 681 380 basechar 0
AnchorPoint: "r;bl" 661 10 basechar 0
AnchorPoint: "l;o" 0 200 basechar 0
AnchorPoint: "l;x" 0 380 basechar 0
AnchorPoint: "l;bl" 0 10 basechar 0
AnchorPoint: "top" 382 500 basechar 0
LayerCount: 3
Fore
SplineSet
210 322 m 0xc9
 210 254 185 102 185 95 c 0
 185 77 208 54 219 54 c 0
 223 54 232 59 241 72 c 0
 266 107 319 187 338 211 c 0
 356 234 372 286 372 303 c 0
 372 316 360 327 352 335 c 0
 336 351 325 355 325 359 c 0
 325 371 350 395 363 395 c 0
 385 395 434 352 434 334 c 0xd3
 434 302 404 133 404 95 c 0
 404 72 428 52 442 52 c 0
 451 52 460 63 472 77 c 0
 504 114 536 153 560 188 c 0
 589 231 604 271 605 329 c 0
 605 354 595 362 584 362 c 0
 560 362 508 350 505 350 c 0
 504 350 499 356 499 367 c 0
 499 373 606 394 616 394 c 0
 638 394 656 390 656 355 c 0
 656 275 576 150 491 64 c 0
 473 47 463 35 443 14 c 0
 435 6 434 4 427 4 c 0
 380 4 345 41 345 81 c 0
 345 100 366 193 374 234 c 1
 342 184 286 98 249 51 c 0
 242 42 230 23 223 14 c 0
 214 2 212 -1 202 -1 c 0
 190 -1 171 13 161 21 c 0
 133 43 126 52 126 86 c 0xb5
 126 126 148 201 148 298 c 0
 148 315 121 344 104 344 c 0
 70 344 28 287 24 287 c 0
 17 287 10 298 10 302 c 0
 10 313 98 386 134 386 c 0
 145 386 169 374 179 368 c 0
 209 348 210 336 210 322 c 0xc9
EndSplineSet
AlternateSubs2: "'aalt' Access All Alternates lookup 0 subtable" w.sub w.sup w.denom w.numer
AlternateSubs2: "'aalt' Access All Alternates in Latin lookup 0 subtable" w.sub w.sup w.denom w.numer
Substitution2: "'subs' Subscript in Latin lookup 8 subtable" w.sub
Substitution2: "'sups' Superscript in Latin lookup 7 subtable" w.sup
Substitution2: "denominators subtable" w.denom
Substitution2: "numerators subtable" w.numer
EndChar

StartChar: x
Encoding: 120 120 24
Width: 458
VWidth: 0
Flags: HW
HStem: -3 55<304.5 377.464> -3 46<40 100.766> 348 40<90.5123 150.554> 357 39<369.095 416.749>
VStem: 15 38<14 96.7367> 417 24<300.589 366.618>
AnchorPoint: "l;bl" 0 10 basechar 0
AnchorPoint: "l;x" 20 380 basechar 0
AnchorPoint: "l;o" 0 200 basechar 0
AnchorPoint: "r;bl" 448 10 basechar 0
AnchorPoint: "r;x" 458 380 basechar 0
AnchorPoint: "r;o" 458 200 basechar 0
LayerCount: 3
Fore
SplineSet
443 110 m 0x9c
 443 91 381 -3 331 -3 c 0x9c
 278 -3 261 71 231 157 c 0
 227 168 226 162 220 155 c 0
 180 109 113 -3 49 -3 c 0
 31 -3 15 5 15 23 c 0
 15 46 27 83 41 114 c 0
 43 117 45 119 49 119 c 0
 51 119 63 116 63 111 c 0
 63 107 53 86 53 65 c 0
 53 50 63 43 74 43 c 0
 107 43 188 145 213 179 c 0
 219 188 219 188 215 200 c 0
 190 270 157 348 115 348 c 0
 83 348 48 291 40 291 c 0
 35 291 29 299 29 304 c 0
 29 309 83 388 148 388 c 0x6c
 214 388 227 338 261 248 c 0
 266 235 268 240 274 250 c 0
 308 303 357 396 416 396 c 0
 432 396 441 377 441 356 c 0
 441 336 435 314 433 300 c 0
 432 295 416 297 416 300 c 0
 416 311 417 322 417 332 c 0
 417 350 410 357 400 357 c 0
 371 357 311 272 279 224 c 0
 274 217 274 214 277 204 c 0
 292 160 331 52 365 52 c 0
 393 52 423 118 426 118 c 0
 430 118 443 114 443 110 c 0x9c
EndSplineSet
AlternateSubs2: "'aalt' Access All Alternates lookup 0 subtable" x.sub x.sup x.denom x.numer
AlternateSubs2: "'aalt' Access All Alternates in Latin lookup 0 subtable" x.sub x.sup x.denom x.numer
Substitution2: "'subs' Subscript in Latin lookup 8 subtable" x.sub
Substitution2: "'sups' Superscript in Latin lookup 7 subtable" x.sup
Substitution2: "denominators subtable" x.denom
Substitution2: "numerators subtable" x.numer
EndChar

StartChar: y
Encoding: 121 121 25
Width: 422
VWidth: 0
Flags: HW
HStem: -289 80<1.9963 56.0757> 337 45<76.246 178.5> 374 20G<368 377.5>
VStem: 174 57<43 237.499> 360 47<291.319 391.39>
DStem2: 115 -160 117 -217 0.471101 0.882079<-46.1005 131.17 233.71 367.137>
AnchorPoint: "top" 279 500 basechar 0
AnchorPoint: "l;bl" 0 10 basechar 0
AnchorPoint: "l;x" 0 380 basechar 0
AnchorPoint: "l;o" 0 200 basechar 0
AnchorPoint: "l;lo" 0 -260 basechar 0
AnchorPoint: "r;bl" 402 10 basechar 0
AnchorPoint: "r;x" 422 380 basechar 0
AnchorPoint: "r;o" 422 200 basechar 0
LayerCount: 3
Fore
SplineSet
174 17 m 0xb8
 174 130 166 337 105 337 c 0
 65 337 29 276 24 276 c 0
 22 276 10 279 10 286 c 0
 10 290 68 382 135 382 c 0xd8
 222 382 222 241 231 43 c 1
 265 109 318 195 343 276 c 0
 355 314 357 342 360 377 c 0
 361 389 365 394 371 394 c 0
 384 394 407 385 407 369 c 0
 407 365 406 358 405 352 c 0
 391 258 234 3 228 -8 c 0
 206 -49 157 -146 117 -217 c 0
 108 -233 96 -243 78 -254 c 0
 53 -269 23 -289 4 -289 c 0
 -7 -289 -13 -273 -13 -262 c 0
 -13 -223 29 -220 61 -209 c 0
 81 -202 104 -180 115 -160 c 0
 169 -60 174 -23 174 17 c 0xb8
EndSplineSet
AlternateSubs2: "'aalt' Access All Alternates lookup 0 subtable" y.sub y.sup y.denom y.numer
AlternateSubs2: "'aalt' Access All Alternates in Latin lookup 0 subtable" y.sub y.sup y.denom y.numer
Substitution2: "'subs' Subscript in Latin lookup 8 subtable" y.sub
Substitution2: "'sups' Superscript in Latin lookup 7 subtable" y.sup
Substitution2: "denominators subtable" y.denom
Substitution2: "numerators subtable" y.numer
EndChar

StartChar: A
Encoding: 65 65 26
Width: 688
VWidth: 0
Flags: HW
HStem: -3 30<20.0144 79.5155 140.001 219.991 442.014 519 609.815 667.991> 281 24<284.004 481.859> 667 20G<482.5 491.5>
AnchorPoint: "top" 501 780 basechar 0
AnchorPoint: "l;bl" 0 10 basechar 0
AnchorPoint: "l;x" 100 380 basechar 0
AnchorPoint: "l;hi" 180 650 basechar 0
AnchorPoint: "l;o" 60 200 basechar 0
AnchorPoint: "r;bl" 688 10 basechar 0
AnchorPoint: "r;x" 688 380 basechar 0
AnchorPoint: "r;hi" 688 650 basechar 0
AnchorPoint: "r;o" 688 200 basechar 0
LayerCount: 3
Fore
SplineSet
615 27 m 2
 657 27 l 2
 668 27 668 26 668 14 c 0
 668 -1 667 -3 657 -3 c 0
 642 -3 597 0 567 0 c 0
 537 0 479 -3 456 -3 c 0
 443 -3 442 -2 442 15 c 0
 442 27 444 27 460 27 c 2
 517 27 l 2
 519 27 519 31 519 38 c 0
 519 79 494 229 491 262 c 0
 489 281 488 281 473 281 c 2
 284 281 l 2
 271 281 268 279 261 266 c 0
 236 219 140 42 140 28 c 0
 140 27 141 27 141 27 c 1
 209 27 l 2
 220 27 220 26 220 14 c 0
 220 -1 219 -3 209 -3 c 0
 186 -3 137 0 107 0 c 0
 77 0 57 -3 34 -3 c 0
 21 -3 20 -2 20 15 c 0
 20 27 22 27 38 27 c 2
 71 27 l 2
 79 27 338 489 420 610 c 0
 433 629 454 640 471 673 c 0
 475 681 479 687 486 687 c 0
 497 687 497 678 499 668 c 0
 518 551 603 27 615 27 c 2
302 305 m 2
 469 305 l 2
 479 305 482 307 482 310 c 0
 482 326 439 579 437 579 c 0
 435 579 430 571 424 560 c 2
 291 326 l 2
 287 319 284 314 284 311 c 0
 284 306 290 305 302 305 c 2
EndSplineSet
Position2: "'cpsp' Capital Spacing in Latin lookup 2 subtable" dx=4 dy=0 dh=8 dv=0
EndChar

StartChar: B
Encoding: 66 66 27
Width: 561
VWidth: 0
Flags: HW
HStem: -3 33<20.0062 83.6 166.054 347.164> 323 21<208.199 341.116> 636 29<79.005 162.759 246.987 366.36>
VStem: 444 82<103.165 246.167 450.284 573.703>
AnchorPoint: "l;o" 10 200 basechar 0
AnchorPoint: "l;hi" 60 650 basechar 0
AnchorPoint: "l;x" 30 380 basechar 0
AnchorPoint: "l;bl" 0 10 basechar 0
AnchorPoint: "top" 315 780 basechar 0
AnchorPoint: "r;bl" 541 10 basechar 0
AnchorPoint: "r;x" 561 380 basechar 0
AnchorPoint: "r;hi" 561 650 basechar 0
AnchorPoint: "r;o" 561 200 basechar 0
LayerCount: 3
Fore
SplineSet
442 501 m 4
 442 583 383 637 291 637 c 6
 275 637 l 6
 255 637 248 634 243 606 c 4
 232 540 212 393 208 364 c 4
 206 348 204 344 220 344 c 6
 236 344 l 6
 257 344 283 343 287 343 c 4
 309 343 324 351 342 360 c 4
 393 386 442 427 442 501 c 4
237 -3 m 4
 214 -3 167 0 137 0 c 4
 107 0 57 -3 34 -3 c 4
 21 -3 20 -2 20 15 c 4
 20 27 22 27 38 27 c 6
 81 27 l 5
 81 27 159 541 163 622 c 4
 164 634 163 636 153 636 c 6
 98 636 l 6
 86 636 79 636 79 651 c 4
 79 663 83 665 91 665 c 4
 98 665 178 662 213 662 c 4
 241 662 310 665 323 665 c 4
 428 665 521 632 521 516 c 4
 521 374 328 339 328 337 c 4
 328 334 526 330 526 165 c 4
 526 14 348 -3 237 -3 c 4
444 181 m 4
 444 281 363 323 262 323 c 6
 231 323 l 6
 206 323 204 322 202 311 c 4
 199 297 176 131 167 60 c 4
 166 55 166 51 166 48 c 4
 166 33 174 33 200 31 c 4
 214 30 230 30 245 30 c 4
 362 30 444 76 444 181 c 4
EndSplineSet
Position2: "'cpsp' Capital Spacing in Latin lookup 2 subtable" dx=4 dy=0 dh=8 dv=0
EndChar

StartChar: C
Encoding: 67 67 28
Width: 686
VWidth: 0
Flags: HW
HStem: -14 34<277.873 457.65> 643 28<327.019 469.301>
VStem: 35 90<169.604 408.598> 576 40<112.292 189.541 430.783 504.408> 603 48<500.885 619.162> 610 41<584 623.86>
AnchorPoint: "cedilla" 349 -100 basechar 0
AnchorPoint: "top" 408 780 basechar 0
AnchorPoint: "l;bl" 20 10 basechar 0
AnchorPoint: "l;x" 0 380 basechar 0
AnchorPoint: "l;hi" 40 650 basechar 0
AnchorPoint: "l;o" 0 200 basechar 0
AnchorPoint: "r;bl" 626 10 basechar 0
AnchorPoint: "r;x" 666 380 basechar 0
AnchorPoint: "r;hi" 686 650 basechar 0
AnchorPoint: "r;o" 651 200 basechar 0
LayerCount: 3
Fore
SplineSet
367 20 m 0xe8
 470 20 546 81 551 96 c 4
 562 128 570 158 576 180 c 4
 580 193 586 192 599 189 c 4
 608 187 616 183 616 178 c 4xf0
 616 173 604 132 583 62 c 4
 577 42 455 -14 360 -14 c 0
 198 -14 35 64 35 291 c 0
 35 508 206 671 398 671 c 0
 484 671 566 632 610 584 c 5xe4
 612 591 620 625 622 625 c 4
 631 625 651 620 651 614 c 4xe8
 651 608 621 461 616 435 c 4xf0
 615 429 608 430 603 430 c 4
 590 430 580 437 580 441 c 4
 580 445 603 529 603 538 c 4
 603 544 504 643 397 643 c 0
 240 643 125 447 125 288 c 0
 125 119 234 20 367 20 c 0xe8
EndSplineSet
Position2: "'cpsp' Capital Spacing in Latin lookup 2 subtable" dx=4 dy=0 dh=8 dv=0
EndChar

StartChar: D
Encoding: 68 68 29
Width: 742
VWidth: 0
Flags: HW
HStem: -4 29<19.0029 82.5771 177.301 360.52> 635 28<80.0117 165.976 253 427.605>
VStem: 614 88<237.449 468.299>
AnchorPoint: "l;o" 10 200 basechar 0
AnchorPoint: "l;hi" 60 650 basechar 0
AnchorPoint: "l;x" 30 380 basechar 0
AnchorPoint: "l;bl" 0 10 basechar 0
AnchorPoint: "top" 356 780 basechar 0
AnchorPoint: "r;x" 742 380 basechar 0
AnchorPoint: "r;o" 712 200 basechar 0
AnchorPoint: "r;bl" 672 10 basechar 0
AnchorPoint: "r;hi" 722 650 basechar 0
LayerCount: 3
Fore
SplineSet
344 663 m 0
 551 663 702 570 702 335 c 0
 702 113 534 -2 352 -4 c 0
 287 -4 192 0 127 0 c 0
 99 0 41 -4 30 -4 c 0
 19 -4 19 -2 19 10 c 0
 19 25 23 25 36 25 c 2
 79 25 l 2
 86 25 158 542 167 625 c 0
 168 632 164 636 163 636 c 2
 93 634 l 2
 84 634 80 634 80 646 c 0
 80 658 80 662 93 662 c 0
 97 662 178 661 212 661 c 0
 272 661 310 663 344 663 c 0
177 29 m 0
 183 25 216 25 236 25 c 0
 577 25 614 268 614 365 c 0
 614 522 522 635 316 635 c 0
 296 635 267 635 253 631 c 1
 253 630 171 92 171 46 c 0
 171 36 174 31 177 29 c 0
EndSplineSet
Position2: "'cpsp' Capital Spacing in Latin lookup 2 subtable" dx=4 dy=0 dh=8 dv=0
EndChar

StartChar: E
Encoding: 69 69 30
Width: 579
VWidth: 0
Flags: HW
HStem: -3 40<172.412 500.912> 0 30<20.0015 83.762 164.001 361.622> 325 27<209.435 423.976> 405 20G<457 464.5> 636 29<87.005 163.999 245.675 441.881>
VStem: 424 50<307.937 419.75> 507 31<544.003 631.928> 517 30<668.377 689.986>
DStem2: 372.879 -3 403.037 -3 0.156434 0.987688<244.889 317.916 358.836 432.183>
AnchorPoint: "l;bl" 0 10 basechar 0
AnchorPoint: "l;x" 30 380 basechar 0
AnchorPoint: "l;hi" 65 650 basechar 0
AnchorPoint: "l;o" 10 200 basechar 0
AnchorPoint: "top" 352 780 basechar 0
AnchorPoint: "r;bl" 579 10 basechar 0
AnchorPoint: "r;x" 579 380 basechar 0
AnchorPoint: "r;hi" 579 650 basechar 0
AnchorPoint: "r;o" 579 200 basechar 0
LayerCount: 3
Fore
SplineSet
171 30 m 4x7e
 197 30 490 37 490 37 c 6
 498 37 515 103 528 134 c 4
 530 139 534 143 542 143 c 4
 550 143 559 138 559 132 c 4
 559 121 538 71 517 8 c 4
 514 -1 510 -3 500 -3 c 4xbd
 477 -3 167 0 137 0 c 4x7d
 107 0 57 -3 34 -3 c 4
 21 -3 20 -2 20 15 c 4
 20 27 22 27 38 27 c 6
 81 27 l 5
 81 27 164 546 164 626 c 4
 164 633 162 636 161 636 c 6
 106 636 l 6
 94 636 87 636 87 651 c 4
 87 663 91 665 99 665 c 4
 106 665 178 662 213 662 c 4
 266 662 379 665 422 665 c 4
 489 665 515 666 517 678 c 4
 518 688 522 690 530 690 c 4
 544 690 547 689 547 679 c 4xbd
 547 660 540 634 538 554 c 4
 538 546 536 544 522 544 c 4
 510 544 507 548 507 558 c 4
 507 563 513 625 513 631 c 4
 513 635 361 638 250 638 c 4
 245 638 218 436 209 369 c 4
 207 354 205 352 223 352 c 6
 387 352 l 6
 406 352 432 352 434 365 c 6
 445 418 l 6
 446 424 453 425 461 425 c 4
 468 425 474 424 474 419 c 4
 474 410 464 370 457 332 c 4
 451 300 444 256 442 243 c 4
 441 238 436 236 429 236 c 4
 421 236 412 238 412 244 c 4
 415 262 424 307 424 311 c 4
 424 321 416 325 374 325 c 6
 223 325 l 6
 208 325 205 325 203 315 c 4
 200 299 169 83 164 39 c 4
 164 32 166 30 171 30 c 4x7e
EndSplineSet
Position2: "'cpsp' Capital Spacing in Latin lookup 2 subtable" dx=4 dy=0 dh=8 dv=0
EndChar

StartChar: F
Encoding: 70 70 31
Width: 541
VWidth: 0
Flags: HW
HStem: 0 27<20.0062 83.052 165.229 247.999> 325 27<209.543 415.976> 395 20G<446 453.5> 636 29<87.005 163.999 245.95 444.725>
VStem: 164 45<439.298 522.754> 416 47<296.627 411.048> 481 31<544.003 631.928> 491 30<666.285 689.986>
DStem2: 366.295 -3 396.454 -3 0.156434 0.987688<255.014 317.702 358.895 421.623>
AnchorPoint: "r;o" 481 200 basechar 0
AnchorPoint: "r;hi" 541 650 basechar 0
AnchorPoint: "r;x" 541 380 basechar 0
AnchorPoint: "r;bl" 411 10 basechar 0
AnchorPoint: "l;o" 10 200 basechar 0
AnchorPoint: "l;hi" 65 650 basechar 0
AnchorPoint: "l;x" 30 380 basechar 0
AnchorPoint: "l;bl" 0 10 basechar 0
AnchorPoint: "top" 344 780 basechar 0
LayerCount: 3
Fore
SplineSet
172 27 m 2xfe
 237 27 l 2
 248 27 248 26 248 14 c 0
 248 -1 247 -3 237 -3 c 0
 214 -3 167 0 137 0 c 0
 107 0 57 -3 34 -3 c 0
 21 -3 20 -2 20 15 c 0
 20 27 22 27 38 27 c 2
 81 27 l 1
 81 27 164 546 164 626 c 0
 164 633 162 636 161 636 c 2
 106 636 l 2
 94 636 87 636 87 651 c 0
 87 663 91 665 99 665 c 0
 106 665 178 662 213 662 c 0
 266 662 379 665 422 665 c 0
 489 665 489 666 491 678 c 0
 492 688 496 690 504 690 c 0
 518 690 521 689 521 679 c 0xfd
 521 660 514 634 512 554 c 0
 512 546 510 544 496 544 c 0
 484 544 481 548 481 558 c 0
 481 563 487 625 487 631 c 0
 487 635 361 638 250 638 c 0
 245 638 214 405 209 368 c 0
 207 352 207 352 223 352 c 2
 379 352 l 2
 398 352 424 352 426 365 c 2
 434 408 l 2
 435 414 442 415 450 415 c 0
 457 415 463 414 463 409 c 0
 463 400 456 370 449 332 c 0
 443 300 439 266 437 253 c 0
 436 248 431 246 424 246 c 0
 416 246 407 248 407 254 c 0
 410 272 416 307 416 311 c 0
 416 321 408 325 366 325 c 2
 223 325 l 2
 208 325 205 325 203 315 c 0
 200 299 169 80 164 36 c 0
 163 30 166 27 172 27 c 2xfe
EndSplineSet
Position2: "'cpsp' Capital Spacing in Latin lookup 2 subtable" dx=4 dy=0 dh=8 dv=0
EndChar

StartChar: G
Encoding: 71 71 32
Width: 721
VWidth: 0
Flags: HW
HStem: -26 34<278.212 427.235> 220 30<441.1 542.699 622.517 690.993> 650 25<347.248 482.04>
VStem: 35 95<156.647 397.297>
DStem2: 634 641 666 643 0.103138 0.994667<-186.16 -71.9234 -27.4492 12.0355>
AnchorPoint: "r;o" 721 200 basechar 0
AnchorPoint: "r;hi" 721 650 basechar 0
AnchorPoint: "r;x" 721 380 basechar 0
AnchorPoint: "r;bl" 661 10 basechar 0
AnchorPoint: "l;o" 0 200 basechar 0
AnchorPoint: "l;hi" 40 650 basechar 0
AnchorPoint: "l;x" 0 380 basechar 0
AnchorPoint: "l;bl" 20 10 basechar 0
AnchorPoint: "cedilla" 294 -100 basechar 0
AnchorPoint: "top" 422 780 basechar 0
LayerCount: 3
Fore
SplineSet
130 276 m 0
 130 109 236 8 362 8 c 0
 458 8 520 50 525 70 c 0
 530 89 540 136 543 206 c 0
 544 219 540 220 534 220 c 2
 449 220 l 2
 443 220 441 225 441 232 c 0
 441 241 443 250 450 250 c 0
 499 249 548 247 580 247 c 0
 612 247 636 249 683 250 c 0
 690 250 691 244 691 236 c 0
 691 228 690 220 683 220 c 2
 626 220 l 2
 622 220 611 109 607 74 c 0
 605 56 450 -26 308 -26 c 0
 230 -26 35 19 35 266 c 0
 35 487 209 675 411 675 c 0
 537 675 626 614 628 614 c 0
 630 614 633 636 634 641 c 0
 636 649 637 652 645 652 c 0
 655 652 667 650 666 643 c 0
 658 590 654 565 643 468 c 0
 642 460 641 454 628 454 c 0
 610 454 608 461 610 470 c 0
 611 474 626 561 626 570 c 0
 626 578 494 650 415 650 c 0
 251 650 130 449 130 276 c 0
EndSplineSet
Position2: "'cpsp' Capital Spacing in Latin lookup 2 subtable" dx=4 dy=0 dh=8 dv=0
EndChar

StartChar: H
Encoding: 72 72 33
Width: 795
VWidth: 0
Flags: HW
HStem: -3 30<20.0062 95.51 182.001 259.991 465.014 539.832 623.001 698.991> 326 24<222.999 579.063> 639 30<98.004 179.987 265.148 337.986 535.004 616.994 701.459 774.986>
AnchorPoint: "top" 454 780 basechar 0
AnchorPoint: "l;bl" 0 10 basechar 0
AnchorPoint: "l;x" 35 380 basechar 0
AnchorPoint: "l;hi" 65 650 basechar 0
AnchorPoint: "l;o" 15 200 basechar 0
AnchorPoint: "r;bl" 735 10 basechar 0
AnchorPoint: "r;x" 775 380 basechar 0
AnchorPoint: "r;hi" 795 650 basechar 0
AnchorPoint: "r;o" 755 200 basechar 0
LayerCount: 3
Fore
SplineSet
171 639 m 2
 110 639 l 2
 103 639 98 640 98 654 c 0
 98 669 104 669 117 669 c 0
 133 669 193 666 223 666 c 0
 253 666 301 669 324 669 c 0
 337 669 338 668 338 651 c 0
 338 639 336 639 320 639 c 2
 270 639 l 2
 264 639 243 509 223 369 c 0
 221 354 220 350 235 350 c 2
 567 350 l 2
 580 350 585 350 587 362 c 0
 603 486 617 601 617 623 c 0
 617 636 615 639 608 639 c 2
 547 639 l 2
 540 639 535 640 535 654 c 0
 535 669 541 669 554 669 c 0
 570 669 631 666 661 666 c 0
 691 666 738 669 761 669 c 0
 774 669 775 668 775 651 c 0
 775 639 773 639 757 639 c 2
 707 639 l 2
 692 639 623 52 623 40 c 0
 623 32 625 27 631 27 c 2
 688 27 l 2
 699 27 699 26 699 14 c 0
 699 -1 698 -3 688 -3 c 0
 665 -3 604 0 574 0 c 0
 544 0 502 -3 479 -3 c 0
 466 -3 465 -2 465 15 c 0
 465 27 467 27 483 27 c 2
 536 27 l 2
 540 27 560 168 580 314 c 0
 581 325 580 326 565 326 c 2
 231 326 l 2
 219 326 216 324 214 310 c 0
 197 185 182 66 182 40 c 0
 182 32 184 27 190 27 c 2
 249 27 l 2
 260 27 260 26 260 14 c 0
 260 -1 259 -3 249 -3 c 0
 226 -3 166 0 136 0 c 0
 106 0 57 -3 34 -3 c 0
 21 -3 20 0 20 13 c 0
 20 25 22 27 38 27 c 2
 91 27 l 2
 101 27 180 585 180 623 c 0
 180 633 178 639 171 639 c 2
EndSplineSet
Position2: "'cpsp' Capital Spacing in Latin lookup 2 subtable" dx=4 dy=0 dh=8 dv=0
EndChar

StartChar: I
Encoding: 73 73 34
Width: 377
VWidth: 0
Flags: HW
HStem: 0 27<20.0062 100.939 194.001 278.999> 639 30<100.004 186.987 277.053 356.986>
AnchorPoint: "r;o" 327 200 basechar 0
AnchorPoint: "r;hi" 377 650 basechar 0
AnchorPoint: "r;x" 347 380 basechar 0
AnchorPoint: "r;bl" 307 10 basechar 0
AnchorPoint: "l;o" 15 200 basechar 0
AnchorPoint: "l;hi" 80 650 basechar 0
AnchorPoint: "l;x" 35 380 basechar 0
AnchorPoint: "l;bl" 0 10 basechar 0
AnchorPoint: "top" 250 780 basechar 0
LayerCount: 3
Fore
SplineSet
178 639 m 2
 112 639 l 2
 105 639 100 640 100 654 c 0
 100 669 106 669 119 669 c 0
 135 669 204 666 234 666 c 0
 264 666 320 669 343 669 c 0
 356 669 357 668 357 651 c 0
 357 639 355 639 339 639 c 2
 282 639 l 2
 270 639 194 100 194 40 c 0
 194 32 196 27 202 27 c 2
 268 27 l 2
 279 27 279 26 279 14 c 0
 279 -1 278 -3 268 -3 c 0
 245 -3 177 0 147 0 c 0
 117 0 57 -3 34 -3 c 0
 21 -3 20 -2 20 15 c 0
 20 27 22 27 38 27 c 2
 98 27 l 2
 105 27 187 572 187 623 c 0
 187 633 185 639 178 639 c 2
EndSplineSet
Position2: "'cpsp' Capital Spacing in Latin lookup 2 subtable" dx=4 dy=0 dh=8 dv=0
EndChar

StartChar: J
Encoding: 74 74 35
Width: 365
VWidth: 0
Flags: HW
HStem: -212 67<-28.018 80> 639 30<89.0058 186.987 271.766 344.986>
AnchorPoint: "l;bl" 0 10 basechar 0
AnchorPoint: "l;x" 35 380 basechar 0
AnchorPoint: "l;hi" 70 650 basechar 0
AnchorPoint: "l;o" 15 200 basechar 0
AnchorPoint: "r;bl" 295 10 basechar 0
AnchorPoint: "r;x" 335 380 basechar 0
AnchorPoint: "r;hi" 365 650 basechar 0
AnchorPoint: "r;o" 315 200 basechar 0
AnchorPoint: "top" 237 780 basechar 0
LayerCount: 3
Fore
SplineSet
109 -5 m 0
 134 239 187 604 187 621 c 0
 187 631 187 639 177 639 c 2
 109 639 l 2
 97 639 89 639 89 654 c 0
 89 669 96 669 109 669 c 0
 125 669 202 666 232 666 c 0
 262 666 308 669 331 669 c 0
 344 669 345 668 345 651 c 0
 345 639 343 639 327 639 c 2
 277 639 l 2
 265 639 214 210 203 130 c 0
 192 45 182 -65 104 -148 c 0
 75 -179 41 -212 -5 -212 c 0
 -28 -212 -58 -202 -58 -188 c 0
 -58 -153 2 -124 9 -124 c 0
 25 -124 40 -145 61 -145 c 0
 99 -145 103 -62 109 -5 c 0
EndSplineSet
Position2: "'cpsp' Capital Spacing in Latin lookup 2 subtable" dx=4 dy=0 dh=8 dv=0
EndChar

StartChar: K
Encoding: 75 75 36
Width: 655
VWidth: 0
Flags: HW
HStem: -3 30<19.0062 74.633 157.001 238.991 418.014 463.996 562.558 634.991> 320 18<202.154 263.585> 639 30<86.004 163.987 250.948 311.986 442.005 496.997 538.721 623.986>
AnchorPoint: "l;bl" 0 10 basechar 0
AnchorPoint: "l;x" 30 380 basechar 0
AnchorPoint: "l;hi" 66 650 basechar 0
AnchorPoint: "l;o" 10 200 basechar 0
AnchorPoint: "cedilla" 307 -100 basechar 0
AnchorPoint: "r;bl" 655 10 basechar 0
AnchorPoint: "r;x" 635 380 basechar 0
AnchorPoint: "r;hi" 645 650 basechar 0
AnchorPoint: "r;o" 635 200 basechar 0
LayerCount: 3
Fore
SplineSet
194 310 m 0
 181 214 157 70 157 38 c 0
 157 32 158 27 159 27 c 2
 228 27 l 2
 239 27 239 26 239 14 c 0
 239 -1 238 -3 228 -3 c 0
 205 -3 145 0 115 0 c 0
 85 0 56 -3 33 -3 c 0
 20 -3 19 0 19 13 c 0
 19 25 21 27 37 27 c 2
 70 27 l 2
 80 27 164 585 164 623 c 0
 164 633 162 639 155 639 c 2
 98 639 l 2
 91 639 86 640 86 654 c 0
 86 669 92 669 105 669 c 0
 121 669 177 666 207 666 c 0
 237 666 275 669 298 669 c 0
 311 669 312 668 312 651 c 0
 312 639 310 639 294 639 c 2
 259 639 l 2
 243 639 202 374 201 358 c 0
 200 346 205 338 214 338 c 2
 264 338 l 2
 276 338 443 557 487 618 c 0
 491 624 497 630 497 634 c 0
 497 637 493 639 482 639 c 2
 461 639 l 2
 449 639 442 639 442 654 c 0
 442 669 448 669 461 669 c 0
 477 669 500 666 530 666 c 0
 560 666 587 669 610 669 c 0
 623 669 624 668 624 651 c 0
 624 639 622 639 606 639 c 2
 548 639 l 1
 484 553 376 429 330 378 c 0
 322 369 313 362 313 359 c 0
 313 356 317 352 322 347 c 0
 390 285 478 155 561 44 c 0
 569 33 582 27 596 27 c 2
 624 27 l 2
 635 27 635 26 635 14 c 0
 635 -1 634 -3 624 -3 c 0
 601 -3 540 0 510 0 c 0
 480 0 455 -3 432 -3 c 0
 419 -3 418 -2 418 15 c 0
 418 27 420 27 436 27 c 2
 444 27 l 2
 459 27 464 30 464 34 c 0
 464 39 458 46 452 54 c 0
 412 111 265 320 256 320 c 2
 210 320 l 2
 201 320 196 321 194 310 c 0
EndSplineSet
Position2: "'cpsp' Capital Spacing in Latin lookup 2 subtable" dx=4 dy=0 dh=8 dv=0
EndChar

StartChar: L
Encoding: 76 76 37
Width: 586
VWidth: 0
Flags: HW
HStem: -3 30<20.0034 91.3654> 0 31<178.455 504.455> 639 27<90.0272 166 255 334.985>
VStem: 166 89<484.878 639>
AnchorPoint: "l;o" 10 200 basechar 0
AnchorPoint: "l;hi" 70 650 basechar 0
AnchorPoint: "l;x" 30 380 basechar 0
AnchorPoint: "l;bl" 0 10 basechar 0
AnchorPoint: "caron" 380 550 basechar 0
AnchorPoint: "cedilla" 295 -100 basechar 0
AnchorPoint: "top" 223 780 basechar 0
AnchorPoint: "r;bl" 586 10 basechar 0
AnchorPoint: "r;o" 586 200 basechar 0
LayerCount: 3
Fore
SplineSet
195 31 m 0x70
 304 31 476 36 486 37 c 0
 502 38 503 39 509 60 c 2
 534 137 l 2
 536 142 539 145 545 145 c 0
 555 145 566 141 566 135 c 0
 566 127 547 78 529 8 c 0
 527 -1 519 -3 509 -3 c 0xb0
 486 -3 163 0 133 0 c 0x70
 103 0 56 -3 33 -3 c 0
 20 -3 20 -2 20 15 c 0
 20 27 21 27 37 27 c 2
 89 27 l 2xb0
 91 27 166 594 166 626 c 0
 166 635 166 639 164 639 c 2
 106 639 l 2
 93 639 90 640 90 654 c 0
 90 668 94 669 110 669 c 0
 126 669 178 666 208 666 c 0
 238 666 295 669 318 669 c 0
 334 669 335 668 335 654 c 0
 335 642 333 639 317 639 c 2
 255 639 l 1
 255 638 178 66 178 53 c 0
 178 40 182 31 195 31 c 0x70
EndSplineSet
AlternateSubs2: "'aalt' Access All Alternates in Latin lookup 0 subtable" L.CAT
Position2: "'cpsp' Capital Spacing in Latin lookup 2 subtable" dx=4 dy=0 dh=8 dv=0
Substitution2: "catalan subtable" L.CAT
EndChar

StartChar: M
Encoding: 77 77 38
Width: 883
VWidth: 0
Flags: HW
HStem: -3 30<20.0144 89.021 129 204.991 582.014 645.828 735 824.986> 639 30<137.009 218.996 799 862.986>
DStem2: 320 656 248 617 0.194634 -0.980876<24.2405 544.368> 447 147 466 124 0.453914 0.891045<-28.5548 545.82>
AnchorPoint: "top" 507 780 basechar 0
AnchorPoint: "l;bl" 0 10 basechar 0
AnchorPoint: "l;x" 40 380 basechar 0
AnchorPoint: "l;hi" 120 650 basechar 0
AnchorPoint: "l;o" 20 200 basechar 0
AnchorPoint: "r;bl" 843 10 basechar 0
AnchorPoint: "r;x" 883 380 basechar 0
AnchorPoint: "r;hi" 883 650 basechar 0
AnchorPoint: "r;o" 883 200 basechar 0
LayerCount: 3
Fore
SplineSet
359 36 m 0
 333 198 248 617 248 617 c 1
 224 525 208 455 192 377 c 0
 161 228 129 49 129 27 c 1
 194 27 l 2
 205 27 205 26 205 14 c 0
 205 -1 204 -3 194 -3 c 0
 184 -3 136 0 106 0 c 0
 76 0 48 -3 34 -3 c 0
 21 -3 20 -2 20 15 c 0
 20 27 22 27 38 27 c 2
 86 27 l 1
 116 166 219 618 219 631 c 0
 219 638 213 639 194 639 c 2
 148 639 l 2
 137 639 137 640 137 652 c 0
 137 667 138 669 148 669 c 0
 162 669 232 666 253 666 c 0
 275 666 294 669 300 669 c 0
 310 669 317 669 320 656 c 2
 421 147 l 2
 424 132 427 123 431 123 c 0
 435 123 441 134 447 147 c 0
 529 318 605 479 699 652 c 0
 705 663 708 666 720 666 c 2
 764 666 l 2
 794 666 826 669 849 669 c 0
 862 669 863 668 863 651 c 0
 863 639 861 639 845 639 c 2
 799 639 l 1
 799 637 735 78 735 27 c 1
 812 27 l 2
 823 27 825 26 825 14 c 0
 825 -1 824 -3 814 -3 c 0
 791 -3 722 0 692 0 c 0
 662 0 605 -3 596 -3 c 0
 583 -3 582 -2 582 15 c 0
 582 27 584 27 600 27 c 2
 639 27 l 2
 660 27 719 621 719 621 c 1
 630 451 566 336 466 124 c 0
 445 79 427 74 391 27 c 0
 382 16 379 15 375 15 c 0
 370 15 362 18 359 36 c 0
EndSplineSet
Position2: "'cpsp' Capital Spacing in Latin lookup 2 subtable" dx=4 dy=0 dh=8 dv=0
EndChar

StartChar: N
Encoding: 78 78 39
Width: 824
VWidth: 0
Flags: HW
HStem: -21 21G<627 638> 0 27<20.0062 89.314 139.012 237.999> 639 30<90.009 184.048 606.009 695 740.029 803.986>
VStem: 88 51<27 156.531> 188 21<547.931 585.996>
DStem2: 278 656 230 565 0.550446 -0.834871<23.3227 502.708>
AnchorPoint: "cedilla" 379 -100 basechar 0
AnchorPoint: "top" 474 780 basechar 0
AnchorPoint: "l;bl" 0 10 basechar 0
AnchorPoint: "l;x" 20 380 basechar 0
AnchorPoint: "l;hi" 70 650 basechar 0
AnchorPoint: "l;o" 0 200 basechar 0
AnchorPoint: "r;bl" 744 10 basechar 0
AnchorPoint: "r;x" 804 380 basechar 0
AnchorPoint: "r;hi" 824 650 basechar 0
AnchorPoint: "r;o" 784 200 basechar 0
LayerCount: 3
Fore
SplineSet
278 656 m 2x78
 607 157 l 2
 615 145 620 145 623 145 c 0
 632 145 695 567 695 627 c 0
 695 635 695 639 693 639 c 2
 617 639 l 2
 606 639 606 640 606 652 c 0
 606 667 607 669 617 669 c 0
 640 669 676 666 706 666 c 0
 736 666 767 669 790 669 c 0
 803 669 804 668 804 651 c 0
 804 639 802 639 786 639 c 2
 744 639 l 2
 739 639 686 311 664 172 c 0
 660 147 655 123 648 4 c 0
 647 -15 644 -21 632 -21 c 0xb8
 622 -21 613 -4 604 11 c 0
 559 84 529 128 486 191 c 2
 230 565 l 2
 223 575 218 586 214 586 c 0
 212 586 210 581 209 566 c 0
 209 553 139 128 139 42 c 0
 139 32 140 27 142 27 c 2
 227 27 l 2
 238 27 238 26 238 14 c 0
 238 -1 237 -3 227 -3 c 0
 204 -3 151 0 121 0 c 0
 91 0 42 -3 34 -3 c 0
 21 -3 20 -2 20 15 c 0
 20 27 22 27 38 27 c 2
 88 27 l 1
 116 200 146 372 177 541 c 0
 180 561 188 596 188 614 c 0
 188 618 187 619 183 626 c 0
 176 639 172 639 151 639 c 2
 101 639 l 2
 90 639 90 640 90 652 c 0
 90 667 91 669 101 669 c 0
 115 669 192 666 213 666 c 0
 235 666 252 669 258 669 c 0
 269 669 271 667 278 656 c 2x78
EndSplineSet
Position2: "'cpsp' Capital Spacing in Latin lookup 2 subtable" dx=4 dy=0 dh=8 dv=0
EndChar

StartChar: O
Encoding: 79 79 40
Width: 734
VWidth: 0
Flags: HW
HStem: -22 24<282.992 411.006> 645 28<345.279 473.985>
VStem: 35 92<157.895 406.944> 608 91<239.601 482.948>
AnchorPoint: "top" 439 780 basechar 0
AnchorPoint: "l;bl" 20 10 basechar 0
AnchorPoint: "l;x" 0 380 basechar 0
AnchorPoint: "l;hi" 40 650 basechar 0
AnchorPoint: "l;o" 0 200 basechar 0
AnchorPoint: "r;x" 734 380 basechar 0
AnchorPoint: "r;hi" 734 650 basechar 0
AnchorPoint: "r;o" 699 200 basechar 0
AnchorPoint: "r;bl" 644 10 basechar 0
LayerCount: 3
Fore
SplineSet
334 -22 m 0
 174 -22 35 66 35 280 c 0
 35 519 226 673 407 673 c 0
 588 673 699 542 699 348 c 0
 699 148 537 -22 334 -22 c 0
127 286 m 0
 127 147 193 2 351 2 c 0
 509 2 608 213 608 373 c 0
 608 484 554 645 410 645 c 0
 265 645 127 463 127 286 c 0
EndSplineSet
Position2: "'cpsp' Capital Spacing in Latin lookup 2 subtable" dx=4 dy=0 dh=8 dv=0
EndChar

StartChar: P
Encoding: 80 80 41
Width: 570
VWidth: 0
Flags: HW
HStem: 0 27<20.0062 82.441 165.518 247.999> 304 19<202.264 312.856> 636 29<87.005 163.999> 643 24<246.07 366.933>
VStem: 458 77<411.883 575.596>
AnchorPoint: "l;bl" 0 10 basechar 0
AnchorPoint: "l;x" 30 380 basechar 0
AnchorPoint: "l;hi" 69 650 basechar 0
AnchorPoint: "l;o" 10 200 basechar 0
AnchorPoint: "top" 325 780 basechar 0
AnchorPoint: "r;bl" 420 10 basechar 0
AnchorPoint: "r;x" 530 380 basechar 0
AnchorPoint: "r;hi" 570 650 basechar 0
AnchorPoint: "r;o" 480 200 basechar 0
LayerCount: 3
Fore
SplineSet
246 638 m 0xd8
 242 613 213 420 204 354 c 0
 203 345 202 339 202 335 c 0
 202 324 212 323 233 323 c 0
 342 323 458 368 458 490 c 0
 458 589 400 643 291 643 c 0
 280 643 247 642 246 638 c 0xd8
291 302 m 0
 264 302 225 304 215 304 c 0
 203 304 199 303 197 295 c 0
 194 279 169 80 164 36 c 4
 163 30 166 27 172 27 c 2
 237 27 l 2
 248 27 248 26 248 14 c 0
 248 -1 247 -3 237 -3 c 0
 214 -3 167 0 137 0 c 4
 107 0 57 -3 34 -3 c 4
 21 -3 20 -2 20 15 c 4
 20 27 22 27 38 27 c 6
 81 27 l 5
 81 27 164 596 164 626 c 4
 164 633 162 636 161 636 c 6
 106 636 l 6
 94 636 87 636 87 651 c 4
 87 663 91 665 99 665 c 4xe8
 106 665 173 662 208 662 c 0
 238 662 307 667 325 667 c 0
 461 667 535 594 535 496 c 0
 535 344 407 302 291 302 c 0
EndSplineSet
Position2: "'cpsp' Capital Spacing in Latin lookup 2 subtable" dx=4 dy=0 dh=8 dv=0
EndChar

StartChar: Q
Encoding: 81 81 42
Width: 717
VWidth: 0
Flags: HW
HStem: -198 41<479.104 667.891> -111 45<49.6599 212.984> 646 29<324.179 460.689>
VStem: 35 86<180.504 414.212> 595 87<264.706 495.219>
AnchorPoint: "r;bl" 627 10 basechar 0
AnchorPoint: "r;o" 682 200 basechar 0
AnchorPoint: "r;hi" 717 650 basechar 0
AnchorPoint: "r;x" 717 380 basechar 0
AnchorPoint: "l;o" 0 200 basechar 0
AnchorPoint: "l;hi" 40 650 basechar 0
AnchorPoint: "l;x" 0 380 basechar 0
AnchorPoint: "l;bl" 20 10 basechar 0
LayerCount: 3
Fore
SplineSet
368 17 m 0
 418 17 595 166 595 400 c 0
 595 553 511 646 385 646 c 0
 275 646 121 492 121 290 c 0
 121 98 247 17 368 17 c 0
35 305 m 0
 35 484 191 675 398 675 c 0
 572 675 682 544 682 375 c 0
 682 187 567 63 438 16 c 0
 403 3 395 5 357 -14 c 0
 328 -28 294 -45 266 -60 c 0
 253 -67 238 -73 238 -76 c 0
 238 -79 255 -81 271 -85 c 0
 330 -101 528 -157 625 -157 c 0
 693 -157 717 -146 723 -146 c 0
 726 -146 728 -149 728 -157 c 0
 728 -158 623 -198 560 -198 c 0
 368 -198 164 -111 135 -111 c 0
 131 -111 113 -114 98 -120 c 0
 82 -126 63 -133 49 -133 c 0
 30 -133 16 -124 16 -107 c 0
 16 -75 67 -66 117 -66 c 0
 143 -66 169 -71 188 -71 c 0
 198 -71 206 -69 211 -67 c 0
 223 -62 281 -32 319 -14 c 0
 327 -10 332 -8 332 -7 c 0
 332 -2 35 -5 35 305 c 0
EndSplineSet
Position2: "'cpsp' Capital Spacing in Latin lookup 2 subtable" dx=4 dy=0 dh=8 dv=0
EndChar

StartChar: R
Encoding: 82 82 43
Width: 615
VWidth: 0
Flags: HW
HStem: 0 27<20.0033 80.237 164.001 237.999 529.001 594.973> 312 24<204.779 341.596> 636 26<79.058 162.998> 643 26<222.334 374.993>
VStem: 454 78<28.8583 224.26> 462 85<426.621 579.947>
DStem2: 74.248 -3 146.91 -3 0.156434 0.987688<69.774 333.745 372.054 643.496>
AnchorPoint: "l;o" 10 200 basechar 0
AnchorPoint: "l;hi" 59 650 basechar 0
AnchorPoint: "l;x" 30 380 basechar 0
AnchorPoint: "l;bl" 0 10 basechar 0
AnchorPoint: "cedilla" 303 -100 basechar 0
AnchorPoint: "top" 339 780 basechar 0
AnchorPoint: "r;bl" 615 10 basechar 0
AnchorPoint: "r;x" 595 380 basechar 0
AnchorPoint: "r;hi" 595 650 basechar 0
AnchorPoint: "r;o" 615 200 basechar 0
LayerCount: 3
Fore
SplineSet
164 36 m 0,18,19
241 638 m 0,0,1
 236 594 213 426 205 364 c 0,2,3
 204 360 204 356 204 353 c 0,4,5
 204 338 211 336 222 336 c 2,6,-1
 229 336 l 2,7,8
 263 336 288 333 299 333 c 0,9,10
 364 333 462 406 462 498 c 0,11,12
 462 593 405 643 291 643 c 0,13,14
 280 643 241 642 241 638 c 0,0,1
353 324 m 0,15,16
 353 322 380 316 419 300 c 0,17,18
 469 280 532 238 532 136 c 0,19,20
 532 120 529 66 529 38 c 0,21,22
 529 31 530 27 532 27 c 2,23,-1
 575 27 l 2,24,25
 591 27 595 25 595 12 c 0,26,27
 595 3 593 -3 587 -3 c 0,28,29
 579 -3 487 0 443 0 c 0,30,31
 436 0 437 5 438 13 c 0,32,33
 446 60 454 120 454 170 c 0,34,35
 454 234 398 291 319 307 c 0,36,37
 300 311 273 312 248 312 c 2,38,-1
 221 312 l 2,39,40
 215 312 196 312 193 288 c 0,41,42
 185 231 166 77 164 36 c 0,43,44
 164 30 166 27 172 27 c 2,45,-1
 225 27 l 2,46,47
 236 27 238 26 238 14 c 0,48,49
 238 -1 237 -3 227 -3 c 0,50,51
 204 -3 167 0 137 0 c 0,52,53
 107 0 57 -3 34 -3 c 0,54,55
 21 -3 20 -3 20 13 c 0,56,57
 20 25 22 27 38 27 c 2,58,-1
 79 27 l 1,59,60
 105 173 156 541 163 631 c 0,61,62
 163 634 160 636 159 636 c 2,63,-1
 98 636 l 2,64,65
 86 636 79 636 79 651 c 0,66,67
 79 663 88 665 96 665 c 0,68,69
 103 665 138 662 203 662 c 0,70,71
 234 662 310 669 345 669 c 0,72,73
 459 669 547 603 547 507 c 0,74,75
 547 350 353 329 353 324 c 0,15,16
EndSplineSet
Position2: "'cpsp' Capital Spacing in Latin lookup 2 subtable" dx=4 dy=0 dh=8 dv=0
EndChar

StartChar: S
Encoding: 83 83 44
Width: 505
VWidth: 0
Flags: HW
HStem: -13 29<189.502 327.466> 638 31<220.459 345.005>
VStem: 40 38<58 176.671> 89 70<443.713 565.326> 395 65<93.3952 196.813> 423 47<539.474 651.071> 440 30<613.806 654.618>
AnchorPoint: "r;hi" 505 650 basechar 0
AnchorPoint: "cedilla" 228 -100 basechar 0
AnchorPoint: "top" 315 780 basechar 0
AnchorPoint: "l;bl" 0 10 basechar 0
AnchorPoint: "l;x" 20 380 basechar 0
AnchorPoint: "l;hi" 60 650 basechar 0
AnchorPoint: "l;o" 0 200 basechar 0
AnchorPoint: "r;bl" 485 10 basechar 0
AnchorPoint: "r;x" 505 380 basechar 0
AnchorPoint: "r;o" 505 200 basechar 0
LayerCount: 3
Fore
SplineSet
265 16 m 0xf8
 340 16 395 68 395 139 c 0xf8
 395 292 89 264 89 473 c 0
 89 588 174 669 294 669 c 0
 365 669 430 613 432 613 c 0
 434 613 437 633 440 645 c 0xf2
 441 649 441 656 452 655 c 0
 459 654 470 654 470 648 c 0
 470 640 449 534 439 481 c 0
 437 469 430 469 424 469 c 0
 412 469 408 475 408 481 c 0
 408 482 423 535 423 550 c 0xf4
 423 556 370 638 283 638 c 0
 206 638 159 584 159 506 c 0
 159 340 460 392 460 175 c 0
 460 53 343 -13 250 -13 c 0
 130 -13 40 49 40 67 c 0
 40 73 54 152 57 167 c 0
 59 175 62 199 65 201 c 0
 66 202 68 202 70 202 c 0
 78 202 93 198 93 192 c 0
 93 188 78 105 78 100 c 0
 78 80 180 16 265 16 c 0xf8
EndSplineSet
Position2: "'cpsp' Capital Spacing in Latin lookup 2 subtable" dx=4 dy=0 dh=8 dv=0
EndChar

StartChar: T
Encoding: 84 84 45
Width: 681
VWidth: 0
Flags: HW
HStem: 0 27<148.006 224.944 321.006 403.999> 633 28<95.4097 316.999 403.277 627.427> 666 20G<641 652>
VStem: 622 30<535.077 630.579> 631 30<664.781 685.997>
AnchorPoint: "r;k;hi2" 681 710 basechar 0
AnchorPoint: "cedilla" 259 -100 basechar 0
AnchorPoint: "l;bl" 40 10 basechar 0
AnchorPoint: "l;x" 40 380 basechar 0
AnchorPoint: "l;hi" 0 650 basechar 0
AnchorPoint: "l;o" 40 200 basechar 0
AnchorPoint: "r;bl" 521 10 basechar 0
AnchorPoint: "r;x" 581 380 basechar 0
AnchorPoint: "r;hi" 681 650 basechar 0
AnchorPoint: "r;o" 561 200 basechar 0
LayerCount: 3
Fore
SplineSet
652 545 m 0xf0
 652 537 647 535 633 535 c 0
 621 535 622 539 622 549 c 0xf0
 622 554 628 621 628 627 c 0
 628 633 578 633 521 633 c 2
 415 633 l 2
 406 633 404 624 402 613 c 0
 387 512 321 44 321 41 c 0
 321 32 323 27 329 27 c 2
 393 27 l 2
 404 27 404 26 404 14 c 0
 404 -1 403 -3 393 -3 c 0
 370 -3 303 0 273 0 c 0
 243 0 178 -3 162 -3 c 0
 149 -3 148 -2 148 15 c 0
 148 27 150 27 166 27 c 2
 220 27 l 2
 233 27 298 488 314 596 c 0
 315 604 317 615 317 622 c 0
 317 629 316 633 311 633 c 2
 174 633 l 2
 122 633 82 632 79 622 c 2
 55 552 l 2
 50 539 49 535 39 535 c 0
 29 535 20 537 20 546 c 0
 20 548 41 600 63 672 c 0
 67 684 70 686 85 686 c 0
 93 686 95 680 95 674 c 2
 95 669 l 2
 95 663 148 661 201 661 c 2
 527 661 l 2
 585 661 630 662 631 672 c 0
 632 682 637 686 645 686 c 0
 659 686 661 685 661 675 c 0xe8
 661 656 656 624 652 545 c 0xf0
EndSplineSet
Position2: "'cpsp' Capital Spacing in Latin lookup 2 subtable" dx=4 dy=0 dh=8 dv=0
EndChar

StartChar: U
Encoding: 85 85 46
Width: 759
VWidth: 0
Flags: HW
HStem: -7 47<224.539 388.045> 634 30<60.0044 142 228.902 283.986 519.006 606 686.045 738.986>
VStem: 76 83<99.1738 324.335> 537 35<1.07277 72.8125>
AnchorPoint: "top" 427 780 basechar 0
AnchorPoint: "l;bl" 0 10 basechar 0
AnchorPoint: "l;x" 0 380 basechar 0
AnchorPoint: "l;hi" 40 650 basechar 0
AnchorPoint: "l;o" 0 200 basechar 0
AnchorPoint: "r;bl" 649 10 basechar 0
AnchorPoint: "r;x" 729 380 basechar 0
AnchorPoint: "r;hi" 759 650 basechar 0
AnchorPoint: "r;o" 699 200 basechar 0
LayerCount: 3
Fore
SplineSet
524 79 m 0
 519 79 502 68 479 55 c 0
 437 32 355 -7 268 -7 c 0
 163 -7 76 51 76 151 c 0
 76 237 142 569 142 629 c 0
 142 632 142 634 141 634 c 2
 78 634 l 2
 66 634 60 634 60 649 c 0
 60 664 65 664 78 664 c 0
 94 664 140 661 170 661 c 0
 200 661 247 664 270 664 c 0
 283 664 284 663 284 646 c 0
 284 634 282 634 266 634 c 2
 234 634 l 2
 224 634 159 250 159 176 c 0
 159 44 297 40 322 40 c 0
 383 40 453 69 487 91 c 0
 502 101 518 121 526 151 c 0
 536 191 547 251 558 314 c 0
 579 438 598 546 606 634 c 1
 539 634 l 2
 527 634 519 634 519 649 c 0
 519 664 526 664 539 664 c 0
 555 664 613 661 643 661 c 0
 673 661 715 664 725 664 c 0
 738 664 739 663 739 646 c 0
 739 634 737 634 721 634 c 2
 689 634 l 1
 681 596 674 556 667 516 c 0
 638 339 606 141 572 26 c 0
 566 4 560 1 553 1 c 2
 548 1 l 2
 540 1 538 5 537 12 c 0
 532 55 533 79 524 79 c 0
EndSplineSet
Position2: "'cpsp' Capital Spacing in Latin lookup 2 subtable" dx=4 dy=0 dh=8 dv=0
EndChar

StartChar: V
Encoding: 86 86 47
Width: 666
VWidth: 0
Flags: HW
HStem: -17 21G<192.5 204.5> 634 30<20.0044 83.2267 172.002 248.986 457.004 546.156 603.001 645.962>
DStem2: 430 393 289 88 0.503373 0.864069<-194.015 266.202>
AnchorPoint: "l;bl" 0 10 basechar 0
AnchorPoint: "l;x" 0 380 basechar 0
AnchorPoint: "l;hi" 0 650 basechar 0
AnchorPoint: "l;o" 0 200 basechar 0
AnchorPoint: "r;bl" 486 10 basechar 0
AnchorPoint: "r;x" 586 380 basechar 0
AnchorPoint: "r;hi" 666 650 basechar 0
AnchorPoint: "r;o" 546 200 basechar 0
LayerCount: 3
Fore
SplineSet
178 44 m 0
 156 204 88 634 78 634 c 2
 38 634 l 2
 26 634 20 634 20 649 c 0
 20 664 25 664 38 664 c 0
 54 664 100 661 130 661 c 0
 160 661 212 664 235 664 c 0
 248 664 249 663 249 646 c 0
 249 634 247 634 231 634 c 2
 176 634 l 2
 175 634 172 632 172 629 c 0
 172 597 245 81 252 81 c 0
 257 81 352 244 430 393 c 2
 548 618 l 2
 556 634 550 634 542 634 c 2
 475 634 l 2
 463 634 457 634 457 649 c 0
 457 664 461 664 474 664 c 0
 486 664 519 661 573 661 c 0
 588 661 621 664 631 664 c 0
 644 664 646 663 646 646 c 0
 646 634 643 634 627 634 c 0
 606 634 607 633 603 627 c 2
 289 88 l 2
 280 73 261 56 235 16 c 0
 229 7 211 -17 198 -17 c 0
 187 -17 185 -8 178 44 c 0
EndSplineSet
Position2: "'cpsp' Capital Spacing in Latin lookup 2 subtable" dx=4 dy=0 dh=8 dv=0
EndChar

StartChar: W
Encoding: 87 87 48
Width: 1010
VWidth: 0
Flags: HW
HStem: -17 21G<188.5 200.5 554.5 566.5> 634 30<20.0044 82.5731 168.002 242.986 389.004 454.226 539.047 633.962 802.004 888.389 936.105 989.962>
AnchorPoint: "r;o" 890 200 basechar 0
AnchorPoint: "r;hi" 1010 650 basechar 0
AnchorPoint: "r;x" 930 380 basechar 0
AnchorPoint: "r;bl" 830 10 basechar 0
AnchorPoint: "l;o" 0 200 basechar 0
AnchorPoint: "l;hi" 0 650 basechar 0
AnchorPoint: "l;x" 0 380 basechar 0
AnchorPoint: "l;bl" 0 10 basechar 0
AnchorPoint: "top" 532 780 basechar 0
LayerCount: 3
Fore
SplineSet
174 44 m 0
 152 204 86 634 78 634 c 2
 38 634 l 2
 26 634 20 634 20 649 c 0
 20 664 25 664 38 664 c 0
 54 664 100 661 130 661 c 0
 160 661 206 664 229 664 c 0
 242 664 243 663 243 646 c 0
 243 634 241 634 225 634 c 2
 172 634 l 2
 171 634 168 632 168 629 c 0
 168 597 237 84 244 84 c 0
 251 84 408 369 471 488 c 1
 459 583 454 634 450 634 c 2
 407 634 l 2
 395 634 389 634 389 649 c 0
 389 664 394 664 407 664 c 0
 423 664 462 662 492 662 c 0
 521 662 578 664 619 664 c 0
 632 664 634 663 634 646 c 0
 634 634 631 634 615 634 c 2
 542 634 l 2
 540 634 539 627 539 615 c 0
 539 603 601 72 607 72 c 0
 618 72 859 557 890 618 c 0
 898 634 892 634 884 634 c 2
 820 634 l 2
 808 634 802 634 802 649 c 0
 802 664 806 664 819 664 c 0
 831 664 861 661 915 661 c 0
 930 661 965 664 975 664 c 0
 988 664 990 663 990 646 c 0
 990 634 987 634 971 634 c 0
 939 634 944 634 933 613 c 0
 869 489 806 364 739 244 c 2
 651 88 l 2
 643 73 623 56 597 16 c 0
 591 7 573 -17 560 -17 c 0
 549 -17 547 -8 540 44 c 0
 528 128 500 306 478 438 c 1
 283 88 l 2
 275 73 255 56 229 16 c 0
 223 7 207 -17 194 -17 c 0
 183 -17 181 -8 174 44 c 0
EndSplineSet
Position2: "'cpsp' Capital Spacing in Latin lookup 2 subtable" dx=4 dy=0 dh=8 dv=0
EndChar

StartChar: X
Encoding: 88 88 49
Width: 661
VWidth: 0
Flags: HW
HStem: -3 30<20.0029 76.9976 126.002 197.986 378.014 449.624 549.674 625.996> 634 30<97.0044 170.034 261.276 325.986 467.014 533.999 582.002 640.997>
DStem2: 344 426 305 346 0.43817 -0.898892<-220.711 43.7654 63.2577 75.2889 102.591 313.51>
AnchorPoint: "l;bl" 0 10 basechar 0
AnchorPoint: "l;x" 40 380 basechar 0
AnchorPoint: "l;hi" 75 650 basechar 0
AnchorPoint: "l;o" 20 200 basechar 0
AnchorPoint: "r;bl" 646 10 basechar 0
AnchorPoint: "r;x" 646 380 basechar 0
AnchorPoint: "r;hi" 661 650 basechar 0
AnchorPoint: "r;o" 646 200 basechar 0
LayerCount: 3
Fore
SplineSet
305 346 m 2
 180 600 l 2
 169 622 162 634 158 634 c 2
 115 634 l 2
 103 634 97 634 97 649 c 0
 97 664 102 664 115 664 c 0
 131 664 180 661 210 661 c 0
 240 661 289 664 312 664 c 0
 325 664 326 663 326 646 c 0
 326 634 324 634 308 634 c 2
 267 634 l 2
 252 634 254 634 259 619 c 0
 264 603 303 512 344 426 c 0
 354 405 362 387 364 387 c 0
 366 387 377 402 394 426 c 0
 447 500 534 617 534 630 c 0
 534 633 533 634 531 634 c 2
 485 634 l 2
 469 634 467 634 467 646 c 0
 467 663 468 664 481 664 c 0
 504 664 519 661 549 661 c 0
 579 661 609 664 625 664 c 0
 638 664 641 664 641 649 c 0
 641 634 637 634 625 634 c 2
 596 634 l 2
 588 634 382 367 382 367 c 2
 377 360 376 359 381 351 c 0
 422 277 549 27 561 27 c 2
 608 27 l 2
 620 27 626 27 626 12 c 0
 626 -3 621 -3 608 -3 c 0
 592 -3 538 0 508 0 c 0
 478 0 415 -3 392 -3 c 0
 379 -3 378 -2 378 15 c 0
 378 27 380 27 396 27 c 2
 443 27 l 2
 458 27 458 28 452 42 c 0
 428 99 360 234 327 304 c 0
 322 314 321 310 312 299 c 0
 279 257 126 52 126 31 c 0
 126 28 129 27 139 27 c 2
 180 27 l 2
 196 27 198 27 198 15 c 0
 198 -2 197 -3 184 -3 c 0
 172 -3 129 0 99 0 c 0
 69 0 47 -3 36 -3 c 0
 23 -3 20 -3 20 12 c 0
 20 27 24 27 36 27 c 2
 62 27 l 2
 74 27 192 193 301 325 c 0
 311 337 311 333 305 346 c 2
EndSplineSet
Position2: "'cpsp' Capital Spacing in Latin lookup 2 subtable" dx=4 dy=0 dh=8 dv=0
EndChar

StartChar: Y
Encoding: 89 89 50
Width: 613
VWidth: 0
Flags: HW
HStem: 0 27<121.003 187.27 265.999 344.999> 639 30<20.0044 91.2734 185.624 240.986 411.014 482 528.222 592.997>
AnchorPoint: "top" 341 780 basechar 0
AnchorPoint: "l;bl" 40 10 basechar 0
AnchorPoint: "l;x" 20 380 basechar 0
AnchorPoint: "l;hi" 0 650 basechar 0
AnchorPoint: "l;o" 30 200 basechar 0
AnchorPoint: "r;bl" 433 10 basechar 0
AnchorPoint: "r;x" 513 380 basechar 0
AnchorPoint: "r;hi" 613 650 basechar 0
AnchorPoint: "r;o" 473 200 basechar 0
LayerCount: 3
Fore
SplineSet
310 310 m 0
 289 186 266 45 266 40 c 0
 266 32 265 27 271 27 c 2
 334 27 l 2
 345 27 345 26 345 14 c 0
 345 -1 344 -3 334 -3 c 0
 311 -3 259 0 229 0 c 0
 199 0 158 -3 135 -3 c 0
 122 -3 121 0 121 13 c 0
 121 25 123 27 139 27 c 2
 181 27 l 2
 188 27 194 72 226 260 c 0
 231 287 231 296 231 301 c 0
 231 307 85 639 85 639 c 1
 38 639 l 2
 26 639 20 639 20 654 c 0
 20 669 25 669 38 669 c 0
 54 669 109 666 139 666 c 0
 169 666 204 669 227 669 c 0
 240 669 241 668 241 651 c 0
 241 639 239 639 223 639 c 2
 192 639 l 2
 177 639 180 639 184 624 c 0
 200 571 259 428 287 359 c 0
 291 351 292 347 295 347 c 0
 299 347 305 355 311 365 c 0
 358 436 482 612 482 636 c 0
 482 638 483 639 482 639 c 2
 429 639 l 2
 413 639 411 639 411 651 c 0
 411 668 412 669 425 669 c 0
 448 669 473 666 503 666 c 0
 533 666 561 669 577 669 c 0
 590 669 593 669 593 654 c 0
 593 639 589 639 577 639 c 2
 541 639 l 2
 536 639 375 419 318 332 c 0
 314 325 312 319 310 310 c 0
EndSplineSet
Position2: "'cpsp' Capital Spacing in Latin lookup 2 subtable" dx=4 dy=0 dh=8 dv=0
EndChar

StartChar: Z
Encoding: 90 90 51
Width: 599
VWidth: 0
Flags: HWO
HStem: -3 38<158.002 495.209> 629 32<147.122 464.996>
VStem: 93 34<533.15 622.795> 117 30<662.89 685.988>
AnchorPoint: "top" 354 780 basechar 0
AnchorPoint: "l;bl" 0 10 basechar 0
AnchorPoint: "l;x" 35 380 basechar 0
AnchorPoint: "l;hi" 50 650 basechar 0
AnchorPoint: "l;o" 20 200 basechar 0
AnchorPoint: "r;bl" 569 10 basechar 0
AnchorPoint: "r;x" 584 380 basechar 0
AnchorPoint: "r;hi" 599 650 basechar 0
AnchorPoint: "r;o" 569 200 basechar 0
LayerCount: 3
Fore
SplineSet
473 35 m 2xd0
 481 35 489 37 494 50 c 0
 499 64 506 90 517 139 c 0
 518 144 524 147 531 147 c 0
 546 147 551 142 551 135 c 0
 551 130 525 38 518 8 c 0
 516 -1 506 -3 496 -3 c 0
 384 -3 147 0 43 0 c 0
 36 0 35 1 35 15 c 0
 35 27 465 621 465 626 c 0
 465 629 460 629 441 629 c 2
 185 629 l 2
 163 629 143 629 141 619 c 0
 136 596 128 548 127 544 c 0
 125 536 125 534 119 533 c 1
 114 533 l 2
 105 533 93 535 93 540 c 0xe0
 93 547 111 621 117 680 c 0
 117 683 121 686 133 686 c 0
 140 686 147 685 147 681 c 0
 147 678 147 675 147 672 c 0
 147 664 157 661 204 661 c 2
 552 661 l 2
 564 661 569 659 569 646 c 0
 569 642 480 512 382 371 c 0
 275 217 158 52 158 42 c 0
 158 39 161 32 169 32 c 2
 473 35 l 2xd0
EndSplineSet
Position2: "'cpsp' Capital Spacing in Latin lookup 2 subtable" dx=4 dy=0 dh=8 dv=0
EndChar

StartChar: zero
Encoding: 48 48 52
Width: 500
VWidth: 0
Flags: W
HStem: -5 32<171.016 298.673> 336 30<211.721 331.101>
VStem: 67 45<78.2747 238.895> 396.078 47.9219<118.287 282.347>
LayerCount: 3
Fore
SplineSet
67 164 m 0
 67 279 153 366 269 366 c 0
 377 366 444 290 444 198 c 0
 444 85 355 -5 245 -5 c 0
 146 -5 67 60 67 164 c 0
396.078138446 207.001724028 m 0
 396.078138446 288.014368011 340.149274346 336 269 336 c 0
 182 336 112 239 112 156 c 0
 112 71 165 27 236 27 c 0
 315 27 396.078138446 100.281582995 396.078138446 207.001724028 c 0
EndSplineSet
AlternateSubs2: "'aalt' Access All Alternates lookup 0 subtable" zero.p zero.u zero.sub zero.sup zero.denom zero.numer
AlternateSubs2: "'aalt' Access All Alternates in Latin lookup 0 subtable" zero.p zero.u zero.sub zero.sup zero.denom zero.numer
Substitution2: "'pnum' Proportional Numbers in Latin lookup 10 subtable" zero.p
Substitution2: "lining_figures subtable" zero.u
Substitution2: "'subs' Subscript in Latin lookup 8 subtable" zero.sub
Substitution2: "'sups' Superscript in Latin lookup 7 subtable" zero.sup
Substitution2: "denominators subtable" zero.denom
Substitution2: "numerators subtable" zero.numer
EndChar

StartChar: one
Encoding: 49 49 53
Width: 500
VWidth: 0
Flags: W
HStem: 0 25<142.003 206.999 280.327 352.997> 358 27<185.001 257.001 324.001 389.999>
VStem: 142 248
LayerCount: 3
Fore
SplineSet
257 346 m 0
 257 355 259 358 249 358 c 2
 196 358 l 2
 186 358 185 362 185 371 c 0
 185 380 185 385 196 385 c 0
 215 385 264 383 289 383 c 0
 314 383 360 385 379 385 c 0
 390 385 390 382 390 371 c 0
 390 362 389 358 376 358 c 2
 337 358 l 2
 326 358 326 356 324 346 c 0
 312 267 293 141 279 37 c 0
 278 28 281 25 291 25 c 2
 342 25 l 2
 352 25 353 21 353 12 c 0
 353 3 353 -2 342 -2 c 0
 323 -2 271 0 246 0 c 0
 221 0 172 -2 153 -2 c 0
 142 -2 142 1 142 12 c 0
 142 21 143 25 156 25 c 2
 196 25 l 2
 207 25 205 27 207 37 c 0
 227 140 257 339 257 346 c 0
EndSplineSet
AlternateSubs2: "'aalt' Access All Alternates lookup 0 subtable" one.p one.u one.sub one.sup one.denom one.numer
AlternateSubs2: "'aalt' Access All Alternates in Latin lookup 0 subtable" one.p one.u one.sub one.sup one.denom one.numer
Substitution2: "'pnum' Proportional Numbers in Latin lookup 10 subtable" one.p
Substitution2: "lining_figures subtable" one.u
Substitution2: "'subs' Subscript in Latin lookup 8 subtable" one.sub
Substitution2: "'sups' Superscript in Latin lookup 7 subtable" one.sup
Substitution2: "denominators subtable" one.denom
Substitution2: "numerators subtable" one.numer
EndChar

StartChar: two
Encoding: 50 50 54
Width: 500
VWidth: 0
Flags: W
HStem: 0 58<149.001 420.427> 359 35<181.405 272.1>
VStem: 305 69<220.112 330.998>
LayerCount: 3
Fore
SplineSet
221 359 m 0
 155 359 105 278 100 278 c 0
 94 278 82 287 82 294 c 0
 82 304 162 394 249 394 c 0
 332 394 374 351 374 280 c 0
 374 195 237 114 177 79 c 0
 158 68 149 61 149 59 c 0
 149 58 151 58 156 58 c 2
 404 58 l 2
 414 58 435 106 439 106 c 0
 444 106 457 101 457 98 c 0
 457 91 430 45 414 6 c 0
 412 1 410 0 403 0 c 2
 79 0 l 2
 68 0 64 5 64 11 c 0
 64 17 71 24 76 28 c 0
 106 56 177 95 232 144 c 0
 268 176 305 218 305 266 c 0
 305 317 275 359 221 359 c 0
EndSplineSet
AlternateSubs2: "'aalt' Access All Alternates lookup 0 subtable" two.p two.u two.sub two.sup two.denom two.numer
AlternateSubs2: "'aalt' Access All Alternates in Latin lookup 0 subtable" two.p two.u two.sub two.sup two.denom two.numer
Substitution2: "'pnum' Proportional Numbers in Latin lookup 10 subtable" two.p
Substitution2: "lining_figures subtable" two.u
Substitution2: "'subs' Subscript in Latin lookup 8 subtable" two.sub
Substitution2: "'sups' Superscript in Latin lookup 7 subtable" two.sup
Substitution2: "denominators subtable" two.denom
Substitution2: "numerators subtable" two.numer
EndChar

StartChar: three
Encoding: 51 51 55
Width: 500
VWidth: 0
Flags: W
HStem: -214 25<146.302 238.444> 73 32<119.16 182.323> 359 28<170.471 274.35>
VStem: 119 126<79.5 132> 310 58<214.425 332.557> 332 66<-99.647 31.6351>
LayerCount: 3
Fore
SplineSet
246 387 m 0xf8
 317 387 368 351 368 281 c 0xf8
 368 184 245 134 245 130 c 0
 245 124 398 121 398 -21 c 0
 398 -128 287 -214 178 -214 c 0
 80 -214 39 -162 39 -146 c 0
 39 -135 64 -134 74 -134 c 0
 84 -134 99 -135 108 -145 c 0
 119 -158 147 -189 188 -189 c 0
 261 -189 332 -113 332 -35 c 0xf4
 332 43 275 76 191 76 c 0
 170 76 141 73 136 73 c 0
 125 73 119 75 119 84 c 0
 119 100 122 100 138 105 c 0
 237 133 310 182 310 272 c 0
 310 323 278 359 227 359 c 0
 161 359 122 324 116 324 c 0
 111 324 105 335 105 341 c 0
 105 348 181 387 246 387 c 0xf8
EndSplineSet
AlternateSubs2: "'aalt' Access All Alternates lookup 0 subtable" three.p three.u three.sub three.sup three.denom three.numer
AlternateSubs2: "'aalt' Access All Alternates in Latin lookup 0 subtable" three.p three.u three.sub three.sup three.denom three.numer
Substitution2: "'pnum' Proportional Numbers in Latin lookup 10 subtable" three.p
Substitution2: "lining_figures subtable" three.u
Substitution2: "'subs' Subscript in Latin lookup 8 subtable" three.sub
Substitution2: "'sups' Superscript in Latin lookup 7 subtable" three.sup
Substitution2: "denominators subtable" three.denom
Substitution2: "numerators subtable" three.numer
EndChar

StartChar: four
Encoding: 52 52 56
Width: 500
VWidth: 0
Flags: W
HStem: 0 54<93.0044 262.406 340.999 446> 372 20G<374.5 385>
DStem2: 80.686 86 110 85 0.684172 0.729321<-10.3272 312.26> 232.142 -212.14 292.618 -212.14 0.156434 0.987688<11.8961 211.384 282.239 301.033 497.999 512.977>
LayerCount: 3
Fore
SplineSet
391 368 m 2
 341 72 l 2
 338 54 342 54 356 54 c 2
 439 54 l 2
 445 54 446 54 446 44 c 2
 446 10 l 2
 446 0 446 0 434 0 c 2
 337 0 l 2
 323 0 325.57421875 -0.052734375 324 -14 c 0
 317 -76 301 -188 301 -193 c 0
 301 -200 300 -201 286 -204 c 2
 244 -212 l 2
 238 -213 226.61377995 -208.927047324 230 -191 c 2
 264 -11 l 2
 267 4 259 0 244 0 c 2
 55 0 l 2
 47 0 37 1 37 8 c 0
 37 23.1768393087 58.1255325251 56.0718671869 80.6859881262 85.9999989607 c 0
 90.6045443122 99.157705604 104.708984375 111.779296875 115 124 c 0
 167.634765625 186.50390625 220.737422767 238.506413265 278 298 c 0
 286 307 368 392 381 392 c 0
 389 392 394 387 391 368 c 2
307 295 m 2
 110 85 l 2
 100 75 93 66 93 60 c 0
 93 56 99 54 118 54 c 2
 265 54 l 2
 283 54 281 56 284 74 c 2
 319 290 l 2
 321 301 314 302 307 295 c 2
EndSplineSet
AlternateSubs2: "'aalt' Access All Alternates lookup 0 subtable" four.p four.u four.sub four.sup four.denom four.numer
AlternateSubs2: "'aalt' Access All Alternates in Latin lookup 0 subtable" four.p four.u four.sub four.sup four.denom four.numer
Substitution2: "'pnum' Proportional Numbers in Latin lookup 10 subtable" four.p
Substitution2: "lining_figures subtable" four.u
Substitution2: "'subs' Subscript in Latin lookup 8 subtable" four.sub
Substitution2: "'sups' Superscript in Latin lookup 7 subtable" four.sup
Substitution2: "denominators subtable" four.denom
Substitution2: "numerators subtable" four.numer
EndChar

StartChar: five
Encoding: 53 53 57
Width: 500
VWidth: 0
Flags: W
HStem: -212 23<41.0371 113.757> 300 63<193.592 384.838> 322 56<179.195 355.384> 375 20G<392.5 397.5>
VStem: 106 39<166.5 230.149> 276 62<-69.1892 58.4246>
LayerCount: 3
Fore
SplineSet
173 372 m 0xac
 175 378 182 378 188 378 c 0xac
 196 378 345 363 356 363 c 0
 372 363 377 361 382 371 c 0
 388 383 391 395 394 395 c 0
 401 395 414 391 414 387 c 0
 414 381 398 343 389 319 c 0
 384 305 384 300 369 300 c 0xdc
 356 300 286 312 207 322 c 0
 197 323 183 323 179 315 c 0
 162 280 145 229 145 222 c 0
 145 207 338 149 338 9 c 0
 338 -130 168 -212 49 -212 c 0
 44 -212 41 -208 41 -199 c 0
 41 -192 43 -189 48 -189 c 0
 151 -181 276 -136 276 -5 c 0
 276 106 106 153 106 180 c 0
 106 194 148 292 173 372 c 0xac
EndSplineSet
AlternateSubs2: "'aalt' Access All Alternates lookup 0 subtable" five.p five.u five.sub five.sup five.denom five.numer
AlternateSubs2: "'aalt' Access All Alternates in Latin lookup 0 subtable" five.p five.u five.sub five.sup five.denom five.numer
Substitution2: "'pnum' Proportional Numbers in Latin lookup 10 subtable" five.p
Substitution2: "lining_figures subtable" five.u
Substitution2: "'subs' Subscript in Latin lookup 8 subtable" five.sub
Substitution2: "'sups' Superscript in Latin lookup 7 subtable" five.sup
Substitution2: "denominators subtable" five.denom
Substitution2: "numerators subtable" five.numer
EndChar

StartChar: six
Encoding: 54 54 58
Width: 500
VWidth: 0
Flags: W
HStem: -5 29<170.651 271.489> 343 21<163.096 278.909> 642 25<401.692 436.172>
VStem: 46 61<82.3532 294.57> 345 69<99.8661 284.378>
LayerCount: 3
Fore
SplineSet
414 191 m 0
 414 69 321 -5 213 -5 c 0
 135 -5 46 32 46 187 c 0
 46 342 144 477 240 561 c 0
 322 632 411 667 427 667 c 0
 433 667 437 656 437 648 c 0
 437 645 432 643 429 642 c 0
 379 622 337 599 299 562 c 0
 240 505 187 435 164 389 c 0
 157 374 150 362 150 353 c 0
 150 352 161 354 177 357 c 0
 193 360 217 364 242 364 c 0
 346 364 414 303 414 191 c 0
107 173 m 0
 107 122 130 24 224 24 c 0
 298 24 345 108 345 197 c 0
 345 271 322 343 225 343 c 0
 203 343 150 333 142 322 c 0
 116 287 107 217 107 173 c 0
EndSplineSet
AlternateSubs2: "'aalt' Access All Alternates lookup 0 subtable" six.p six.u six.sub six.sup six.denom six.numer
AlternateSubs2: "'aalt' Access All Alternates in Latin lookup 0 subtable" six.p six.u six.sub six.sup six.denom six.numer
Substitution2: "'pnum' Proportional Numbers in Latin lookup 10 subtable" six.p
Substitution2: "lining_figures subtable" six.u
Substitution2: "'subs' Subscript in Latin lookup 8 subtable" six.sub
Substitution2: "'sups' Superscript in Latin lookup 7 subtable" six.sup
Substitution2: "denominators subtable" six.denom
Substitution2: "numerators subtable" six.numer
EndChar

StartChar: seven
Encoding: 55 55 59
Width: 500
VWidth: 0
Flags: W
HStem: 335 58<139.279 410.329> 404 20G<119.5 127.5>
VStem: 78 27<277.266 307.538> 103 43<-208.607 -149.296> 111 29<395.389 423.956>
LayerCount: 3
Fore
SplineSet
123 424 m 0xe8
 132 424 140 423 140 415 c 0xe8
 140 409 138 402 138 395 c 0
 138 393 160 393 189 393 c 2
 457 393 l 2
 464 393 470 392 470 384 c 0
 470 370 303 102 255 20 c 0
 217 -45 173 -122 146 -195 c 0
 142 -206 140 -210 134 -210 c 0
 120 -210 103 -201 103 -190 c 0xd0
 103 -128 336 202 405 314 c 0
 408.496575182 319.439116949 410.332824215 323.821662714 410.332824215 327.147637292 c 0
 410.332824215 332.382545764 405.783866343 335 396 335 c 2
 203 335 l 2
 173 335 120 333 118 326 c 2
 105 286 l 2
 103 281 103 277 95 277 c 0
 88 277 78 280 78 286 c 0
 78 296 100 342 111 404 c 0
 113 418 116 424 123 424 c 0xe8
EndSplineSet
AlternateSubs2: "'aalt' Access All Alternates lookup 0 subtable" seven.p seven.u seven.sub seven.sup seven.denom seven.numer
AlternateSubs2: "'aalt' Access All Alternates in Latin lookup 0 subtable" seven.p seven.u seven.sub seven.sup seven.denom seven.numer
Substitution2: "'pnum' Proportional Numbers in Latin lookup 10 subtable" seven.p
Substitution2: "lining_figures subtable" seven.u
Substitution2: "'subs' Subscript in Latin lookup 8 subtable" seven.sub
Substitution2: "'sups' Superscript in Latin lookup 7 subtable" seven.sup
Substitution2: "denominators subtable" seven.denom
Substitution2: "numerators subtable" seven.numer
EndChar

StartChar: eight
Encoding: 56 56 60
Width: 500
VWidth: 0
Flags: W
HStem: -3 25<181.378 276.154> 638 23<220.055 314.865>
VStem: 69 54<67.8326 208.193> 110 53<461.718 581.985> 210 78<323.115 349.895> 340 59<75.2456 208.239> 370 49<454.492 596.656>
LayerCount: 3
Fore
SplineSet
399 150 m 0xcc
 399 60 318 -3 217 -3 c 0
 130 -3 69 39 69 130 c 0xec
 69 251 210 321 210 329 c 0
 210 334 110 406 110 500 c 0
 110 594 180 661 282 661 c 0
 363 661 419 613 419 527 c 0xda
 419 423 288 352 288 344 c 0
 288 338 399 259 399 150 c 0xcc
224 315 m 0
 215 315 123 245 123 145 c 0
 123 69 173 22 226 22 c 0
 292 22 340 79 340 140 c 0
 340 220 230 315 224 315 c 0
370 525 m 0xda
 370 588 331 638 268 638 c 0
 199 638 163 582 163 534 c 0
 163 454 263 359 270 359 c 0
 281 359 370 434 370 525 c 0xda
EndSplineSet
AlternateSubs2: "'aalt' Access All Alternates lookup 0 subtable" eight.p eight.u eight.sub eight.sup eight.denom eight.numer
AlternateSubs2: "'aalt' Access All Alternates in Latin lookup 0 subtable" eight.p eight.u eight.sub eight.sup eight.denom eight.numer
Substitution2: "'pnum' Proportional Numbers in Latin lookup 10 subtable" eight.p
Substitution2: "lining_figures subtable" eight.u
Substitution2: "'subs' Subscript in Latin lookup 8 subtable" eight.sub
Substitution2: "'sups' Superscript in Latin lookup 7 subtable" eight.sup
Substitution2: "denominators subtable" eight.denom
Substitution2: "numerators subtable" eight.numer
EndChar

StartChar: nine
Encoding: 57 57 61
Width: 500
VWidth: 0
Flags: W
HStem: -205 33<19.2178 78.8768> 25 27<175.871 278.459> 368 26<219.138 315.651>
VStem: 65 59<94.9528 270.322> 364 58<118.477 310.334>
LayerCount: 3
Fore
SplineSet
422 203 m 0
 422 95 360 -7 282 -73 c 0
 173 -165 35 -205 28 -205 c 0
 22 -205 19 -193 19 -185 c 0
 19 -182 31 -179 51 -172 c 0
 140 -141 223 -62 286 14 c 0
 299 29 306 42 306 46 c 0
 306 50 287 41 277 38 c 0
 255 31 228 25 203 25 c 0
 120 25 65 91 65 192 c 0
 65 314 165 394 273 394 c 0
 368 394 422 315 422 203 c 0
272 368 m 0
 178 368 124 263 124 173 c 0
 124 104 156 52 230 52 c 0
 261 52 283 56 304 65 c 0
 339 80 364 165 364 240 c 0
 364 323 325 368 272 368 c 0
EndSplineSet
AlternateSubs2: "'aalt' Access All Alternates lookup 0 subtable" nine.p nine.u nine.sub nine.sup nine.denom nine.numer
AlternateSubs2: "'aalt' Access All Alternates in Latin lookup 0 subtable" nine.p nine.u nine.sub nine.sup nine.denom nine.numer
Substitution2: "'pnum' Proportional Numbers in Latin lookup 10 subtable" nine.p
Substitution2: "lining_figures subtable" nine.u
Substitution2: "'subs' Subscript in Latin lookup 8 subtable" nine.sub
Substitution2: "'sups' Superscript in Latin lookup 7 subtable" nine.sup
Substitution2: "denominators subtable" nine.denom
Substitution2: "numerators subtable" nine.numer
EndChar

StartChar: comma
Encoding: 44 44 63
Width: 195
VWidth: 0
Flags: HW
HStem: -148 244
VStem: 98 57<-37.2231 31.4009>
AnchorPoint: "l;bl" 0 10 basechar 0
AnchorPoint: "l;o" 20 200 basechar 0
AnchorPoint: "r;bl" 195 10 basechar 0
AnchorPoint: "r;o" 195 200 basechar 0
LayerCount: 3
Fore
SplineSet
45 68 m 4
 45 76 81 96 98 96 c 4
 110 96 155 65 155 16 c 4
 155 -47 29 -148 24 -148 c 4
 18 -148 7 -134 7 -127 c 4
 7 -125 28 -111 50 -90 c 4
 67 -73 98 -42 98 -11 c 4
 98 0 93 11 83 24 c 4
 67 44 45 62 45 68 c 4
EndSplineSet
AlternateSubs2: "'aalt' Access All Alternates lookup 0 subtable" comma.sub comma.sup comma.denom comma.numer
AlternateSubs2: "'aalt' Access All Alternates in Latin lookup 0 subtable" comma.sub comma.sup comma.denom comma.numer
Substitution2: "'subs' Subscript in Latin lookup 8 subtable" comma.sub
Substitution2: "'sups' Superscript in Latin lookup 7 subtable" comma.sup
Substitution2: "denominators subtable" comma.denom
Substitution2: "numerators subtable" comma.numer
EndChar

StartChar: quotedblright
Encoding: 8221 8221 64
Width: 394
VWidth: 0
Flags: W
HStem: 435 242
VStem: 106 55<524.384 646.971> 291 55<524.384 646.971>
LayerCount: 3
Fore
SplineSet
85 623 m 0
 85 651 121 677 132 677 c 0
 147 677 161 617 161 592 c 0
 161 516 63 435 59 435 c 0
 55 435 42 449 42 453 c 0
 42 457 106 507 106 540 c 0
 106 566 85 597 85 623 c 0
270 623 m 0
 270 651 306 677 317 677 c 0
 332 677 346 617 346 592 c 0
 346 516 248 435 244 435 c 0
 240 435 227 449 227 453 c 0
 227 457 291 507 291 540 c 0
 291 566 270 597 270 623 c 0
EndSplineSet
EndChar

StartChar: quotedblleft
Encoding: 8220 8220 65
Width: 394
VWidth: 0
Flags: W
HStem: 435 242
VStem: 42 55<465.029 587.616> 227 55<465.029 587.616>
LayerCount: 3
Fore
SplineSet
303 489 m 0
 303 461 267 435 256 435 c 0
 241 435 227 495 227 520 c 0
 227 596 325 677 329 677 c 0
 333 677 346 663 346 659 c 0
 346 655 282 605 282 572 c 0
 282 546 303 515 303 489 c 0
118 489 m 0
 118 461 82 435 71 435 c 0
 56 435 42 495 42 520 c 0
 42 596 140 677 144 677 c 0
 148 677 161 663 161 659 c 0
 161 655 97 605 97 572 c 0
 97 546 118 515 118 489 c 0
EndSplineSet
EndChar

StartChar: quoteright
Encoding: 8217 8217 66
Width: 209
VWidth: 0
Flags: W
HStem: 435 242
VStem: 106 55<524.384 646.971>
LayerCount: 3
Fore
SplineSet
85 623 m 0
 85 651 121 677 132 677 c 0
 147 677 161 617 161 592 c 0
 161 516 63 435 59 435 c 0
 55 435 42 449 42 453 c 0
 42 457 106 507 106 540 c 0
 106 566 85 597 85 623 c 0
EndSplineSet
EndChar

StartChar: quoteleft
Encoding: 8216 8216 67
Width: 209
VWidth: 0
Flags: W
HStem: 435 242
VStem: 42 55<465.029 587.616>
LayerCount: 3
Fore
SplineSet
118 489 m 0
 118 461 82 435 71 435 c 0
 56 435 42 495 42 520 c 0
 42 596 140 677 144 677 c 0
 148 677 161 663 161 659 c 0
 161 655 97 605 97 572 c 0
 97 546 118 515 118 489 c 0
EndSplineSet
EndChar

StartChar: period
Encoding: 46 46 68
Width: 210
VWidth: 0
Flags: HW
HStem: -8 98<71.7883 139.247>
VStem: 60 90<2.85587 78.8702>
AnchorPoint: "l;bl" 0 10 basechar 0
AnchorPoint: "l;o" 20 200 basechar 0
AnchorPoint: "r;bl" 210 10 basechar 0
AnchorPoint: "r;o" 210 200 basechar 0
LayerCount: 3
Fore
SplineSet
60 38 m 0
 60 64 87 90 106 90 c 0
 124 90 150 63 150 43 c 0
 150 8 120 -8 110 -8 c 0
 82 -8 60 23 60 38 c 0
EndSplineSet
AlternateSubs2: "'aalt' Access All Alternates lookup 0 subtable" period.sub period.sup period.denom period.numer
AlternateSubs2: "'aalt' Access All Alternates in Latin lookup 0 subtable" period.sub period.sup period.denom period.numer
Substitution2: "'subs' Subscript in Latin lookup 8 subtable" period.sub
Substitution2: "'sups' Superscript in Latin lookup 7 subtable" period.sup
Substitution2: "denominators subtable" period.denom
Substitution2: "numerators subtable" period.numer
EndChar

StartChar: colon
Encoding: 58 58 69
Width: 209
VWidth: 0
Flags: HW
HStem: -8 98<76.7883 144.247> 267 98<105.788 173.247>
VStem: 65 90<2.85587 78.8702> 94 90<277.856 353.87>
AnchorPoint: "l;bl" 0 10 basechar 0
AnchorPoint: "l;x" 20 380 basechar 0
AnchorPoint: "l;o" 10 200 basechar 0
AnchorPoint: "r;bl" 209 10 basechar 0
AnchorPoint: "r;k;x" 239 380 basechar 0
AnchorPoint: "r;k;o" 229 200 basechar 0
LayerCount: 3
Fore
SplineSet
89 313 m 0xd0
 89 339 116 365 135 365 c 0
 153 365 179 338 179 318 c 0
 179 283 149 267 139 267 c 0
 111 267 89 298 89 313 c 0xd0
60 38 m 0xe0
 60 64 87 90 106 90 c 0
 124 90 150 63 150 43 c 0
 150 8 120 -8 110 -8 c 0
 82 -8 60 23 60 38 c 0xe0
EndSplineSet
EndChar

StartChar: semicolon
Encoding: 59 59 70
Width: 195
VWidth: 0
Flags: HW
AnchorPoint: "l;bl" 0 10 basechar 0
AnchorPoint: "r;k;o" 220 200 basechar 0
AnchorPoint: "r;k;x" 230 380 basechar 0
AnchorPoint: "l;o" 0 200 basechar 0
AnchorPoint: "l;x" 10 380 basechar 0
AnchorPoint: "r;bl" 195 10 basechar 0
LayerCount: 3
Fore
SplineSet
80 313 m 0xc0
 80 339 107 365 126 365 c 0
 144 365 170 338 170 318 c 0
 170 283 140 267 130 267 c 0
 102 267 80 298 80 313 c 0xc0
45 68 m 0
 45 76 81 96 98 96 c 0
 110 96 155 65 155 16 c 0
 155 -47 29 -148 24 -148 c 0
 18 -148 7 -134 7 -127 c 0
 7 -125 28 -111 50 -90 c 0
 67 -73 98 -42 98 -11 c 0xa0
 98 0 93 11 83 24 c 0
 67 44 45 62 45 68 c 0
EndSplineSet
EndChar

StartChar: hyphen
Encoding: 45 45 71
Width: 268
VWidth: 0
Flags: HW
HStem: 198 43<33.3223 230.601> 206 42<48.5371 232.046>
VStem: 30 203<205.258 240.936>
AnchorPoint: "l;bl" 0 10 basechar 0
AnchorPoint: "l;x" 0 380 basechar 0
AnchorPoint: "l;o" 0 200 basechar 0
AnchorPoint: "r;bl" 268 10 basechar 0
AnchorPoint: "r;x" 268 380 basechar 0
AnchorPoint: "r;o" 268 200 basechar 0
LayerCount: 3
Fore
SplineSet
48 241 m 0xa0
 57 242 225 248 231 248 c 0
 233 248 233 244 233 239 c 0
 233 227 229 206 225 206 c 0x60
 212 205 47 198 34 198 c 0
 31 198 30 199 30 201 c 0
 30 216 39 240 48 241 c 0xa0
EndSplineSet
AlternateSubs2: "'aalt' Access All Alternates lookup 0 subtable" hyphen.u hyphen.sub hyphen.sup hyphen.denom hyphen.numer
AlternateSubs2: "'aalt' Access All Alternates in Latin lookup 0 subtable" hyphen.u hyphen.sub hyphen.sup hyphen.denom hyphen.numer
Substitution2: "'case' Case-Sensitive Forms in Latin lookup 12 subtable" hyphen.u
Substitution2: "'subs' Subscript in Latin lookup 8 subtable" hyphen.sub
Substitution2: "'sups' Superscript in Latin lookup 7 subtable" hyphen.sup
Substitution2: "denominators subtable" hyphen.denom
Substitution2: "numerators subtable" hyphen.numer
EndChar

StartChar: exclam
Encoding: 33 33 72
Width: 220
VWidth: 0
Flags: HW
HStem: -8 98<76.7883 144.247>
VStem: 65 90<2.85587 78.8702> 102 25<146 215.77> 156 59<535.17 656.512>
AnchorPoint: "l;bl" 0 10 basechar 0
AnchorPoint: "l;x" 30 380 basechar 0
AnchorPoint: "l;hi" 60 650 basechar 0
AnchorPoint: "l;o" 10 200 basechar 0
AnchorPoint: "r;bl" 220 10 basechar 0
AnchorPoint: "r;k;x" 260 380 basechar 0
AnchorPoint: "r;k;hi" 240 650 basechar 0
AnchorPoint: "r;o" 220 200 basechar 0
LayerCount: 3
Fore
SplineSet
65 38 m 0xd0
 65 64 92 90 111 90 c 0
 129 90 155 63 155 43 c 0
 155 8 125 -8 115 -8 c 0
 87 -8 65 23 65 38 c 0xd0
156 635 m 0
 157 653 172 657 185 657 c 2
 190 657 l 2
 209 657 215 651 215 640 c 0
 215 636 214 633 213 628 c 0
 204 588 173 438 127 151 c 0
 126 146 119 146 115 146 c 0
 107 146 102 146 102 150 c 0xb0
 102 154 110 237 122 333 c 0
 144 508 151 574 156 635 c 0
EndSplineSet
Layer: 2
SplineSet
64 38 m 4xc0
 64 64 91 90 110 90 c 4
 128 90 154 63 154 43 c 4
 154 8 124 -8 114 -8 c 4
 86 -8 64 23 64 38 c 4xc0
155 635 m 4xb0
 156.47265625 652.967773438 171 657 184 657 c 6
 189 657 l 6
 208 657 214 651 214 640 c 4
 214 636 213 633 212 628 c 4
 203 588 172 438 126 151 c 4
 125 146 118 146 114 146 c 4
 106 146 101 149 101 153 c 4
 101 157 108.932617188 237.008789062 121 333 c 4
 143 508 150 574 155 635 c 4xb0
EndSplineSet
Position2: "'cpsp' Capital Spacing in Latin lookup 2 subtable" dx=4 dy=0 dh=8 dv=0
EndChar

StartChar: question
Encoding: 63 63 73
Width: 364
VWidth: 0
Flags: W
HStem: -8 98<75.7883 143.247> 597 60<79.6468 254.681>
VStem: 64 90<2.85587 78.8702> 68 34<158.721 226.753> 297 26<476.003 559.385>
LayerCount: 3
Fore
SplineSet
79 636 m 0xd8
 78 648 83 650 97 652 c 0
 115 655 144 657 161 657 c 0
 216 657 237 647 251 638 c 0
 295 609 323 553 323 501 c 0
 323 435 304 419 274 385 c 0
 233 339 205 314 169 278 c 0
 150 259 102 220 102 192 c 0
 102 166 130 143 130 139 c 0
 130 136 121 126 116 126 c 0
 111 126 68 166 68 206 c 0
 68 244 96 278 133 315 c 0
 201 383 297 460 297 515 c 0
 297 544 279 574 260 586 c 0
 238 600 207 600 171 600 c 0
 149 600 100 597 91 597 c 0
 78 597 80 617 79 636 c 0xd8
64 38 m 0xe8
 64 64 91 90 110 90 c 0
 128 90 154 63 154 43 c 0
 154 8 124 -8 114 -8 c 0
 86 -8 64 23 64 38 c 0xe8
EndSplineSet
Position2: "'cpsp' Capital Spacing in Latin lookup 2 subtable" dx=4 dy=0 dh=8 dv=0
EndChar

StartChar: parenleft
Encoding: 40 40 74
Width: 299
VWidth: 0
Flags: HW
VStem: 60 57<142.232 431.568>
AnchorPoint: "l;o" 0 200 basechar 0
AnchorPoint: "l;x" 0 380 basechar 0
AnchorPoint: "r;o" 239 200 basechar 0
AnchorPoint: "r;hi" 299 650 basechar 0
AnchorPoint: "r;x" 239 380 basechar 0
AnchorPoint: "r;bl" 279 10 basechar 0
AnchorPoint: "r;lo" 279 -260 basechar 0
AnchorPoint: "l;bl" 20 10 basechar 0
AnchorPoint: "l;hi" 60 650 basechar 0
LayerCount: 3
Fore
SplineSet
60 285 m 0
 60 547 241 689 243 689 c 0
 250 689 259 683 259 676 c 0
 259 672 117 546 117 297 c 0
 117 14 255 -111 255 -126 c 0
 255 -133 250 -140 239 -140 c 0
 228 -140 60 55 60 285 c 0
EndSplineSet
AlternateSubs2: "'aalt' Access All Alternates lookup 0 subtable" parenleft.u parenleft.sub parenleft.sup parenleft.denom parenleft.numer
AlternateSubs2: "'aalt' Access All Alternates in Latin lookup 0 subtable" parenleft.u parenleft.sub parenleft.sup parenleft.denom parenleft.numer
Substitution2: "'case' Case-Sensitive Forms in Latin lookup 12 subtable" parenleft.u
Substitution2: "'subs' Subscript in Latin lookup 8 subtable" parenleft.sub
Substitution2: "'sups' Superscript in Latin lookup 7 subtable" parenleft.sup
Substitution2: "denominators subtable" parenleft.denom
Substitution2: "numerators subtable" parenleft.numer
EndChar

StartChar: parenright
Encoding: 41 41 75
Width: 299
VWidth: 0
Flags: HW
VStem: 182 57<117.432 406.768>
AnchorPoint: "r;hi" 239 650 basechar 0
AnchorPoint: "r;bl" 279 10 basechar 0
AnchorPoint: "l;lo" 20 -260 basechar 0
AnchorPoint: "l;bl" 20 10 basechar 0
AnchorPoint: "l;x" 60 380 basechar 0
AnchorPoint: "l;hi" 0 650 basechar 0
AnchorPoint: "l;o" 60 200 basechar 0
AnchorPoint: "r;x" 299 380 basechar 0
AnchorPoint: "r;o" 299 200 basechar 0
LayerCount: 3
Fore
SplineSet
239 264 m 0
 239 2 58 -140 56 -140 c 0
 49 -140 40 -134 40 -127 c 0
 40 -123 182 3 182 252 c 0
 182 535 44 660 44 675 c 0
 44 682 49 689 60 689 c 0
 71 689 239 494 239 264 c 0
EndSplineSet
AlternateSubs2: "'aalt' Access All Alternates lookup 0 subtable" parenright.u parenright.sub parenright.sup parenright.denom parenright.numer
AlternateSubs2: "'aalt' Access All Alternates in Latin lookup 0 subtable" parenright.u parenright.sub parenright.sup parenright.denom parenright.numer
Substitution2: "'case' Case-Sensitive Forms in Latin lookup 12 subtable" parenright.u
Substitution2: "'subs' Subscript in Latin lookup 8 subtable" parenright.sub
Substitution2: "'sups' Superscript in Latin lookup 7 subtable" parenright.sup
Substitution2: "denominators subtable" parenright.denom
Substitution2: "numerators subtable" parenright.numer
EndChar

StartChar: f_i
Encoding: 65536 -1 76
Width: 508
VWidth: 0
Flags: HW
AnchorPoint: "r;k;hi" 442 650 basechar 0
AnchorPoint: "r;o" 508 200 basechar 0
AnchorPoint: "r;x" 508 380 basechar 0
AnchorPoint: "r;bl" 488 10 basechar 0
AnchorPoint: "l;k;lo" -30 -260 basechar 0
AnchorPoint: "l;o" 0 200 basechar 0
AnchorPoint: "l;x" 0 380 basechar 0
AnchorPoint: "l;bl" 0 10 basechar 0
LayerCount: 3
Fore
SplineSet
356 347 m 2xea
 195 347 l 2
 186 347 187 347 185 336 c 0
 178 289 147 59 128 -54 c 0
 125 -73 99 -185 34 -234 c 0
 12 -250 -19 -276 -57 -276 c 0
 -90 -276 -125 -254 -125 -240 c 0
 -125 -222 -96 -199 -76 -199 c 0
 -50 -199 -29 -223 5 -223 c 0
 51 -223 61 -104 69 -54 c 0
 92 91 122 330 122 336 c 0
 122 340 123 347 118 347 c 2
 42 347 l 2
 36 347 35 347 35 353 c 0
 35 357 36 362 37 366 c 0
 38 371 39 372 44 372 c 2
 117 372 l 2
 126 372 126 372 127 384 c 0
 129 406 140 489 169 541 c 0
 181 562 220 619 279 653 c 0
 303 667 343 681 379 681 c 0
 412 681 452 659 452 645 c 0
 452 627 418 604 398 604 c 0
 372 604 342 641 308 641 c 0
 272 641 239 597 222 545 c 0
 202 482 193 406 189 378 c 0
 188 374 193 372 197 372 c 2
 279 372 l 2xea
 370 372 377 383 414 383 c 0
 424 383 434 378 434 361 c 0xda
 434 314 369 103 369 75 c 0
 369 65 369 55 382 55 c 0
 401 55 458 119 461 119 c 0
 465 119 473 110 473 107 c 0
 473 93 353 -6 322 -6 c 0
 312 -6 298 -3 298 12 c 0xdc
 298 63 369 249 369 310 c 0
 369 320 366 347 356 347 c 2xea
EndSplineSet
Ligature2: "'liga' Standard Ligatures in Latin lookup 13 subtable" f i
LCarets2: 1 0 
EndChar

StartChar: f_l
Encoding: 65537 -1 77
Width: 534
VWidth: 0
Flags: HW
HStem: -276 53<-88.829 28.2793> -10 57<338.5 405.548> 347 25<35.6328 121.974 189.095 368.781> 641 37<297.092 381.5>
VStem: 317 72<10.7563 154.294>
DStem2: 33.8387 -276 92.8387 -276 0.156434 0.987688<116.559 443.869>
AnchorPoint: "r;o" 534 200 basechar 0
AnchorPoint: "r;k;hi" 534 650 basechar 0
AnchorPoint: "r;x" 534 380 basechar 0
AnchorPoint: "r;bl" 514 10 basechar 0
AnchorPoint: "l;bl" 0 10 basechar 0
AnchorPoint: "l;x" 0 380 basechar 0
AnchorPoint: "l;o" 0 200 basechar 0
AnchorPoint: "l;k;lo" -30 -260 basechar 0
LayerCount: 3
Fore
SplineSet
69 -54 m 0
 92 91 122 330 122 336 c 0
 122 340 123 347 118 347 c 2
 42 347 l 2
 36 347 35 347 35 353 c 0
 35 357 36 362 37 366 c 0
 38 371 39 372 44 372 c 2
 117 372 l 2
 126 372 126 372 127 384 c 0
 128 395 132 419 138 448 c 0
 157 533 187 578 243 625 c 0
 271 649 322 678 371 678 c 0
 392 678 409 671 421 662 c 0
 433 654 428 654 440 660 c 0
 467 673 475 679 479 679 c 0
 486 679 489 675 489 670 c 0
 489 649 389 77 389 68 c 0
 389 50 398 47 403 47 c 0
 431 47 499 131 503 131 c 0
 507 131 519 120 519 118 c 0
 519 113 414 -10 346 -10 c 0
 331 -10 317 0 317 28 c 0
 317 39 344 181 370 337 c 0
 372 346 371 347 362 347 c 2
 195 347 l 2
 186 347 187 347 185 336 c 0
 178 289 146 59 128 -54 c 0
 125 -73 99 -185 34 -234 c 0
 12 -250 -19 -276 -57 -276 c 0
 -90 -276 -125 -254 -125 -240 c 0
 -125 -222 -96 -199 -76 -199 c 0
 -50 -199 -29 -223 5 -223 c 0
 51 -223 61 -104 69 -54 c 0
383 616 m 0
 366 616 354 625 341 632 c 0
 333 636 325 641 317 641 c 0
 305 641 293 634 280 625 c 0
 211 576 193 424 189 377 c 0
 189 374 193 372 197 372 c 2
 366 372 l 2
 378 372 376 375 378 385 c 0
 390.739257812 467.318359375 402 533 413 624 c 1
 413 624 409 622 404 620 c 0
 398 617 389 616 383 616 c 0
EndSplineSet
Ligature2: "'liga' Standard Ligatures in Latin lookup 13 subtable" f l
LCarets2: 1 0 
EndChar

StartChar: f_f
Encoding: 65538 -1 78
Width: 531
VWidth: 0
Flags: HW
HStem: -276 53<-88.8295 28.2793> -239 53<154.756 256.705> 347 25<35.6328 121.974 189.095 368.974 435.957 529.822> 641 40<534.059 624.5> 644 27<310.451 400.5>
AnchorPoint: "r;o" 511 200 basechar 0
AnchorPoint: "r;x" 531 380 basechar 0
AnchorPoint: "r;bl" 491 10 basechar 0
AnchorPoint: "r;k;hi" 671 650 basechar 0
AnchorPoint: "l;bl" 0 10 basechar 0
AnchorPoint: "l;x" 0 380 basechar 0
AnchorPoint: "l;o" 0 200 basechar 0
AnchorPoint: "l;k;lo" -30 -260 basechar 0
LayerCount: 3
Fore
SplineSet
327 4 m 0x70
 348 149 369 330 369 336 c 0
 369 340 370 347 365 347 c 2
 195 347 l 2
 186 347 187 347 185 336 c 0
 178 289 146 59 128 -54 c 0
 125 -73 99 -185 34 -234 c 0
 12 -250 -19 -276 -57 -276 c 0
 -90 -276 -125 -254 -125 -240 c 0
 -125 -222 -96 -199 -76 -199 c 0
 -50 -199 -29 -223 5 -223 c 0
 51 -223 61 -104 69 -54 c 0
 92 91 122 330 122 336 c 0
 122 340 123 347 118 347 c 2
 42 347 l 2
 36 347 35 347 35 353 c 0
 35 357 36 362 37 366 c 0
 38 371 39 372 44 372 c 2
 117 372 l 2
 126 372 126 372 127 384 c 0
 129 401 134 438 151 486 c 0
 180 566 262 671 378 671 c 0xa8
 423 671 465 647 476 631 c 0
 480 625 476 624 482 628 c 0
 492 636 504 646 517 653 c 0
 541 667 576 681 608 681 c 0
 641 681 681 659 681 645 c 0
 681 627 647 604 627 604 c 0
 601 604 580 641 546 641 c 0
 467 641 443 429 436 378 c 0
 435 374 440 372 444 372 c 2
 526 372 l 2
 530 372 531 371 531 370 c 0
 531 366 530 359 529 356 c 0
 528 350 527 347 522 347 c 2
 442 347 l 2
 433 347 434 347 432 336 c 0
 425 289 403 130 384 16 c 0
 374 -45 343 -144 285 -196 c 0
 265 -214 230 -239 194 -239 c 0
 163 -239 129 -223 129 -210 c 0
 129 -193 157 -171 176 -171 c 0
 201 -171 222 -186 254 -186 c 0
 308 -186 320 -46 327 4 c 0x70
448 600 m 0
 444 598 440 597 436 597 c 0
 422 597 410 605 399 614 c 0
 386 624 361 644 339 644 c 0
 279 644 231 582 214 519 c 0
 199 463 189 401 189 377 c 0
 189 374 193 372 197 372 c 2
 364 372 l 2
 373 372 373 372 374 384 c 0
 376 406 387 489 416 541 c 0
 422 552 434 574 453 597 c 0
 456 600 457 601 457 602 c 0
 457 603 454 602 448 600 c 0
EndSplineSet
Ligature2: "'liga' Standard Ligatures in Latin lookup 13 subtable" f f
LCarets2: 1 0 
EndChar

StartChar: f_f_i
Encoding: 65539 -1 79
Width: 755
VWidth: 0
Flags: HW
HStem: -276 53<-88.8295 28.2793> -239 53<154.756 256.705> -6 61<558.172 638.5> 347 25<35.6328 121.974 189.095 368.057 438.001 612.066> 363 20G<642.5 666> 641 40<542.052 642.5> 644 27<310.451 400.5>
VStem: 545 71<7.6574 107.493> 616 65<255.991 371.161>
AnchorPoint: "r;o" 755 200 basechar 0
AnchorPoint: "r;x" 755 380 basechar 0
AnchorPoint: "r;bl" 735 10 basechar 0
AnchorPoint: "l;k;lo" -30 -260 basechar 0
AnchorPoint: "l;o" 0 200 basechar 0
AnchorPoint: "l;x" 0 380 basechar 0
AnchorPoint: "l;bl" 0 10 basechar 0
LayerCount: 3
Fore
SplineSet
436 597 m 0x32
 422 597 410 605 399 614 c 0
 386 624 361 644 339 644 c 0
 279 644 231 582 214 519 c 0
 199 463 189 401 189 377 c 0
 189 374 193 372 197 372 c 2
 364 372 l 2
 373 372 373 372 374 384 c 0
 376 407 389 500 420 548 c 0
 429 562 444 581 457 596 c 0
 462 602 466 604 455 601 c 0
 449 599 443 597 436 597 c 0x32
526 372 m 2
 617 372 624 383 661 383 c 0
 671 383 681 378 681 361 c 0x2880
 681 314 616 103 616 75 c 0
 616 65 616 55 629 55 c 0
 648 55 705 119 708 119 c 0
 712 119 720 110 720 107 c 0
 720 93 600 -6 569 -6 c 0
 559 -6 545 -3 545 12 c 0x29
 545 63 616 249 616 310 c 0
 616 320 613 347 603 347 c 2
 442 347 l 2
 433 347 434 347 432 336 c 0
 425 289 403 130 384 16 c 0
 374 -45 343 -144 285 -196 c 0
 265 -214 230 -239 194 -239 c 0
 163 -239 129 -223 129 -210 c 0
 129 -193 157 -171 176 -171 c 0
 201 -171 222 -186 254 -186 c 0x7080
 308 -186 320 -46 327 4 c 0
 348 149 369 330 369 336 c 2
 369 340 l 2
 369 343 369 347 365 347 c 2
 195 347 l 2
 186 347 187 347 185 336 c 0
 178 289 146 59 128 -54 c 0
 125 -73 99 -185 34 -234 c 0
 12 -250 -19 -276 -57 -276 c 0
 -90 -276 -125 -254 -125 -240 c 0
 -125 -222 -96 -199 -76 -199 c 0
 -50 -199 -29 -223 5 -223 c 0
 51 -223 61 -104 69 -54 c 0
 92 91 122 330 122 336 c 0
 122 340 123 347 118 347 c 2
 42 347 l 2
 36 347 35 347 35 353 c 0
 35 357 36 362 37 366 c 0
 38 371 39 372 44 372 c 2
 117 372 l 2
 126 372 126 372 127 384 c 0
 129 401 134 438 151 486 c 0
 180 566 262 671 378 671 c 0xb280
 423 671 465 647 476 631 c 0
 483 620 479 618 490 628 c 0
 501 638 513 645 526 653 c 0
 550 667 590 681 626 681 c 0
 659 681 699 659 699 645 c 0
 699 627 665 604 645 604 c 0
 619 604 589 641 555 641 c 0x2480
 519 641 486 597 469 545 c 0
 449 482 440 406 436 378 c 1
 436 377 l 2
 436 374 440 372 444 372 c 2
 526 372 l 2
EndSplineSet
Ligature2: "'liga' Standard Ligatures in Latin lookup 13 subtable" f f i
LCarets2: 2 0 0 
EndChar

StartChar: f_f_l
Encoding: 65540 -1 80
Width: 781
VWidth: 0
Flags: HW
HStem: -276 53<-88.8295 28.2793> -239 53<154.756 256.705> -10 57<585.5 652.548> 347 25<35.6328 121.974 189.095 368.974 436.095 615.781> 641 37<544.092 628.5> 644 27<310.451 392.5>
VStem: 564 72<10.7563 154.294>
AnchorPoint: "r;o" 781 200 basechar 0
AnchorPoint: "r;k;hi" 781 650 basechar 0
AnchorPoint: "r;x" 781 380 basechar 0
AnchorPoint: "r;bl" 761 10 basechar 0
AnchorPoint: "l;k;lo" -30 -260 basechar 0
AnchorPoint: "l;o" 0 200 basechar 0
AnchorPoint: "l;x" 0 380 basechar 0
AnchorPoint: "l;bl" 0 10 basechar 0
LayerCount: 3
Fore
SplineSet
374 384 m 0x36
 375 395 379 419 385 448 c 0
 400 515 422 557 458 595 c 0
 465 602 465 602 454 598 c 0
 450 596 446 595 442 595 c 0
 428 595 410 605 399 614 c 0
 386 624 361 644 339 644 c 0
 279 644 231 582 214 519 c 0
 199 463 189 401 189 377 c 0
 189 374 193 372 197 372 c 2
 364 372 l 2
 373 372 373 372 374 384 c 0x36
490 625 m 0
 518 649 569 678 618 678 c 0
 639 678 656 671 668 662 c 0
 680 654 675 654 687 660 c 0
 714 673 722 679 726 679 c 0
 733 679 736 675 736 670 c 0
 736 649 636 77 636 68 c 0
 636 50 645 47 650 47 c 0
 678 47 746 131 750 131 c 0
 754 131 766 120 766 118 c 0
 766 113 661 -10 593 -10 c 0
 578 -10 564 0 564 28 c 0
 564 39 591 181 617 337 c 0
 619 346 618 347 609 347 c 2
 442 347 l 2
 433 347 434 347 432 336 c 0
 425 289 403 130 384 16 c 0
 374 -45 343 -144 285 -196 c 0
 265 -214 230 -239 194 -239 c 0
 163 -239 129 -223 129 -210 c 0
 129 -193 157 -171 176 -171 c 0
 201 -171 222 -186 254 -186 c 0x7a
 308 -186 320 -46 327 4 c 0
 348 149 369 330 369 336 c 0
 369 340 370 347 365 347 c 2
 195 347 l 2
 186 347 187 347 185 336 c 0
 178 289 146 59 128 -54 c 0
 125 -73 99 -185 34 -234 c 0
 12 -250 -19 -276 -57 -276 c 0
 -90 -276 -125 -254 -125 -240 c 0
 -125 -222 -96 -199 -76 -199 c 0
 -50 -199 -29 -223 5 -223 c 0xb2
 51 -223 61 -104 69 -54 c 0
 92 91 122 330 122 336 c 0
 122 340 123 347 118 347 c 2
 42 347 l 2
 36 347 35 347 35 353 c 0
 35 357 36 362 37 366 c 0
 38 371 39 372 44 372 c 2
 117 372 l 2
 126 372 126 372 127 384 c 0
 129 401 134 438 151 486 c 0
 180 566 262 671 378 671 c 0
 407 671 434 661 453 650 c 0
 467 642 474 637 478 625 c 0
 479 621 479 616 479 616 c 2
 479 615 484 620 490 625 c 0
630 616 m 0
 613 616 601 625 588 632 c 0
 580 636 572 641 564 641 c 0
 552 641 540 634 527 625 c 0
 458 576 440 424 436 377 c 0
 436 374 440 372 444 372 c 2
 613 372 l 2
 625 372 623 375 625 385 c 0
 638 467 649 533 660 624 c 1
 660 624 656 622 651 620 c 0
 645 617 636 616 630 616 c 0
EndSplineSet
Ligature2: "'liga' Standard Ligatures in Latin lookup 13 subtable" f f l
LCarets2: 2 0 0 
EndChar

StartChar: f_j
Encoding: 65541 -1 81
Width: 508
VWidth: 0
Flags: HW
HStem: -276 53<-88.829 28.2793> -239 45<176.549 264.062> 347 25<35.6328 121.974 188.957 365.066> 363 20G<395.5 417.5> 641 40<295.052 395.5>
VStem: 369 66<201.729 362>
DStem2: 33.8387 -276 92.8387 -276 0.156434 0.987688<116.559 451.617 668.753 861.102>
AnchorPoint: "r;o" 498 200 basechar 0
AnchorPoint: "r;x" 508 380 basechar 0
AnchorPoint: "r;bl" 488 10 basechar 0
AnchorPoint: "r;k;hi" 442 650 basechar 0
AnchorPoint: "l;k;lo" -30 -260 basechar 0
AnchorPoint: "l;o" 0 200 basechar 0
AnchorPoint: "l;x" 0 380 basechar 0
AnchorPoint: "l;bl" 0 10 basechar 0
LayerCount: 3
Fore
SplineSet
356 347 m 2x6c
 195 347 l 2
 186 347 187 347 185 336 c 0
 178 289 146 59 128 -54 c 0
 125 -73 99 -185 34 -234 c 0
 12 -250 -19 -276 -57 -276 c 0
 -90 -276 -125 -254 -125 -240 c 0
 -125 -222 -96 -199 -76 -199 c 0
 -50 -199 -29 -223 5 -223 c 0
 51 -223 61 -104 69 -54 c 0
 92 91 122 330 122 336 c 0
 122 340 123 347 118 347 c 2
 42 347 l 2
 36 347 35 347 35 353 c 0
 35 357 36 362 37 366 c 0
 38 371 39 372 44 372 c 2
 117 372 l 2
 126 372 126 372 127 384 c 0
 129 406 140 489 169 541 c 0
 181 562 220 619 279 653 c 0
 303 667 343 681 379 681 c 0
 412 681 452 659 452 645 c 0
 452 627 418 604 398 604 c 0
 372 604 342 641 308 641 c 0
 272 641 239 597 222 545 c 0
 202 482 193 406 189 378 c 0
 188 374 193 372 197 372 c 2
 279 372 l 2xac
 370 372 377 383 414 383 c 0x1c
 421 383 429 381 432 373 c 0
 434 369 435 365 435 359 c 0
 435 312 383 27 379 -3 c 0
 369 -63 358 -149 289 -201 c 0
 267 -217 232 -239 202 -239 c 0
 168 -239 147 -220 147 -205 c 0
 147 -185 162 -169 182 -169 c 0
 218 -169 223 -194 257 -194 c 0
 285 -194 292 -159 304 -102 c 0
 330 26 369 283 369 310 c 0
 369 320 366 347 356 347 c 2x6c
EndSplineSet
Ligature2: "'liga' Standard Ligatures in Latin lookup 13 subtable" f j
LCarets2: 1 0 
EndChar

StartChar: f_f_j
Encoding: 65542 -1 82
Width: 755
VWidth: 0
Flags: HW
HStem: -276 53<-88.8295 28.2793> -239 53<154.756 256.705> -239 45<423.549 511.062> 347 25<35.6328 121.974 189.095 368.057 438.001 612.066> 363 20G<642.5 664.5> 641 40<542.052 642.5> 644 27<310.451 400.5>
VStem: 616 66<201.729 362>
AnchorPoint: "r;o" 745 200 basechar 0
AnchorPoint: "r;x" 755 380 basechar 0
AnchorPoint: "r;bl" 735 10 basechar 0
AnchorPoint: "r;k;hi" 689 650 basechar 0
AnchorPoint: "l;bl" 0 10 basechar 0
AnchorPoint: "l;x" 0 380 basechar 0
AnchorPoint: "l;o" 0 200 basechar 0
AnchorPoint: "l;k;lo" -30 -260 basechar 0
LayerCount: 3
Fore
SplineSet
603 347 m 2x31
 442 347 l 2
 433 347 434 347 432 336 c 0
 425 289 403 130 384 16 c 0
 374 -45 343 -144 285 -196 c 0
 265 -214 230 -239 194 -239 c 0
 163 -239 129 -223 129 -210 c 0
 129 -193 157 -171 176 -171 c 0
 201 -171 222 -186 254 -186 c 0x51
 308 -186 320 -46 327 4 c 0
 348 149 369 330 369 336 c 2
 369 340 l 2
 369 343 369 347 365 347 c 2
 195 347 l 2
 186 347 187 347 185 336 c 0
 178 289 146 59 128 -54 c 0
 125 -73 99 -185 34 -234 c 0
 12 -250 -19 -276 -57 -276 c 0
 -90 -276 -125 -254 -125 -240 c 0
 -125 -222 -96 -199 -76 -199 c 0
 -50 -199 -29 -223 5 -223 c 0
 51 -223 61 -104 69 -54 c 0
 92 91 122 330 122 336 c 0
 122 340 123 347 118 347 c 2
 42 347 l 2
 36 347 35 347 35 353 c 0
 35 357 36 362 37 366 c 0
 38 371 39 372 44 372 c 2
 117 372 l 2
 126 372 126 372 127 384 c 0
 129 401 134 438 151 486 c 0
 180 566 262 671 378 671 c 0x93
 423 671 465 647 476 631 c 0
 483 620 479 618 490 628 c 0
 501 638 513 645 526 653 c 0
 550 667 590 681 626 681 c 0
 659 681 699 659 699 645 c 0
 699 627 665 604 645 604 c 0
 619 604 589 641 555 641 c 0
 519 641 486 597 469 545 c 0
 449 482 440 406 436 378 c 1
 436 377 l 2
 436 374 440 372 444 372 c 2
 526 372 l 2x15
 617 372 624 383 661 383 c 0x09
 668 383 676 381 679 373 c 0
 681 369 682 365 682 359 c 0
 682 312 630 27 626 -3 c 0
 616 -63 605 -149 536 -201 c 0
 514 -217 479 -239 449 -239 c 0
 415 -239 394 -220 394 -205 c 0
 394 -185 409 -169 429 -169 c 0
 465 -169 470 -194 504 -194 c 0
 532 -194 539 -159 551 -102 c 0
 577 26 616 283 616 310 c 0
 616 320 613 347 603 347 c 2x31
436 597 m 0
 422 597 410 605 399 614 c 0
 386 624 361 644 339 644 c 0x13
 279 644 231 582 214 519 c 0
 199 463 189 401 189 377 c 0
 189 374 193 372 197 372 c 2
 364 372 l 2
 373 372 373 372 374 384 c 0
 376 407 389 500 420 548 c 0
 429 562 444 581 457 596 c 0
 462 602 466 604 455 601 c 0
 449 599 443 597 436 597 c 0
EndSplineSet
Ligature2: "'liga' Standard Ligatures in Latin lookup 13 subtable" f f j
LCarets2: 2 0 0 
EndChar

StartChar: f_b
Encoding: 65543 -1 83
Width: 732
VWidth: 0
Flags: HW
HStem: -276 53<-88.829 28.2793> -8 28<413.058 499.697> 341 47<556.96 645.48> 347 25<35.6328 121.974 189.095 282.822> 641 37<297.092 381.5>
VStem: 304 87<10 96> 638 69<207.05 335.312>
DStem2: 33.8387 -276 92.8387 -276 0.156434 0.987688<116.559 443.869> 325 54 406 163 0.160495 0.987037<120.587 376.198>
AnchorPoint: "r;o" 732 200 basechar 0
AnchorPoint: "r;x" 732 380 basechar 0
AnchorPoint: "r;bl" 712 10 basechar 0
AnchorPoint: "l;k;lo" -30 -260 basechar 0
AnchorPoint: "l;o" 0 200 basechar 0
AnchorPoint: "l;x" 0 380 basechar 0
AnchorPoint: "l;bl" 0 10 basechar 0
LayerCount: 3
Fore
SplineSet
197 372 m 2xde
 279 372 l 2
 283 372 284 371 284 370 c 0
 284 366 283 359 282 356 c 0
 281 350 280 347 275 347 c 2
 195 347 l 2
 186 347 187 347 185 336 c 0
 178 289 146 59 128 -54 c 0
 125 -73 99 -185 34 -234 c 0
 12 -250 -19 -276 -57 -276 c 0
 -90 -276 -125 -254 -125 -240 c 0
 -125 -222 -96 -199 -76 -199 c 0
 -50 -199 -29 -223 5 -223 c 0
 51 -223 61 -104 69 -54 c 0
 92 91 122 330 122 336 c 0
 122 340 123 347 118 347 c 2
 42 347 l 2
 36 347 35 347 35 353 c 0
 35 357 36 362 37 366 c 0
 38 371 39 372 44 372 c 2
 117 372 l 2xde
 126 372 126 372 127 384 c 0
 128 395 132 419 138 448 c 0
 157 533 187 578 243 625 c 0
 271 649 322 678 371 678 c 0
 392 678 409 671 421 662 c 0
 433 654 428 654 440 660 c 0
 456 667 478 682 483 682 c 0
 491 682 495 679 495 672 c 0
 495 664 462 452 455 414 c 0
 443 345 406 163 406 163 c 1
 406 163 457 248 493 296 c 0
 537 355 564 388 629 388 c 0xee
 661 388 681 377 693 365 c 0
 705 353 707 339 707 323 c 0
 707 118 533 -8 449 -8 c 0
 403 -8 370 20 361 20 c 0
 358 20 349 16 341 12 c 0
 336 10 323 4 314 4 c 0
 306 4 304 8 304 12 c 0
 304 20 315 32 317 35 c 0
 323 43 323 45 325 54 c 0
 350 188 404 511 412 623 c 1
 411 623 408 622 404 620 c 0
 398 617 389 616 383 616 c 0
 366 616 354 625 341 632 c 0
 333 636 325 641 317 641 c 0
 305 641 293 634 280 625 c 0
 211 576 193 424 189 377 c 0
 189 374 193 372 197 372 c 2xde
391 80 m 0
 391 50 411 20 459 20 c 0
 548 20 638 211 638 282 c 0
 638 307 629 341 596 341 c 0xee
 558 341 533 310 513 282 c 0
 446 189 391 112 391 80 c 0
EndSplineSet
Ligature2: "'liga' Standard Ligatures in Latin lookup 13 subtable" f b
LCarets2: 1 0 
EndChar

StartChar: f_h
Encoding: 65544 -1 84
Width: 766
VWidth: 0
Flags: HW
HStem: -276 53<-88.829 28.2793> 0 45<594.5 666.333> 346 37<572.579 657> 347 25<35.6328 121.974 189.095 282.822> 641 37<297.092 396.275>
VStem: 323 66<1.16183 37.7> 565 68<21.0905 119.588> 638 62<228.75 344.018>
DStem2: 33.8387 -276 92.8387 -276 0.156434 0.987688<116.559 443.869>
AnchorPoint: "r;o" 766 200 basechar 0
AnchorPoint: "r;x" 766 380 basechar 0
AnchorPoint: "r;bl" 746 10 basechar 0
AnchorPoint: "l;bl" 0 10 basechar 0
AnchorPoint: "l;x" 0 380 basechar 0
AnchorPoint: "l;o" 0 200 basechar 0
AnchorPoint: "l;k;lo" -30 -260 basechar 0
AnchorPoint: "top" 564 780 basechar 0
LayerCount: 3
Fore
SplineSet
422 626 m 1xef
 422 626 408 622 404 620 c 0
 398 617 389 616 383 616 c 0
 366 616 354 625 341 632 c 0
 333 636 325 641 317 641 c 0
 305 641 293 634 280 625 c 0
 211 576 193 424 189 377 c 0
 189 374 193 372 197 372 c 2
 279 372 l 2
 283 372 284 371 284 370 c 0
 284 366 283 359 282 356 c 0
 281 350 280 347 275 347 c 2
 195 347 l 2
 186 347 187 347 185 336 c 0
 178 289 146 59 128 -54 c 0
 125 -73 99 -185 34 -234 c 0
 12 -250 -19 -276 -57 -276 c 0
 -90 -276 -125 -254 -125 -240 c 0
 -125 -222 -96 -199 -76 -199 c 0
 -50 -199 -29 -223 5 -223 c 0
 51 -223 61 -104 69 -54 c 0
 92 91 122 330 122 336 c 0
 122 340 123 347 118 347 c 2
 42 347 l 2
 36 347 35 347 35 353 c 0
 35 357 36 362 37 366 c 0
 38 371 39 372 44 372 c 2
 117 372 l 2xdf
 126 372 126 372 127 384 c 0
 128 395 132 419 138 448 c 0
 157 533 187 578 243 625 c 0
 271 649 322 678 371 678 c 0
 392 678 409 671 421 662 c 0
 433 654 428 654 440 660 c 0
 456 667 478 682 483 682 c 0
 491 682 495 679 495 672 c 0
 495 652 492 619 486 579 c 0
 467 447 424 230 402 123 c 1
 402 123 449 233 517 315 c 0
 546 350 582 383 641 383 c 0
 673 383 700 369 700 335 c 0
 700 270 633 96 633 67 c 0
 633 56 640 45 654 45 c 0
 680 45 745 132 749 132 c 0
 752 132 761 124 761 122 c 0
 761 117 682 0 606 0 c 0
 583 0 565 15 565 38 c 0
 565 71 638 255 638 307 c 0
 638 329 626 346 604 346 c 0
 555 346 504 267 463 199 c 0
 441 162 418 125 409 91 c 2
 389 9 l 2
 387 0 334 -2 331 -2 c 0
 325 -2 323 1 323 6 c 0
 323 14 388 279 422 626 c 1xef
EndSplineSet
Ligature2: "'liga' Standard Ligatures in Latin lookup 13 subtable" f h
LCarets2: 1 0 
EndChar

StartChar: f_k
Encoding: 65545 -1 85
Width: 731
VWidth: 0
Flags: HW
HStem: -276 53<-88.829 28.2793> -2 39<614.74 698.559> 347 25<35.6328 121.974 189.095 282.822> 348 33<544.518 629.804> 641 37<297.092 381.5>
VStem: 306 65<-1.46155 107.558> 450 42<172.244 188.918> 610 68<279.447 346.933> 704 27<41.4799 93.1993>
DStem2: 33.8387 -276 92.8387 -276 0.156434 0.987688<116.559 443.869>
AnchorPoint: "r;o" 731 200 basechar 0
AnchorPoint: "r;x" 731 380 basechar 0
AnchorPoint: "r;bl" 731 10 basechar 0
AnchorPoint: "l;bl" 0 10 basechar 0
AnchorPoint: "l;x" 0 380 basechar 0
AnchorPoint: "l;o" 0 200 basechar 0
AnchorPoint: "l;k;lo" -30 -260 basechar 0
LayerCount: 3
Fore
SplineSet
414 623 m 1xdf80
 414 623 408 622 404 620 c 0
 398 617 389 616 383 616 c 0
 366 616 354 625 341 632 c 0
 333 636 325 641 317 641 c 0
 305 641 293 634 280 625 c 0
 211 576 193 424 189 377 c 0
 189 374 193 372 197 372 c 2
 279 372 l 2
 283 372 284 371 284 370 c 0
 284 366 283 359 282 356 c 0
 281 350 280 347 275 347 c 2
 195 347 l 2
 186 347 187 347 185 336 c 0
 178 289 146 59 128 -54 c 0
 125 -73 99 -185 34 -234 c 0
 12 -250 -19 -276 -57 -276 c 0
 -90 -276 -125 -254 -125 -240 c 0
 -125 -222 -96 -199 -76 -199 c 0
 -50 -199 -29 -223 5 -223 c 0
 51 -223 61 -104 69 -54 c 0
 92 91 122 330 122 336 c 0
 122 340 123 347 118 347 c 2
 42 347 l 2
 36 347 35 347 35 353 c 0
 35 357 36 362 37 366 c 0
 38 371 39 372 44 372 c 2
 117 372 l 2xef80
 126 372 126 372 127 384 c 0
 128 395 132 419 138 448 c 0
 157 533 187 578 243 625 c 0
 271 649 322 678 371 678 c 0
 392 678 409 671 421 662 c 0
 433 654 428 654 440 660 c 0
 456 667 478 682 483 682 c 0
 493 682 495 678 495 668 c 0
 495 648 414 257 398 179 c 1
 398 179 434 248 470 296 c 0
 510 349 549 381 619 381 c 0
 650 381 678 371 678 344 c 0
 678 252 562 200 513 189 c 0
 507 188 492 186 492 185 c 0
 492 184 506 179 519 167 c 0
 544 143 583 101 592 90 c 0
 617 59 634 37 670 37 c 0
 695 37 704 50 704 64 c 0
 704 71 702 78 702 84 c 0
 702 91 705 96 710 96 c 0
 718 96 731 86 731 53 c 0
 731 21 659 -2 620 -2 c 0
 607 -2 594 2 577 18 c 0
 552 41 527 79 500 113 c 0
 475 145 450 172 450 175 c 0
 450 180 465 195 467 197 c 0
 469 199 472 199 477 199 c 0
 485 199 495 200 505 204 c 0
 550 224 610 280 610 328 c 0
 610 341 599 348 579 348 c 0
 555 348 537 336 516 316 c 0
 484 286 453 234 416 178 c 0
 404 159 397 142 392 120 c 0
 386 95 375 46 371 22 c 0
 368 3 367 0 361 0 c 0
 359 0 322 -6 311 -6 c 0
 305 -6 306 -5 306 1 c 0
 306 17 388 358 414 623 c 1xdf80
EndSplineSet
Ligature2: "'liga' Standard Ligatures in Latin lookup 13 subtable" f k
LCarets2: 1 0 
EndChar

StartChar: f_f_b
Encoding: 65546 -1 86
Width: 979
VWidth: 0
Flags: HW
HStem: -276 53<-88.8295 28.2793> -239 53<154.756 256.705> -8 28<660.058 746.697> 341 47<803.96 892.48> 347 25<35.6328 121.974 189.095 368.974 436.095 529.822> 641 37<544.092 628.5> 644 27<310.451 392.5>
VStem: 551 87<10 96> 885 69<207.05 335.312>
DStem2: 572 54 653 163 0.160495 0.987037<120.587 376.198>
AnchorPoint: "r;o" 979 200 basechar 0
AnchorPoint: "r;x" 979 380 basechar 0
AnchorPoint: "r;bl" 959 10 basechar 0
AnchorPoint: "l;bl" 0 10 basechar 0
AnchorPoint: "l;x" 0 380 basechar 0
AnchorPoint: "l;o" 0 200 basechar 0
AnchorPoint: "l;k;lo" -30 -260 basechar 0
LayerCount: 3
Fore
SplineSet
651 620 m 0x3580
 645 617 636 616 630 616 c 0
 613 616 601 625 588 632 c 0
 580 636 572 641 564 641 c 0
 552 641 540 634 527 625 c 0
 458 576 440 424 436 377 c 0
 436 374 440 372 444 372 c 2
 526 372 l 2
 530 372 531 371 531 370 c 0
 531 366 530 359 529 356 c 0
 528 350 527 347 522 347 c 2
 442 347 l 2
 433 347 434 347 432 336 c 0
 425 289 403 130 384 16 c 0
 374 -45 343 -144 285 -196 c 0
 265 -214 230 -239 194 -239 c 0
 163 -239 129 -223 129 -210 c 0
 129 -193 157 -171 176 -171 c 0
 201 -171 222 -186 254 -186 c 0x6d80
 308 -186 320 -46 327 4 c 0
 348 149 369 330 369 336 c 0
 369 340 370 347 365 347 c 2
 195 347 l 2
 186 347 187 347 185 336 c 0
 178 289 146 59 128 -54 c 0
 125 -73 99 -185 34 -234 c 0
 12 -250 -19 -276 -57 -276 c 0
 -90 -276 -125 -254 -125 -240 c 0
 -125 -222 -96 -199 -76 -199 c 0
 -50 -199 -29 -223 5 -223 c 0
 51 -223 61 -104 69 -54 c 0
 92 91 122 330 122 336 c 0
 122 340 123 347 118 347 c 2
 42 347 l 2
 36 347 35 347 35 353 c 0
 35 357 36 362 37 366 c 0
 38 371 39 372 44 372 c 2
 117 372 l 2
 126 372 126 372 127 384 c 0
 129 401 134 438 151 486 c 0
 180 566 262 671 378 671 c 0xab80
 407 671 434 661 453 650 c 0
 467 642 474 637 478 625 c 0
 479 621 479 616 479 616 c 2
 479 615 484 620 490 625 c 0
 518 649 569 678 618 678 c 0
 639 678 656 671 668 662 c 0
 680 654 675 654 687 660 c 0
 703 667 725 682 730 682 c 0
 738 682 742 679 742 672 c 0
 742 664 709 452 702 414 c 0
 690 345 653 163 653 163 c 1
 653 163 704 248 740 296 c 0
 784 355 811 388 876 388 c 0
 908 388 928 377 940 365 c 0
 952 353 954 339 954 323 c 0
 954 118 780 -8 696 -8 c 0
 650 -8 617 20 608 20 c 0
 605 20 596 16 588 12 c 0
 583 10 570 4 561 4 c 0
 553 4 551 8 551 12 c 0
 551 20 562 32 564 35 c 0
 570 43 570 45 572 54 c 0
 597 188 651 511 659 623 c 1
 658 623 655 622 651 620 c 0x3580
638 80 m 0
 638 50 658 20 706 20 c 0
 795 20 885 211 885 282 c 0
 885 307 876 341 843 341 c 0x3180
 805 341 780 310 760 282 c 0
 693 189 638 112 638 80 c 0
374 384 m 0
 375 395 379 419 385 448 c 0
 400 515 422 557 458 595 c 0
 465 602 465 602 454 598 c 0
 450 596 446 595 442 595 c 0
 428 595 410 605 399 614 c 0
 386 624 361 644 339 644 c 0
 279 644 231 582 214 519 c 0
 199 463 189 401 189 377 c 0
 189 374 193 372 197 372 c 2
 364 372 l 2x2b80
 373 372 373 372 374 384 c 0
EndSplineSet
Ligature2: "'liga' Standard Ligatures in Latin lookup 13 subtable" f f b
LCarets2: 2 0 0 
EndChar

StartChar: f_f_h
Encoding: 65547 -1 87
Width: 1013
VWidth: 0
Flags: HW
HStem: -276 53<-88.8295 28.2793> -239 53<154.756 256.702> 0 45<841.5 913.333> 346 37<819.58 904> 347 25<35.6328 121.974 189.095 368.962 436.095 529.822> 641 37<544.092 643.275> 644 27<310.451 392.5>
VStem: 570 66<1.16183 37.7> 812 68<21.0905 119.588> 885 62<228.75 344.018>
AnchorPoint: "r;o" 1013 200 basechar 0
AnchorPoint: "r;x" 1013 380 basechar 0
AnchorPoint: "r;bl" 993 10 basechar 0
AnchorPoint: "l;k;lo" -30 -260 basechar 0
AnchorPoint: "l;o" 0 200 basechar 0
AnchorPoint: "l;x" 0 380 basechar 0
AnchorPoint: "l;bl" 0 10 basechar 0
AnchorPoint: "top" 811 780 basechar 0
LayerCount: 3
Fore
SplineSet
374 384 m 0x2bc0
 375 395 379 419 385 448 c 0
 400 515 422 557 458 595 c 0
 465 602 465 602 454 598 c 0
 450 596 446 595 442 595 c 0
 428 595 410 605 399 614 c 0
 386 624 361 644 339 644 c 0
 279 644 231 582 214 519 c 0
 199 463 189 401 189 377 c 0
 189 374 193 372 197 372 c 2
 364 372 l 2
 373 372 372.91015625 372.0078125 374 384 c 0x2bc0
564 641 m 0x35c0
 552 641 540 634 527 625 c 0
 458 576 440 424 436 377 c 0
 436 374 440 372 444 372 c 2
 526 372 l 2
 530 372 531 371 531 370 c 0
 531 366 530 359 529 356 c 0
 528 350 527 347 522 347 c 2
 442 347 l 2
 433 347 434 347 432 336 c 0
 425 289 402.848632812 130.025390625 384 16 c 0
 373.918945312 -44.986328125 342.950195312 -143.944335938 285 -196 c 0
 264.982421875 -213.98046875 230 -239 194 -239 c 0
 163 -239 129 -223 129 -210 c 0
 129 -193 157 -171 176 -171 c 0
 201 -171 222 -186 254 -186 c 0x6dc0
 308 -186 319.881835938 -45.9833984375 327 4 c 0
 347.657226562 149.048828125 369 330 369 336 c 0
 369 340 370 347 365 347 c 2
 195 347 l 2
 186 347 187 347 185 336 c 0
 178 289 145.922851562 59.0126953125 128 -54 c 0
 124.987304688 -72.998046875 99 -185 34 -234 c 0
 12 -250 -19 -276 -57 -276 c 0
 -90 -276 -125 -254 -125 -240 c 0
 -125 -222 -96 -199 -76 -199 c 0
 -50 -199 -29 -223 5 -223 c 0
 51 -223 61 -104 69 -54 c 0
 92 91 122 330 122 336 c 0
 122 340 123 347 118 347 c 2
 42 347 l 2
 36 347 35 347 35 353 c 0
 35 357 36 362 37 366 c 0
 38 371 39 372 44 372 c 2
 117 372 l 2
 126 372 126 372 127 384 c 0
 129 401 134 438 151 486 c 0
 180 566 262 671 378 671 c 0xabc0
 407 671 433.96875 660.946289062 453 650 c 0
 466.977539062 641.9609375 474 637 478 625 c 0
 479 621 479 616 479 616 c 2
 479 615 484 620 490 625 c 0
 518 649 569 678 618 678 c 0
 639 678 656 671 668 662 c 0
 680 654 675 654 687 660 c 0
 703 667 725 682 730 682 c 0
 738 682 742 679 742 672 c 0
 742 652 738.880859375 619.017578125 733 579 c 0
 713.608398438 447.057617188 671 230 649 123 c 1
 649 123 696.016601562 232.986328125 764 315 c 0
 793.006835938 349.994140625 829 383 888 383 c 0
 920 383 947 369 947 335 c 0
 947 270 880 96 880 67 c 0
 880 56 887 45 901 45 c 0
 927 45 992 132 996 132 c 0
 999 132 1008 124 1008 122 c 0
 1008 117 929 0 853 0 c 0
 830 0 812 15 812 38 c 0
 812 71 885 255 885 307 c 0
 885 329 873 346 851 346 c 0
 802 346 751 267 710 199 c 0
 688 162 665 125 656 91 c 2
 636 9 l 2
 634 0 581 -2 578 -2 c 0
 572 -2 570 1 570 6 c 0
 570 14 635 279 669 626 c 1
 669 626 655 622 651 620 c 0
 645 617 636 616 630 616 c 0
 613 616 601 625 588 632 c 0
 580 636 572 641 564 641 c 0x35c0
EndSplineSet
Ligature2: "'liga' Standard Ligatures in Latin lookup 13 subtable" f f h
LCarets2: 2 0 0 
EndChar

StartChar: f_f_k
Encoding: 65548 -1 88
Width: 978
VWidth: 0
Flags: HW
HStem: -276 53<-88.8295 28.2793> -239 53<154.756 256.702> -2 39<861.785 945.559> 347 25<35.6328 121.974 189.095 368.962 436.095 529.822> 348 33<791.534 876.804> 641 37<544.092 628.5> 644 27<310.451 392.5>
VStem: 553 65<-1.46155 107.558> 697 42<172.238 188.918> 857 68<279.447 346.933> 951 27<41.4799 93.1993>
AnchorPoint: "r;o" 978 200 basechar 0
AnchorPoint: "r;x" 978 380 basechar 0
AnchorPoint: "r;bl" 978 10 basechar 0
AnchorPoint: "l;k;lo" -30 -260 basechar 0
AnchorPoint: "l;o" 0 200 basechar 0
AnchorPoint: "l;x" 0 380 basechar 0
AnchorPoint: "l;bl" 0 10 basechar 0
LayerCount: 3
Fore
SplineSet
374 384 m 0x33e0
 375 395 379 419 385 448 c 0
 400 515 422 557 458 595 c 0
 465 602 465 602 454 598 c 0
 450 596 446 595 442 595 c 0
 428 595 410 605 399 614 c 0
 386 624 361 644 339 644 c 0
 279 644 231 582 214 519 c 0
 199 463 189 401 189 377 c 0
 189 374 193 372 197 372 c 2
 364 372 l 2
 373 372 372.91015625 372.0078125 374 384 c 0x33e0
687 660 m 0
 703 667 725 682 730 682 c 0
 740 682 742 678 742 668 c 0
 742 648 661 257 645 179 c 1
 645 179 681 248 717 296 c 0
 757 349 796 381 866 381 c 0
 897 381 925 371 925 344 c 0
 925 252 809 200 760 189 c 0
 754 188 739 186 739 185 c 0
 739 184 753 179 766 167 c 0
 791 143 830 101 839 90 c 0
 864.21875 59.177734375 881 37 917 37 c 0
 942 37 951 50 951 64 c 0
 951 71 949 78 949 84 c 0
 949 91 952 96 957 96 c 0
 965 96 978 86 978 53 c 0
 978 21 906 -2 867 -2 c 0
 854 -2 841 2 824 18 c 0
 799 41 774 79 747 113 c 0
 721.747070312 144.80078125 697 172 697 175 c 0
 697 180 712 195 714 197 c 0
 716 199 719 199 724 199 c 0
 732 199 742 200 752 204 c 0
 797 224 857 280 857 328 c 0
 857 341 846 348 826 348 c 0x2de0
 802 348 784.078125 335.916992188 763 316 c 0
 731.118164062 285.875 700 234 663 178 c 0
 651 159 644 142 639 120 c 0
 633 95 622 46 618 22 c 0
 614.837890625 3.0263671875 614 0 608 0 c 0
 606 0 569 -6 558 -6 c 0
 552 -6 553 -5 553 1 c 0
 553 17 635 358 661 623 c 1
 661 623 655 622 651 620 c 0
 645 617 636 616 630 616 c 0
 613 616 601 625 588 632 c 0
 580 636 572 641 564 641 c 0
 552 641 540 634 527 625 c 0
 458 576 440 424 436 377 c 0
 436 374 440 372 444 372 c 2
 526 372 l 2
 530 372 531 371 531 370 c 0
 531 366 530 359 529 356 c 0
 528 350 527 347 522 347 c 2
 442 347 l 2
 433 347 434 347 432 336 c 0
 425 289 402.848632812 130.025390625 384 16 c 0
 373.918945312 -44.986328125 342.950195312 -143.944335938 285 -196 c 0
 264.982421875 -213.98046875 230 -239 194 -239 c 0
 163 -239 129 -223 129 -210 c 0
 129 -193 157 -171 176 -171 c 0
 201 -171 222 -186 254 -186 c 0x75e0
 308 -186 319.881835938 -45.9833984375 327 4 c 0
 347.657226562 149.048828125 369 330 369 336 c 0
 369 340 370 347 365 347 c 2
 195 347 l 2
 186 347 187 347 185 336 c 0
 178 289 145.922851562 59.0126953125 128 -54 c 0
 124.987304688 -72.998046875 99 -185 34 -234 c 0
 12 -250 -19 -276 -57 -276 c 0
 -90 -276 -125 -254 -125 -240 c 0
 -125 -222 -96 -199 -76 -199 c 0
 -50 -199 -29 -223 5 -223 c 0
 51 -223 61 -104 69 -54 c 0
 92 91 122 330 122 336 c 0
 122 340 123 347 118 347 c 2
 42 347 l 2
 36 347 35 347 35 353 c 0
 35 357 36 362 37 366 c 0
 38 371 39 372 44 372 c 2
 117 372 l 2
 126 372 126 372 127 384 c 0
 129 401 134 438 151 486 c 0
 180 566 262 671 378 671 c 0xb3e0
 407 671 433.96875 660.946289062 453 650 c 0
 466.977539062 641.9609375 474 637 478 625 c 0
 479 621 479 616 479 616 c 2
 479 615 484 620 490 625 c 0
 518 649 569 678 618 678 c 0x25e0
 639 678 656 671 668 662 c 0
 680 654 675 654 687 660 c 0
EndSplineSet
Ligature2: "'liga' Standard Ligatures in Latin lookup 13 subtable" f f k
LCarets2: 2 0 0 
EndChar

StartChar: bracketleft
Encoding: 91 91 89
Width: 296
VWidth: 0
Flags: HW
HStem: -141 36<125 256> 654 36<125 256>
VStem: 80 45<-105 654>
AnchorPoint: "l;o" 0 200 basechar 0
AnchorPoint: "l;hi" 0 650 basechar 0
AnchorPoint: "l;x" 0 380 basechar 0
AnchorPoint: "l;bl" 0 10 basechar 0
AnchorPoint: "r;bl" 276 10 basechar 0
AnchorPoint: "r;x" 236 380 basechar 0
AnchorPoint: "r;hi" 296 650 basechar 0
AnchorPoint: "r;o" 236 200 basechar 0
AnchorPoint: "l;lo" 0 -260 basechar 0
AnchorPoint: "r;lo" 276 -260 basechar 0
LayerCount: 3
Fore
SplineSet
93 -141 m 2
 81 -141 80 -140 80 -126 c 2
 80 675 l 2
 80 686 81 690 92 690 c 2
 243 690 l 2
 255 690 256 689 256 681 c 2
 256 667 l 2
 256 654 254 654 243 654 c 2
 138 654 l 2
 125 654 125 652 125 642 c 2
 125 -93 l 2
 125 -103 125 -105 138 -105 c 2
 243 -105 l 2
 254 -105 256 -105 256 -118 c 2
 256 -130 l 2
 256 -138 255 -141 243 -141 c 2
 93 -141 l 2
EndSplineSet
AlternateSubs2: "'aalt' Access All Alternates lookup 0 subtable" bracketleft.u bracketleft.sub bracketleft.sup bracketleft.denom bracketleft.numer
AlternateSubs2: "'aalt' Access All Alternates in Latin lookup 0 subtable" bracketleft.u bracketleft.sub bracketleft.sup bracketleft.denom bracketleft.numer
Substitution2: "'case' Case-Sensitive Forms in Latin lookup 12 subtable" bracketleft.u
Substitution2: "'subs' Subscript in Latin lookup 8 subtable" bracketleft.sub
Substitution2: "'sups' Superscript in Latin lookup 7 subtable" bracketleft.sup
Substitution2: "denominators subtable" bracketleft.denom
Substitution2: "numerators subtable" bracketleft.numer
EndChar

StartChar: dagger
Encoding: 8224 8224 90
Width: 463
VWidth: 0
Flags: W
HStem: 390 66<27.5708 181.122 302.519 435.57> 414 23<149.708 210.387 259.263 331.625> 656 20G<218 245.5>
VStem: 191 81<509.182 670.748> 199 69<120.244 397.157> 211 47<353.474 413.839> 218 40<-227 -24.2897> 223 26<439.947 517.939>
LayerCount: 3
Fore
SplineSet
241 -227 m 2xa2
 235 -227 l 2
 226 -227 218 -225 218 -217 c 0xa2
 218 251 199 339 199 353 c 0xa8
 199 358 211 388 211 398 c 0
 211 407 205 414 196 414 c 0x64
 176 414 127 390 77 390 c 0
 51 390 25 397 25 423 c 0
 25 448 54 456 77 456 c 0xa4
 130 456 154 437 199 437 c 0x68
 211 437 223 447 223 459 c 0x61
 223 470 191 594 191 627 c 0
 191 650 205 676 231 676 c 0
 260 676 272 648 272 628 c 0x70
 272 585 249 473 249 454 c 0x61
 249 443 263 434 274 434 c 0
 313 434 361 456 388 456 c 0
 421 456 438 442 438 423 c 0
 438 398 414 390 390 390 c 0
 358 390 303 416 280 416 c 0
 270 416 258 408 258 398 c 0xa4
 258 380 268 363 268 353 c 0xa8
 268 337 258 253 258 -217 c 0
 258 -225 250 -227 241 -227 c 2xa2
EndSplineSet
EndChar

StartChar: daggerdbl
Encoding: 8225 8225 91
Width: 401
VWidth: 0
Flags: W
HStem: -62 52<25.3675 161.13 229.774 375.575> -47 18<117.389 177.872 217.594 268.927> 466 52<25.4251 171.226 239.87 375.633> 485 18<132.073 183.406 223.128 283.611> 651 20G<189.5 211.5>
VStem: 170 61<-218.495 -76.8191 -15.351 205.982 305.206 471.351 532.358 669.495> 179 38<-28.9375 9.62788 446.372 484.938> 186 21<-109.768 -49.1606 87.0175 211.471> 194 21<109.837 211.156 253.041 380.629 505.161 563.616>
LayerCount: 3
Fore
SplineSet
209 206 m 0x8a
 209 147 225 21 225 10 c 0
 225 6 217 -8 217 -16 c 0
 217 -23 222 -29 229 -29 c 0x4a
 245 -29 294 -10 334 -10 c 0
 355 -10 376 -15 376 -36 c 0
 376 -56 352 -62 334 -62 c 0x8a
 292 -62 262 -47 226 -47 c 0
 216 -47 207 -55 207 -65 c 0x49
 207 -74 231 -155 231 -181 c 0
 231 -199 222 -220 201 -220 c 0
 178 -220 170 -198 170 -182 c 0x4c
 170 -148 186 -76 186 -61 c 0x49
 186 -52 175 -45 166 -45 c 0
 135 -45 87 -62 65 -62 c 0
 39 -62 25 -51 25 -36 c 0
 25 -16 45 -10 64 -10 c 0
 90 -10 144 -30 162 -30 c 0
 170 -30 179 -24 179 -16 c 0
 179 -2 172 2 172 10 c 0
 172 23 191 147 191 206 c 0
 191 210 196 212 200 212 c 0
 204 212 209 210 209 206 c 0x8a
194 260 m 0x2880
 194 319 176 435 176 446 c 0
 176 450 184 464 184 472 c 0
 184 479 179 485 172 485 c 0x1880
 156 485 107 466 67 466 c 0
 46 466 25 471 25 492 c 0
 25 512 49 518 67 518 c 0x2880
 109 518 139 503 175 503 c 0
 185 503 194 511 194 521 c 0x1880
 194 530 170 606 170 632 c 0
 170 650 179 671 200 671 c 0
 223 671 231 649 231 633 c 0x1c
 231 599 215 532 215 517 c 0
 215 508 226 501 235 501 c 0
 266 501 314 518 336 518 c 0
 362 518 376 507 376 492 c 0
 376 472 356 466 337 466 c 0
 311 466 257 486 239 486 c 0
 231 486 222 480 222 472 c 0
 222 458 229 454 229 446 c 0
 229 433 213 319 213 260 c 0
 213 254 208 253 203 253 c 0
 198 253 194 254 194 260 c 0x2880
EndSplineSet
EndChar

StartChar: section
Encoding: 167 167 92
Width: 381
VWidth: 0
Flags: HW
HStem: -226 42<113.958 255.366> 636 41<114.562 219.641>
VStem: 40 38<292.644 372.874> 63 35<544.908 620.143> 280 34<-165.717 -85.9242> 302 39<84.2439 167.896>
AnchorPoint: "l;bl" 0 10 basechar 0
AnchorPoint: "l;x" 0 380 basechar 0
AnchorPoint: "l;hi" 0 650 basechar 0
AnchorPoint: "l;o" 0 200 basechar 0
AnchorPoint: "l;lo" 0 -260 basechar 0
AnchorPoint: "r;bl" 381 10 basechar 0
AnchorPoint: "r;x" 381 380 basechar 0
AnchorPoint: "r;hi" 381 650 basechar 0
AnchorPoint: "r;o" 381 200 basechar 0
AnchorPoint: "r;lo" 381 -260 basechar 0
LayerCount: 3
Fore
SplineSet
113 413 m 0xe4
 100 403 78 383 78 357 c 0
 78 283 209 100 245 52 c 0
 250 45 252 42 255 42 c 0
 258 42 261 45 269 52 c 0
 283 65 302 85 302 102 c 0
 302 189 164 365 131 411 c 0
 124 420 126 423 113 413 c 0xe4
188 677 m 0
 232 677 302 666 302 632 c 0
 302 611 285 605 265 605 c 0
 221 605 200 636 156 636 c 0
 131 636 98 633 98 594 c 0
 98 506 341 314 341 132 c 0xd4
 341 93 297 55 275 38 c 0
 268 32 265 29 265 26 c 0
 265 23 268 19 272 12 c 0
 287 -15 314 -69 314 -102 c 0
 314 -175 260 -226 168 -226 c 0
 124 -226 65 -221 65 -182 c 0
 65 -169 78 -159 93 -159 c 0
 109 -159 122 -167 136 -172 c 0
 150 -177 180 -184 208 -184 c 0
 247 -184 280 -169 280 -132 c 0
 280 -54 40 153 40 310 c 0xe8
 40 371 90 414 109 428 c 0
 116 433 112 439 107 446 c 0
 89 474 63 514 63 556 c 0xd0
 63 624 111 677 188 677 c 0
EndSplineSet
EndChar

StartChar: paragraph
Encoding: 182 182 93
Width: 492
VWidth: 0
Flags: HW
HStem: -231 34<280 359> 620 34<386 452>
VStem: 40 245<306.245 516.982> 359 27<-197 620>
AnchorPoint: "l;bl" 0 10 basechar 0
AnchorPoint: "l;x" 0 380 basechar 0
AnchorPoint: "l;hi" 0 650 basechar 0
AnchorPoint: "l;o" 0 200 basechar 0
AnchorPoint: "l;lo" 0 -260 basechar 0
AnchorPoint: "r;bl" 492 10 basechar 0
AnchorPoint: "r;x" 492 380 basechar 0
AnchorPoint: "r;hi" 492 650 basechar 0
AnchorPoint: "r;o" 492 200 basechar 0
AnchorPoint: "r;lo" 492 -260 basechar 0
LayerCount: 3
Fore
SplineSet
452 643 m 2
 452 629 l 2
 452 622 451 620 440 620 c 2
 394 620 l 2
 387 620 386 619 386 610 c 2
 386 -222 l 2
 386 -230 385 -231 372 -231 c 2
 290 -231 l 2
 281 -231 280 -228 280 -223 c 2
 280 -205 l 2
 280 -200 281 -197 290 -197 c 2
 348 -197 l 2
 358 -197 359 -196 359 -189 c 2
 359 642 l 2
 359 653 362 654 370 654 c 2
 440 654 l 2
 451 654 452 652 452 643 c 2
40 417 m 0
 40 583 186 644 273 644 c 0
 284 644 285 640 285 630 c 2
 285 162 l 2
 285 156 284 154 280 154 c 0
 210 154 40 221 40 417 c 0
EndSplineSet
EndChar

StartChar: asterisk
Encoding: 42 42 94
Width: 391
VWidth: 0
Flags: HW
HStem: 420 58<31.8102 102.307> 513 24<176.765 182.999> 514 10<198.586 213.828> 655 20G<262 276>
VStem: 164 63<350.136 468.829> 173 25<524.603 537.225> 183 12<484.812 512.939> 236 59<606.75 673.025>
AnchorPoint: "l;x" 0 380 basechar 0
AnchorPoint: "l;hi" 0 650 basechar 0
AnchorPoint: "l;o" 20 200 basechar 0
AnchorPoint: "r;x" 391 380 basechar 0
AnchorPoint: "r;hi" 391 650 basechar 0
AnchorPoint: "r;o" 371 200 basechar 0
LayerCount: 3
Fore
SplineSet
227 387 m 0xb9
 227 369 218 348 197 348 c 0
 174 348 164 370 164 386 c 0xb9
 164 406 178 461 182 492 c 0
 183 496 183 499 183 502 c 0xb3
 183 510 182 513 179 513 c 0
 175 513 169 509 162 502 c 0
 139 481 104 438 85 427 c 0
 78 423 69 420 60 420 c 0
 43 420 30 430 30 447 c 0
 30 461 42 473 53 478 c 0
 73 487 126 503 154 515 c 0
 167 520 173 524 173 528 c 0xd5
 173 532 168 536 158 543 c 0
 133 561 85 587 70 603 c 0
 63 611 57 622 57 632 c 0
 57 646 66 659 85 659 c 0
 97 659 109 652 116 644 c 0
 132 627 160 575 176 550 c 0
 181 542 184 537 187 537 c 0
 189 537 191 541 195 550 c 0xd3
 206 577 224 639 236 656 c 0
 243 666 256 675 268 675 c 0
 284 675 295 660 295 647 c 0
 295 637 291 628 286 621 c 0
 271 599 228 568 208 546 c 0
 202 539 198 534 198 531 c 0xd5
 198 527 203 525 216 524 c 0
 247 521 311 524 332 517 c 0
 347 512 361 502 361 486 c 0
 361 467 346 457 329 457 c 0
 324 457 319 458 314 460 c 0
 299 465 245 495 216 508 c 0
 208 512 203 514 200 514 c 0
 198 514 195 513 195 510 c 0xb3
 195 507 196 503 198 496 c 0xb5
 205 464 227 411 227 387 c 0xb9
EndSplineSet
EndChar

StartChar: percent
Encoding: 37 37 95
Width: 657
VWidth: 250
Flags: HW
HStem: -9 16<412.097 472.44> 250 15<126.937 185.742> 273 33<481.582 561.333> 491 17<321 403.936> 531 32<197.018 276.815>
VStem: 50 49<288.644 422.666> 292 29<384.391 493.991> 336 49<29.3229 164.146> 578 29<123.35 254.73>
DStem2: 99 -25 132 -35 0.557602 0.830109<-5.29093 636.7>
AnchorPoint: "l;bl" 0 10 basechar 0
AnchorPoint: "l;x" 0 380 basechar 0
AnchorPoint: "l;hi" 0 650 basechar 0
AnchorPoint: "l;o" 0 200 basechar 0
AnchorPoint: "l;lo" 0 -260 basechar 0
AnchorPoint: "r;bl" 657 10 basechar 0
AnchorPoint: "r;x" 657 380 basechar 0
AnchorPoint: "r;hi" 657 650 basechar 0
AnchorPoint: "r;o" 657 200 basechar 0
AnchorPoint: "r;lo" 657 -260 basechar 0
LayerCount: 3
Fore
SplineSet
436 -9 m 0
 371 -9 336 41 336 103 c 0
 336 195 422 306 517 306 c 0
 573 306 607 264 607 197 c 0
 607 92 522 -9 436 -9 c 0
240 531 m 0
 180 531 99 427 99 336 c 0
 99 301 114 265 153 265 c 0
 218 265 292 352 292 461 c 0
 292 502 277 531 240 531 c 0
525 273 m 0
 466 273 385 169 385 78 c 0
 385 42 399 7 439 7 c 0
 504 7 578 94 578 202 c 0
 578 243 562 273 525 273 c 0
320 439 m 0
 312 344 233 250 150 250 c 0
 85 250 50 300 50 362 c 0
 50 434 122 563 227 563 c 0
 261 563 279 551 298 532 c 0
 312 518 331 508 356 508 c 0
 390 508 427 523 449 536 c 0
 486 558 514 591 538 614 c 0
 540 616 552 631 553 631 c 0
 561 631 571 625 571 619 c 0
 571 617 570 614 566 608 c 0
 510 526 155 1 132 -35 c 0
 129 -40 120 -41 113 -41 c 0
 105 -41 97 -38 97 -31 c 0
 97 -29 98 -27 99 -25 c 0
 101 -21 410 416 461 505 c 0
 465 512 477 527 461 519 c 0
 456 516 409 491 356 491 c 0
 346 491 334 492 321 494 c 0
 319 494 321 481 321 478 c 2
 321 464 l 2
 321 456 321 447 320 439 c 0
EndSplineSet
EndChar

StartChar: dollar
Encoding: 36 36 96
Width: 500
VWidth: 0
Flags: W
LayerCount: 3
Fore
SplineSet
209 -142 m 2xe6
 192 -142 l 2
 188 -142 187 -140 188 -135 c 2
 206 -14 l 2
 207 -10 207 -7 207 -4 c 0
 207 5 203 5 191 8 c 0
 106 26 60 94 60 128 c 0
 60 140 83 154 93 154 c 0
 98 154 108 122 125 91 c 0xf6
 138 68 156 44 177 33 c 0
 185 29 196 25 206 25 c 0
 209 25 212 26 213 36 c 2
 245 270 l 2
 247 285 248 288 238 294 c 0
 170 336 98 380 98 470 c 0
 98 574 190 627 278 627 c 0
 284 627 290 629 291 637 c 2
 296 673 l 2
 297 681 299 682 304 682 c 2
 313 682 l 2
 319 682 320 681 319 673 c 2
 314 637 l 2
 313 628 312 625 320 624 c 0
 410 609 448 527 448 496 c 0
 448 479 439 471 430 471 c 0
 418 471 403 485 400 500 c 0xed
 395 522 393 551 384 564 c 0
 372 580 352 600 321 605 c 0
 314 606 310 609 309 602 c 2
 277 355 l 2
 276 347 273 340 278 337 c 0
 347 292 426 251 426 145 c 0
 426 55 347 1 241 1 c 0
 230 1 231 2 229 -14 c 2
 215 -136 l 2
 214 -141 213 -142 209 -142 c 2xe6
255 368 m 2
 286 602 l 2
 287 607 285 608 282 608 c 0
 221 608 151 560 151 485 c 0xec
 151 434 196 382 240 358 c 0
 249 353 253 352 255 368 c 2
267 266 m 2
 238 38 l 2
 237 32 237 28 237 25 c 0
 237 19 240 19 255 19 c 0
 319 21 370 67 370 145 c 0xe6
 370 198 326 248 276 272 c 0
 274 273 272 275 270 275 c 0
 269 275 268 271 267 266 c 2
EndSplineSet
AlternateSubs2: "'aalt' Access All Alternates lookup 0 subtable" dollar.sub dollar.sup dollar.denom dollar.numer
AlternateSubs2: "'aalt' Access All Alternates in Latin lookup 0 subtable" dollar.sub dollar.sup dollar.denom dollar.numer
Substitution2: "'subs' Subscript in Latin lookup 8 subtable" dollar.sub
Substitution2: "'sups' Superscript in Latin lookup 7 subtable" dollar.sup
Substitution2: "denominators subtable" dollar.denom
Substitution2: "numerators subtable" dollar.numer
EndChar

StartChar: bullet
Encoding: 8226 8226 97
Width: 356
VWidth: 0
Flags: W
HStem: 209 236<109.765 246.235>
VStem: 60 236<258.765 395.235>
LayerCount: 3
Fore
SplineSet
60 327 m 0
 60 392 113 445 178 445 c 0
 243 445 296 392 296 327 c 0
 296 262 243 209 178 209 c 0
 113 209 60 262 60 327 c 0
EndSplineSet
EndChar

StartChar: sterling
Encoding: 163 163 98
Width: 510
VWidth: 0
Flags: W
LayerCount: 3
Fore
SplineSet
442 484 m 0x9d
 424 484 417 505 417 522 c 0
 417 540 424 559 424 579 c 0
 424 600 392 629 350 629 c 0
 280 629 249 575 234 519 c 0
 214 444 206 353 199 282 c 0
 198 270 198 272 212 272 c 2
 319 272 l 2
 326 272 326 271 326 260 c 0
 326 250 323 248 315 248 c 2
 208 248 l 2
 192 248 196 248 192 232 c 0
 174 144 145 83 131 55 c 0
 130 52 122 36 122 34 c 0
 122 30 138 37 146 40 c 0
 162 47 189 49 200 49 c 0x3e
 252 49 354 26 385 26 c 0
 412 26 442 31 442 63 c 0
 442 80 425 95 416 106 c 0
 408 116 409 119 422 124 c 0
 426 126 432 126 438 126 c 0
 458 126 468 100 468 78 c 0
 468 13 403 -14 346 -14 c 0x5d
 291 -14 133 14 114 14 c 0x3d
 96 14 67 -34 40 -34 c 0
 33 -34 24 -30 24 -16 c 0
 24 12 66 16 85 19 c 0
 107 23 118 80 123 112 c 0
 129 153 135 196 136 232 c 0
 136 248 136 248 121 248 c 2
 55 248 l 2
 50 248 48 249 49 261 c 0
 50 271 51 272 57 272 c 2
 128 272 l 2
 142 272 139 273 140 281 c 0
 141 289 142 339 154 422 c 0
 167 514 207 599 279 635 c 0
 302 646 331 653 359 653 c 0
 415 653 467 621 467 546 c 0x9e
 467 522 466 484 442 484 c 0x9d
EndSplineSet
EndChar

StartChar: bracketright
Encoding: 93 93 99
Width: 296
VWidth: 0
Flags: HW
HStem: -141 36<40 171> 654 36<40 171>
VStem: 171 45<-105 654>
AnchorPoint: "l;o" 60 200 basechar 0
AnchorPoint: "l;hi" 0 650 basechar 0
AnchorPoint: "l;x" 60 380 basechar 0
AnchorPoint: "l;bl" 20 10 basechar 0
AnchorPoint: "r;bl" 296 10 basechar 0
AnchorPoint: "r;x" 296 380 basechar 0
AnchorPoint: "r;hi" 296 650 basechar 0
AnchorPoint: "r;o" 296 200 basechar 0
AnchorPoint: "l;lo" 20 -260 basechar 0
AnchorPoint: "r;lo" 296 -260 basechar 0
LayerCount: 3
Fore
SplineSet
203 690 m 2
 215 690 216 689 216 675 c 2
 216 -126 l 2
 216 -137 215 -141 204 -141 c 2
 53 -141 l 2
 41 -141 40 -140 40 -132 c 2
 40 -118 l 2
 40 -105 42 -105 53 -105 c 2
 158 -105 l 2
 171 -105 171 -103 171 -93 c 2
 171 642 l 2
 171 652 171 654 158 654 c 2
 53 654 l 2
 42 654 40 654 40 667 c 2
 40 679 l 2
 40 687 41 690 53 690 c 2
 203 690 l 2
EndSplineSet
AlternateSubs2: "'aalt' Access All Alternates lookup 0 subtable" bracketright.u bracketright.sub bracketright.sup bracketright.denom bracketright.numer
AlternateSubs2: "'aalt' Access All Alternates in Latin lookup 0 subtable" bracketright.u bracketright.sub bracketright.sup bracketright.denom bracketright.numer
Substitution2: "'case' Case-Sensitive Forms in Latin lookup 12 subtable" bracketright.u
Substitution2: "'subs' Subscript in Latin lookup 8 subtable" bracketright.sub
Substitution2: "'sups' Superscript in Latin lookup 7 subtable" bracketright.sup
Substitution2: "denominators subtable" bracketright.denom
Substitution2: "numerators subtable" bracketright.numer
EndChar

StartChar: ampersand
Encoding: 38 38 100
Width: 709
VWidth: 0
Flags: HW
HStem: -8 61<191.414 361.069> 210 32<327.939 392.456> 300 46<541.971 619.744> 334 50<142.199 231.064> 348 36<135.1 181.247> 357 49<338.844 467.547> 586 57<158.004 290.96>
VStem: 31 54<153.935 288.539> 79 31<415.196 528.009> 284 22<266.681 333.891> 497 29<190.726 307.757>
LayerCount: 3
Fore
SplineSet
613 359 m 0
 647 359 669 382 669 415 c 0
 669 469 624 478 585 478 c 0
 575 478 574 481 574 485 c 0
 574 507 595 520 611 520 c 0
 669 520 689 466 689 431 c 0
 689 406 682 382 672 366 c 0
 651 331 603 312 576 312 c 0
 566 312 547 313 539 315 c 0
 532 316 526 319 526 308 c 0
 526 301 527 286 527 277 c 0
 527 176 455 -8 252 -8 c 0
 111 -8 31 84 31 201 c 0xe360
 31 315 124 359 124 368 c 0
 124 376 79 400 79 476 c 0
 79 563 137 643 242 643 c 0
 272 643 294 638 320 627 c 0
 339 619 357 608 357 586 c 0
 357 564 346 544 336 534 c 0
 327 525 321 536 315 543 c 0
 285 575 257 586 218 586 c 0
 160 586 110 533 110 474 c 0
 110 426 137 384 169 384 c 0
 194 384 206 389 224 389 c 0
 237 389 243 384 243 377 c 0
 243 354 199 334 182 334 c 0xd2e0
 166 334 146 348 142 348 c 0xcae0
 137 348 85 326 85 242 c 0
 85 125 177 53 290 53 c 0
 374 53 497 102 497 265 c 0
 497 286 493 326 485 329 c 0
 458 339 407 357 371 357 c 0
 333 357 306 337 306 300 c 0
 306 252 348 248 379 242 c 0
 391 240 395 237 395 233 c 0xe760
 395 223 378 210 364 210 c 0
 355 210 346 212 339 214 c 0
 297 227 284 266 284 283 c 0
 284 364 349 406 418 406 c 0xe760
 466 406 539 359 613 359 c 0
EndSplineSet
Position2: "'cpsp' Capital Spacing in Latin lookup 2 subtable" dx=4 dy=0 dh=8 dv=0
EndChar

StartChar: ae
Encoding: 230 230 101
Width: 636
VWidth: 0
Flags: HW
HStem: -10 53<68.5 143.738> -5 40<365.02 486.583> 170 23<352.001 436.893> 347 40<191.99 291.625> 367 24<449.909 530.361>
VStem: 25 69<43.4021 182.266> 271 66<60.5308 170.08> 314 38<231.136 255.104> 343 57<350.746 382.072> 544 65<264.557 360.723>
AnchorPoint: "r;o" 636 200 basechar 0
AnchorPoint: "r;x" 636 380 basechar 0
AnchorPoint: "r;bl" 616 10 basechar 0
AnchorPoint: "l;o" 0 200 basechar 0
AnchorPoint: "l;x" 20 380 basechar 0
AnchorPoint: "l;bl" 0 10 basechar 0
LayerCount: 3
Fore
SplineSet
232 347 m 0xb540
 164 347 94 177 94 96 c 0
 94 74 97 43 120 43 c 0
 156 43 249 153 299 235 c 0
 311 254 314 284 314 289 c 0
 314 327 262 347 232 347 c 0xb540
252 387 m 0
 275 387 295 376 308 357 c 0
 317 344 323 329 328 329 c 0
 331 329 343 371 343 373 c 0
 346 381 365 382 379 384 c 0
 389 385 400 383 400 379 c 0
 400 376 397 366 393 350 c 1
 430 376 472 391 516 391 c 0
 558 391 609 378 609 325 c 0
 609 264 550 218 486 194 c 0
 437 176 383 170 345 170 c 0
 340 170 337 151 337 124 c 0
 337 58 377 35 433 35 c 0
 527 35 596 122 603 122 c 0
 608 122 616 114 616 108 c 0
 616 104 516 -5 397 -5 c 0
 329 -5 271 28 271 105 c 0x6ec0
 271 128 273 150 278 172 c 1
 255 137 223 91 186 52 c 0
 151 16 127 -10 90 -10 c 0
 47 -10 25 21 25 59 c 0
 25 175 102 387 252 387 c 0
362 193 m 0
 456 193 544 242 544 326 c 0
 544 351 523 367 494 367 c 0
 424 367 386 298 366 245 c 0
 360 230 352 203 352 200 c 0x2d40
 352 196 354 193 362 193 c 0
EndSplineSet
Comment: "The original had a two-story +ACIA-a+ACIA; perhaps Dwiggins was responsible. In any case, I'm using a one-story, italic +ACIA-a+ACIA." 
EndChar

StartChar: oe
Encoding: 339 339 102
Width: 669
VWidth: 0
Flags: HW
HStem: -8 24<127.067 209.564> -5 40<397.058 519.583> 170 23<385.001 469.893> 367 24<483.311 563.361> 374 23<206.101 290.884>
VStem: 25 62<55.4044 238.969> 331 54<193.685 262.854> 577 65<264.557 360.723>
AnchorPoint: "r;o" 669 200 basechar 0
AnchorPoint: "r;x" 669 380 basechar 0
AnchorPoint: "r;bl" 649 10 basechar 0
AnchorPoint: "l;o" 0 200 basechar 0
AnchorPoint: "l;x" 20 380 basechar 0
AnchorPoint: "l;bl" 0 10 basechar 0
LayerCount: 3
Fore
SplineSet
165 -8 m 0xa7
 71 -8 25 62 25 138 c 0
 25 284 123 397 256 397 c 0xaf
 322 397 362 360 381 305 c 1
 419 354 479 391 549 391 c 0
 591 391 642 378 642 325 c 0
 642 264 583 218 519 194 c 0
 470 176 416 170 378 170 c 0
 373 170 370 151 370 124 c 0
 370 58 410 35 466 35 c 0
 560 35 629 122 636 122 c 0
 641 122 649 114 649 108 c 0
 649 104 549 -5 430 -5 c 0x77
 372 -5 334 18 314 61 c 1
 277 25 232 -8 165 -8 c 0xa7
245 374 m 0
 165 374 87 234 87 146 c 0
 87 104 89 16 167 16 c 0
 265 16 331 188 331 278 c 0
 331 312 318 374 245 374 c 0
395 193 m 0
 489 193 577 242 577 326 c 0
 577 351 556 367 527 367 c 0x37
 457 367 419 298 399 245 c 0
 393 230 385 203 385 200 c 0
 385 196 387 193 395 193 c 0
EndSplineSet
EndChar

StartChar: emdash
Encoding: 8212 8212 103
Width: 750
VWidth: 0
Flags: HW
HStem: 175 37<10.0015 740>
AnchorPoint: "l;o" 0 200 basechar 0
AnchorPoint: "r;o" 750 200 basechar 0
AnchorPoint: "l;bl" 0 10 basechar 0
AnchorPoint: "l;x" 0 380 basechar 0
AnchorPoint: "r;bl" 750 10 basechar 0
AnchorPoint: "r;x" 750 380 basechar 0
LayerCount: 3
Fore
SplineSet
740 188 m 2
 740 176 739 175 724 175 c 2
 30 175 l 2
 10 175 10 175 10 195 c 0
 10 211 12 212 23 212 c 2
 724 212 l 2
 739 212 740 211 740 200 c 2
 740 188 l 2
EndSplineSet
AlternateSubs2: "'aalt' Access All Alternates lookup 0 subtable" emdash.u
AlternateSubs2: "'aalt' Access All Alternates in Latin lookup 0 subtable" emdash.u
Substitution2: "'case' Case-Sensitive Forms in Latin lookup 12 subtable" emdash.u
EndChar

StartChar: endash
Encoding: 8211 8211 104
Width: 500
VWidth: 0
Flags: HW
HStem: 175 37<10.0015 490>
AnchorPoint: "l;o" 0 200 basechar 0
AnchorPoint: "r;o" 500 200 basechar 0
AnchorPoint: "l;bl" 0 10 basechar 0
AnchorPoint: "l;x" 0 380 basechar 0
AnchorPoint: "r;bl" 500 10 basechar 0
AnchorPoint: "r;x" 500 380 basechar 0
LayerCount: 3
Fore
SplineSet
490 188 m 2
 490 176 489 175 474 175 c 2
 30 175 l 2
 10 175 10 175 10 195 c 0
 10 211 12 212 23 212 c 2
 474 212 l 2
 489 212 490 211 490 200 c 2
 490 188 l 2
EndSplineSet
AlternateSubs2: "'aalt' Access All Alternates lookup 0 subtable" endash.u
AlternateSubs2: "'aalt' Access All Alternates in Latin lookup 0 subtable" endash.u
Substitution2: "'case' Case-Sensitive Forms in Latin lookup 12 subtable" endash.u
EndChar

StartChar: OE
Encoding: 338 338 105
Width: 996
VWidth: 0
Flags: W
HStem: -17 24<292.846 471.313> -3 40<582.412 910.912> 0 30<574.001 899.788> 325 27<619.543 833.976> 405 20G<867 874.5> 638 24<657.008 847.329> 649 26<363.092 541.739>
VStem: 36 92<174.463 415.574> 834 50<307.937 419.75> 917 31<544.003 631.928> 927 30<668.377 689.986>
DStem2: 484.031 -17 565.13 -17 0.156434 0.987688<61.5558 362.201 389.765 644.85> 780.662 -17 810.82 -17 0.156434 0.987688<259.064 332.09 373.011 446.358>
LayerCount: 3
Fore
SplineSet
491 27 m 1x9b80
 491 27 551 403 569 564 c 0
 571 584 575 618 575 624 c 0
 575 630 499 649 450 649 c 0
 252 649 128 490 128 293 c 0
 128 154 215 7 357 7 c 0
 451 7 463 15 491 27 c 1x9b80
340 -17 m 0
 191 -17 36 73 36 287 c 0
 36 512 216 675 420 675 c 0x9ba0
 490 675 563 662 623 662 c 0
 676 662 789 665 832 665 c 0
 899 665 925 666 927 678 c 0
 928 688 932 690 940 690 c 0
 954 690 957 689 957 679 c 0x1da0
 957 660 950 634 948 554 c 0
 948 546 946 544 932 544 c 0
 920 544 917 548 917 558 c 0
 917 563 923 625 923 631 c 0
 923 635 771 638 660 638 c 0
 655 638 624 405 619 368 c 0
 617 352 617 352 633 352 c 2
 797 352 l 2
 816 352 842 352 844 365 c 2
 855 418 l 2
 856 424 863 425 871 425 c 0
 878 425 884 424 884 419 c 0
 884 410 874 370 867 332 c 0
 861 300 854 256 852 243 c 0
 851 238 846 236 839 236 c 0
 831 236 822 238 822 244 c 0
 825 262 834 307 834 311 c 0
 834 321 826 325 784 325 c 2
 633 325 l 2
 618 325 615 325 613 315 c 0
 610 299 579 83 574 39 c 0
 574 32 576 30 581 30 c 0x3dc0
 607 30 900 37 900 37 c 2
 908 37 925 103 938 134 c 0
 940 139 944 143 952 143 c 0
 960 143 969 138 969 132 c 0
 969 121 948 71 927 8 c 0
 924 -1 920 -3 910 -3 c 0x59a0
 887 -3 577 0 547 0 c 0x39a0
 494 0 434 -17 340 -17 c 0
EndSplineSet
Position2: "'cpsp' Capital Spacing in Latin lookup 2 subtable" dx=4 dy=0 dh=8 dv=0
EndChar

StartChar: AE
Encoding: 198 198 106
Width: 1018
VWidth: 0
Flags: W
HStem: -3 40<601.412 929.912> -3 30<30.0144 94.3165 155.001 234.991 449.014 510 593.001 790.622> 301 24<363.007 552> 325 27<637.125 852.976> 405 20G<886 893.5> 636 29<476.005 563 582.001 595.999 674.759 870.881>
VStem: 853 50<307.937 419.75> 936 31<544.003 631.928> 946 30<668.377 689.986>
DStem2: 505.248 -3 586.348 -3 0.156434 0.987688<47.3813 307.571 331.901 348.026 377.492 632.583> 801.879 -3 832.037 -3 0.156434 0.987688<244.889 317.916 358.836 432.183>
LayerCount: 3
Fore
SplineSet
600 30 m 0x5f
 626 30 919 37 919 37 c 2
 927 37 944 103 957 134 c 0
 959 139 963 143 971 143 c 0
 979 143 988 138 988 132 c 0
 988 121 967 71 946 8 c 0
 943 -1 939 -3 929 -3 c 0x9e80
 906 -3 596 0 566 0 c 0
 536 0 486 -3 463 -3 c 0
 450 -3 449 -2 449 15 c 0
 449 27 451 27 467 27 c 2
 510 27 l 1
 552 301 l 1
 351 301 l 2
 344 301 336 298 328 286 c 0
 298 242 155 42 155 28 c 0
 155 27 156 27 156 27 c 1
 224 27 l 2
 235 27 235 26 235 14 c 0
 235 -1 234 -3 224 -3 c 0
 201 -3 147 0 117 0 c 0
 87 0 67 -3 44 -3 c 0
 31 -3 30 -2 30 15 c 0
 30 27 32 27 48 27 c 2
 81 27 l 2
 97 27 467 521 563 636 c 1
 495 636 l 2
 483 636 476 636 476 651 c 0
 476 663 480 665 488 665 c 0
 495 665 607 662 642 662 c 0
 695 662 808 665 851 665 c 0
 918 665 944 666 946 678 c 0
 947 688 951 690 959 690 c 0
 973 690 976 689 976 679 c 0x6e80
 976 660 969 634 967 554 c 0
 967 546 965 544 951 544 c 0
 939 544 936 548 936 558 c 0
 936 563 942 625 942 631 c 0
 942 635 790 638 679 638 c 0
 674 638 648 444 640 382 c 0
 639 375 637 365 637 358 c 0
 637 352 640 352 652 352 c 2
 816 352 l 2
 835 352 861 352 863 365 c 2
 874 418 l 2
 875 424 882 425 890 425 c 0
 897 425 903 424 903 419 c 0
 903 410 893 370 886 332 c 0
 880 300 873 256 871 243 c 0
 870 238 865 236 858 236 c 0
 850 236 841 238 841 244 c 0
 844 262 853 307 853 311 c 0
 853 321 845 325 803 325 c 2
 652 325 l 2
 637 325 634 325 632 315 c 0
 629 299 598 83 593 39 c 0
 593 32 595 30 600 30 c 0x5f
582 622 m 2
 373 346 l 2
 368 339 363 334 363 331 c 0
 363 326 372 325 384 325 c 2x2e
 556 325 l 1
 576 470 l 2
 581 506 596 606 596 624 c 0
 596 630 595 632 593 632 c 0
 590 632 586 628 582 622 c 2
EndSplineSet
Position2: "'cpsp' Capital Spacing in Latin lookup 2 subtable" dx=4 dy=0 dh=8 dv=0
EndChar

StartChar: at
Encoding: 64 64 107
Width: 795
VWidth: 20
Flags: HW
HStem: -113 29<266.254 471.752> 54 47<250.217 320.739> 54 30<400 510.506> 374 21<400.101 469.573> 400 20G<520 533.5> 560 28<369.652 569.688>
VStem: 50 34<88.0413 288.965> 204 67<107.185 210.19> 374 65<68 153.12> 460 92<336.5 412> 715 30<261.146 426.612>
AnchorPoint: "l;bl" 0 10 basechar 0
AnchorPoint: "l;x" 0 380 basechar 0
AnchorPoint: "l;hi" 0 650 basechar 0
AnchorPoint: "l;o" 0 200 basechar 0
AnchorPoint: "l;lo" 0 -260 basechar 0
AnchorPoint: "r;bl" 795 10 basechar 0
AnchorPoint: "r;x" 795 380 basechar 0
AnchorPoint: "r;hi" 795 650 basechar 0
AnchorPoint: "r;o" 795 200 basechar 0
AnchorPoint: "r;lo" 795 -260 basechar 0
LayerCount: 3
Fore
SplineSet
715 337 m 0xbfe0
 715 492 611 560 471 560 c 0
 266 560 84 401 84 181 c 0
 84 17 214 -84 356 -84 c 0
 493 -84 582 -34 666 44 c 0
 667 45 676 52 679 52 c 0
 688 52 693 41 693 38 c 0
 693 34 692 30 689 27 c 0
 606 -63 483 -113 353 -113 c 0
 196 -113 50 -8 50 187 c 0
 50 415 260 588 468 588 c 0
 610 588 745 524 745 344 c 0
 745 152 556 54 409 54 c 0
 391 54 374 60 374 76 c 0
 374 90 380 123 380 123 c 1
 380 123 319 56 262 56 c 0
 223 56 204 96 204 139 c 0
 204 205 311 395 454 395 c 0
 468 395 482 389 485 389 c 0
 487 389 489 392 499 404 c 0
 509 416 513 420 527 420 c 0
 540 420 552 417 552 407 c 0
 552 403 551 397 549 393 c 0
 523 337 439 149 439 115 c 0
 439 99 439 84 459 84 c 0
 514 84 587 118 647 178 c 0
 689 220 715 278 715 337 c 0xbfe0
271 147 m 0
 271 124 287 101 313 101 c 0xdfe0
 382 101 460 323 460 350 c 0
 460 365 443 374 428 374 c 0
 378 374 271 256 271 147 c 0
EndSplineSet
EndChar

StartChar: quotesingle
Encoding: 39 39 108
Width: 131
VWidth: 250
Flags: HW
HStem: 497 191<41.4917 59.8439>
VStem: 30 71<581.979 683.043> 30 29<497.069 561.429>
AnchorPoint: "l;bl" 0 10 basechar 0
AnchorPoint: "l;x" 0 380 basechar 0
AnchorPoint: "l;hi" 0 650 basechar 0
AnchorPoint: "l;o" 0 200 basechar 0
AnchorPoint: "l;lo" 0 -260 basechar 0
AnchorPoint: "r;bl" 131 10 basechar 0
AnchorPoint: "r;x" 131 380 basechar 0
AnchorPoint: "r;hi" 131 650 basechar 0
AnchorPoint: "r;o" 131 200 basechar 0
AnchorPoint: "r;lo" 131 -260 basechar 0
LayerCount: 3
Fore
SplineSet
59 516 m 0xa0
 54 500 56 497 42 497 c 0
 31 497 30 503 30 511 c 0xa0
 30 512 37 637 40 659 c 0
 42 675 48 688 72 688 c 0
 92 688 101 677 101 663 c 0xc0
 101 659 100 654 99 649 c 0
 91 617 64 533 59 516 c 0xa0
EndSplineSet
EndChar

StartChar: quotedbl
Encoding: 34 34 109
Width: 261
VWidth: 250
Flags: HW
HStem: 497 191<41.4917 59.8439 171.492 189.844>
VStem: 30 71<581.979 683.043> 30 29<497.069 561.429> 160 71<581.979 683.043> 160 29<497.069 561.429>
AnchorPoint: "r;lo" 261 -260 basechar 0
AnchorPoint: "r;o" 261 200 basechar 0
AnchorPoint: "r;hi" 261 650 basechar 0
AnchorPoint: "r;x" 261 380 basechar 0
AnchorPoint: "r;bl" 261 10 basechar 0
AnchorPoint: "l;lo" 0 -260 basechar 0
AnchorPoint: "l;o" 0 200 basechar 0
AnchorPoint: "l;hi" 0 650 basechar 0
AnchorPoint: "l;x" 0 380 basechar 0
AnchorPoint: "l;bl" 0 10 basechar 0
LayerCount: 3
Fore
SplineSet
189 516 m 0x88
 184 500 186 497 172 497 c 0
 161 497 160 503 160 511 c 0x88
 160 512 167 637 170 659 c 0
 172 675 178 688 202 688 c 0
 222 688 231 677 231 663 c 0x90
 231 659 230 654 229 649 c 0
 221 617 194 533 189 516 c 0x88
59 516 m 0xa0
 54 500 56 497 42 497 c 0
 31 497 30 503 30 511 c 0xa0
 30 512 37 637 40 659 c 0
 42 675 48 688 72 688 c 0
 92 688 101 677 101 663 c 0xc0
 101 659 100 654 99 649 c 0
 91 617 64 533 59 516 c 0xa0
EndSplineSet
EndChar

StartChar: numbersign
Encoding: 35 35 110
Width: 442
VWidth: 488
Flags: HW
HStem: -10 21G<101.5 119 242 264.5> 155 31<30.1035 112.999 158.052 257.903 302.128 411.993> 323 30<30.2557 136.998 185.189 282.796 329.001 411.994>
VStem: 91 40<-9.99109 129.879> 113 40<20.336 154.981> 137 41<193.335 322.963> 146 39<353 481.946> 170 40<394.535 532> 236 39<-9.99851 129.879> 258 39<23.2786 154.999 188.09 284.437> 283 38<194.025 322.986> 315 38<407.624 531.98>
DStem2: 231.69 -10 269.05 -10 0.156434 0.987688<210.846 334.606>
AnchorPoint: "l;bl" 0 10 basechar 0
AnchorPoint: "l;x" 0 380 basechar 0
AnchorPoint: "l;hi" 0 650 basechar 0
AnchorPoint: "l;o" 0 200 basechar 0
AnchorPoint: "l;lo" 0 -260 basechar 0
AnchorPoint: "r;bl" 442 10 basechar 0
AnchorPoint: "r;x" 442 380 basechar 0
AnchorPoint: "r;hi" 442 650 basechar 0
AnchorPoint: "r;o" 442 200 basechar 0
AnchorPoint: "r;lo" 442 -260 basechar 0
LayerCount: 3
Fore
SplineSet
178 320 m 1xe420
 178 319 l 1
 172 279 158 199 158 193 c 0
 158 189 161 188 167 188 c 2
 257 188 l 2
 258 188 264 188 264 194 c 0
 275 278 283 314 283 321 c 0
 283 324 279 325 276 325 c 2
 186 325 l 2
 180 325 179 322 178 320 c 1xe420
297 150 m 0xe040
 276 0 276 0 275 -2 c 0
 272 -10 276 -10 253 -10 c 0
 231 -10 236 -8 236 3 c 0xe080
 236 10 258 145 258 151 c 0
 258 154 257 155 251 155 c 2
 165 155 l 2
 155 155 153 156 153 150 c 0xe840
 132 0 132 0 131 -2 c 0
 127 -9 129 -10 109 -10 c 0
 94 -10 91 -7 91 3 c 0xf0
 91 10 113 145 113 151 c 0xe8
 113 155 112 155 110 155 c 2
 42 155 l 2
 30 155 30 160 30 169 c 2
 30 173 l 2
 30 184 32 186 41 186 c 2
 114 186 l 2
 121 186 120 187 121 193 c 0
 127 236 137 313 137 319 c 0
 137 322 134 323 132 323 c 2
 37 323 l 2
 33 323 30 325 30 336 c 2
 30 342 l 2
 30 349 31 353 37 353 c 2
 137 353 l 2xe4
 143 353 146 355 146 359 c 0xe2
 170 523 168 521 170 525 c 0
 174 532 170 532 191 532 c 0
 203 532 210 532 210 521 c 0xe1
 210 515 185 365 185 358 c 0
 185 356 187 353 191 353 c 2
 281 353 l 2
 287 353 288 353 289 360 c 0
 310 496 313 518 315 525 c 0
 316 527 316 532 329 532 c 0
 345 532 353 532 353 522 c 0xe210
 353 513 329 366 329 358 c 0
 329 356 330 353 333 353 c 2
 397 353 l 2
 410 353 412 352 412 337 c 0
 412 323 407 323 399 323 c 2
 327 323 l 2
 323 323 321 319 321 318 c 0xe020
 315 280 302 198 302 192 c 0
 302 189 305 186 309 186 c 2
 401 186 l 2
 411 186 412 184 412 169 c 0
 412 156 410 155 398 155 c 2
 312 155 l 2
 299 155 297 156 297 150 c 0xe040
EndSplineSet
EndChar

StartChar: plus
Encoding: 43 43 111
Width: 527
VWidth: 488
Flags: HW
HStem: -22 21G<256 271.5> 188 44<31.0019 241 286.086 495.999>
VStem: 241 45<-21.9956 187.996 232 441.995>
AnchorPoint: "l;bl" 0 10 basechar 0
AnchorPoint: "l;x" 0 380 basechar 0
AnchorPoint: "l;hi" 0 650 basechar 0
AnchorPoint: "l;o" 0 200 basechar 0
AnchorPoint: "l;lo" 0 -260 basechar 0
AnchorPoint: "r;bl" 527 10 basechar 0
AnchorPoint: "r;x" 527 380 basechar 0
AnchorPoint: "r;hi" 527 650 basechar 0
AnchorPoint: "r;o" 527 200 basechar 0
AnchorPoint: "r;lo" 527 -260 basechar 0
LayerCount: 3
Fore
SplineSet
31 212 m 0
 31 225 31 232 49 232 c 2
 219 232 l 2
 238 232 241 240 241 251 c 2
 241 427 l 2
 241 442 248 442 262 442 c 0
 276 442 286 442 286 422 c 2
 286 259 l 2
 286 245 287 232 303 232 c 2
 480 232 l 2
 496 232 496 225 496 211 c 0
 496 194 496 188 475 188 c 2
 303 188 l 2
 286 188 286 182 286 170 c 2
 286 -5 l 2
 286 -22 277 -22 266 -22 c 0
 246 -22 241 -22 241 -4 c 2
 241 170 l 2
 241 188 234 188 217 188 c 2
 48 188 l 2
 31 188 31 195 31 212 c 0
EndSplineSet
EndChar

StartChar: slash
Encoding: 47 47 112
Width: 406
VWidth: 488
Flags: HW
DStem2: 29 -163 68 -202 0.346165 0.938174<-59.6435 929.712>
AnchorPoint: "l;bl" 0 10 basechar 0
AnchorPoint: "l;x" 110 380 basechar 0
AnchorPoint: "l;hi" 200 650 basechar 0
AnchorPoint: "l;o" 50 200 basechar 0
AnchorPoint: "l;lo" 0 -260 basechar 0
AnchorPoint: "r;bl" 276 10 basechar 0
AnchorPoint: "r;x" 396 380 basechar 0
AnchorPoint: "r;hi" 406 650 basechar 0
AnchorPoint: "r;o" 336 200 basechar 0
AnchorPoint: "r;lo" 186 -260 basechar 0
LayerCount: 3
Fore
SplineSet
10 -220 m 0
 10 -211 21 -186 29 -163 c 2
 29 -163 344 680 346 687 c 0
 351 702 357 705 375 705 c 0
 384 705 396 703 396 693 c 0
 396 684 387 662 382 649 c 2
 68 -202 l 2
 57 -233 51 -233 36 -233 c 0
 24 -233 10 -233 10 -220 c 0
EndSplineSet
AlternateSubs2: "'aalt' Access All Alternates lookup 0 subtable" fraction
AlternateSubs2: "'aalt' Access All Alternates in Latin lookup 0 subtable" fraction
Substitution2: "numerators subtable" fraction
EndChar

StartChar: less
Encoding: 60 60 113
Width: 527
VWidth: 488
Flags: HW
HStem: 361 20G<465 472.5>
VStem: 41 73<196.818 221.005>
AnchorPoint: "l;bl" 0 10 basechar 0
AnchorPoint: "l;x" 0 380 basechar 0
AnchorPoint: "l;hi" 0 650 basechar 0
AnchorPoint: "l;o" 0 200 basechar 0
AnchorPoint: "l;lo" 0 -260 basechar 0
AnchorPoint: "r;bl" 527 10 basechar 0
AnchorPoint: "r;x" 527 380 basechar 0
AnchorPoint: "r;hi" 527 650 basechar 0
AnchorPoint: "r;o" 527 200 basechar 0
AnchorPoint: "r;lo" 527 -260 basechar 0
LayerCount: 3
Fore
SplineSet
41 211 m 0
 41 221 41 225 56 231 c 0
 463 379 462 381 468 381 c 0
 477 381 487 377 487 356 c 0
 487 347 479 343 471 340 c 2
 156 229 l 2
 137 222 114 213 114 208 c 0
 114 203 136 197 156 190 c 2
 476 78 l 2
 482 76 487 72 487 65 c 0
 487 57 481 41 463 41 c 0
 457 41 460 41 55 188 c 0
 41 193 41 197 41 211 c 0
EndSplineSet
EndChar

StartChar: equal
Encoding: 61 61 114
Width: 527
VWidth: 488
Flags: HW
HStem: 110 45<31.0031 495.998> 266 44<31.0031 495.999>
AnchorPoint: "l;bl" 0 10 basechar 0
AnchorPoint: "l;x" 0 380 basechar 0
AnchorPoint: "l;hi" 0 650 basechar 0
AnchorPoint: "l;o" 0 200 basechar 0
AnchorPoint: "l;lo" 0 -260 basechar 0
AnchorPoint: "r;bl" 527 10 basechar 0
AnchorPoint: "r;x" 527 380 basechar 0
AnchorPoint: "r;hi" 527 650 basechar 0
AnchorPoint: "r;o" 527 200 basechar 0
AnchorPoint: "r;lo" 527 -260 basechar 0
LayerCount: 3
Fore
SplineSet
31 134 m 0
 31 147 31 155 49 155 c 2
 480 155 l 2
 496 155 496 148 496 134 c 0
 496 117 496 110 475 110 c 2
 48 110 l 2
 30 110 31 117 31 134 c 0
31 290 m 0
 31 303 31 310 49 310 c 2
 480 310 l 2
 496 310 496 303 496 289 c 0
 496 272 496 266 475 266 c 2
 48 266 l 2
 30 266 31 273 31 290 c 0
EndSplineSet
EndChar

StartChar: greater
Encoding: 62 62 115
Width: 527
VWidth: 488
Flags: HW
HStem: 361 20G<54.5 62>
VStem: 414 73<196.818 221.005>
AnchorPoint: "l;bl" 0 10 basechar 0
AnchorPoint: "l;x" 0 380 basechar 0
AnchorPoint: "l;hi" 0 650 basechar 0
AnchorPoint: "l;o" 0 200 basechar 0
AnchorPoint: "l;lo" 0 -260 basechar 0
AnchorPoint: "r;bl" 527 10 basechar 0
AnchorPoint: "r;x" 527 380 basechar 0
AnchorPoint: "r;hi" 527 650 basechar 0
AnchorPoint: "r;o" 527 200 basechar 0
AnchorPoint: "r;lo" 527 -260 basechar 0
LayerCount: 3
Fore
SplineSet
41 65 m 0
 41 72 45 76 51 78 c 2
 372 190 l 2
 392 197 414 203 414 208 c 0
 414 213 391 222 372 229 c 2
 56 340 l 2
 48 343 41 347 41 356 c 0
 41 377 50 381 59 381 c 0
 65 381 64 379 471 231 c 0
 486 225 487 221 487 211 c 0
 487 197 486 193 472 188 c 0
 67 41 70 41 64 41 c 0
 46 41 41 57 41 65 c 0
EndSplineSet
EndChar

StartChar: backslash
Encoding: 92 92 116
Width: 406
VWidth: 488
Flags: HW
DStem2: 60 687 24 649 0.346165 -0.938174<-22.5304 966.825>
AnchorPoint: "l;lo" 220 -260 basechar 0
AnchorPoint: "l;o" 70 200 basechar 0
AnchorPoint: "l;hi" 0 650 basechar 0
AnchorPoint: "l;x" 10 380 basechar 0
AnchorPoint: "l;bl" 130 10 basechar 0
AnchorPoint: "r;lo" 406 -260 basechar 0
AnchorPoint: "r;o" 356 200 basechar 0
AnchorPoint: "r;hi" 206 650 basechar 0
AnchorPoint: "r;x" 296 380 basechar 0
AnchorPoint: "r;bl" 406 10 basechar 0
LayerCount: 3
Fore
SplineSet
396 -220 m 0
 396 -233 382 -233 370 -233 c 0
 355 -233 349 -233 338 -202 c 2
 24 649 l 2
 19 662 10 684 10 693 c 0
 10 703 22 705 31 705 c 0
 49 705 55 702 60 687 c 0
 62 680 377 -163 377 -163 c 2
 385 -186 396 -211 396 -220 c 0
EndSplineSet
EndChar

StartChar: guillemotleft
Encoding: 171 171 117
Width: 408
VWidth: 488
Flags: HW
HStem: 62 262<183 186 333 336>
VStem: 50 86<169.727 216.273> 200 86<169.727 216.273>
AnchorPoint: "l;bl" 0 10 basechar 0
AnchorPoint: "l;x" 0 380 basechar 0
AnchorPoint: "l;o" 0 200 basechar 0
AnchorPoint: "r;bl" 408 10 basechar 0
AnchorPoint: "r;x" 408 380 basechar 0
AnchorPoint: "r;o" 408 200 basechar 0
LayerCount: 3
Fore
SplineSet
286 193 m 0
 286 181 348 82 348 74 c 0
 348 72 336 62 334 62 c 0
 333 62 293 103 255 138 c 0
 226 165 200 188 200 193 c 0
 200 198 226 221 255 248 c 0
 293 283 333 324 334 324 c 0
 336 324 348 314 348 312 c 0
 348 304 286 205 286 193 c 0
136 193 m 0
 136 181 198 82 198 74 c 0
 198 72 186 62 184 62 c 0
 183 62 143 103 105 138 c 0
 76 165 50 188 50 193 c 0
 50 198 76 221 105 248 c 0
 143 283 183 324 184 324 c 0
 186 324 198 314 198 312 c 0
 198 304 136 205 136 193 c 0
EndSplineSet
AlternateSubs2: "'aalt' Access All Alternates lookup 0 subtable" guillemotleft.u
AlternateSubs2: "'aalt' Access All Alternates in Latin lookup 0 subtable" guillemotleft.u
Substitution2: "'case' Case-Sensitive Forms in Latin lookup 12 subtable" guillemotleft.u
EndChar

StartChar: guillemotright
Encoding: 187 187 118
Width: 408
VWidth: 488
Flags: HW
HStem: 62 262<72 75 222 225>
VStem: 122 86<169.727 216.273> 272 86<169.727 216.273>
AnchorPoint: "l;bl" 0 10 basechar 0
AnchorPoint: "l;x" 0 380 basechar 0
AnchorPoint: "l;o" 0 200 basechar 0
AnchorPoint: "r;bl" 408 10 basechar 0
AnchorPoint: "r;x" 408 380 basechar 0
AnchorPoint: "r;o" 408 200 basechar 0
LayerCount: 3
Fore
SplineSet
122 193 m 0
 122 205 60 304 60 312 c 0
 60 314 72 324 74 324 c 0
 75 324 115 283 153 248 c 0
 182 221 208 198 208 193 c 0
 208 188 182 165 153 138 c 0
 115 103 75 62 74 62 c 0
 72 62 60 72 60 74 c 0
 60 82 122 181 122 193 c 0
272 193 m 0
 272 205 210 304 210 312 c 0
 210 314 222 324 224 324 c 0
 225 324 265 283 303 248 c 0
 332 221 358 198 358 193 c 0
 358 188 332 165 303 138 c 0
 265 103 225 62 224 62 c 0
 222 62 210 72 210 74 c 0
 210 82 272 181 272 193 c 0
EndSplineSet
AlternateSubs2: "'aalt' Access All Alternates lookup 0 subtable" guillemotright.u
AlternateSubs2: "'aalt' Access All Alternates in Latin lookup 0 subtable" guillemotright.u
Substitution2: "'case' Case-Sensitive Forms in Latin lookup 12 subtable" guillemotright.u
EndChar

StartChar: multiply
Encoding: 215 215 119
Width: 527
VWidth: 488
Flags: HW
HStem: 173 76<237.625 289.453> 364 20G<111.5 118 411.5 416>
VStem: 226 74<185.547 236.234>
DStem2: 246 261 95 347 0.705945 -0.708267<-178.755 21.6779 74.462 276.386> 217 195 127 42 0.705945 0.708267<-185.134 16.7246 72.2321 271.359>
AnchorPoint: "l;bl" 0 10 basechar 0
AnchorPoint: "l;x" 0 380 basechar 0
AnchorPoint: "l;hi" 0 650 basechar 0
AnchorPoint: "l;o" 0 200 basechar 0
AnchorPoint: "l;lo" 0 -260 basechar 0
AnchorPoint: "r;bl" 527 10 basechar 0
AnchorPoint: "r;x" 527 380 basechar 0
AnchorPoint: "r;hi" 527 650 basechar 0
AnchorPoint: "r;o" 527 200 basechar 0
AnchorPoint: "r;lo" 527 -260 basechar 0
LayerCount: 3
Fore
SplineSet
429 344 m 2
 308 223 l 2
 303 218 300 213 300 210 c 0
 300 206 304 202 308 198 c 2
 432 74 l 2
 437 69 438 65 438 62 c 0
 438 54 419 35 412 35 c 0
 409 35 404 37 399 42 c 2
 276 166 l 2
 271 171 267 173 263 173 c 0
 258 173 254 169 247 162 c 2
 127 42 l 2
 122 37 118 35 115 35 c 0
 108 35 89 53 89 61 c 0
 89 65 92 69 97 74 c 2
 217 195 l 2
 223 201 226 206 226 210 c 0
 226 215 223 219 219 223 c 2
 95 347 l 2
 91 351 88 355 88 358 c 0
 88 365 107 384 116 384 c 0
 120 384 125 381 130 376 c 2
 246 261 l 2
 252 255 258 249 265 249 c 0
 268 249 272 250 276 254 c 2
 401 379 l 2
 405 383 410 385 413 385 c 0
 419 385 438 368 438 358 c 0
 438 355 435 350 429 344 c 2
EndSplineSet
EndChar

StartChar: divide
Encoding: 247 247 120
Width: 527
VWidth: 488
Flags: HW
HStem: 60 81<222.31 293.681> 188 44<31.0031 495.999> 280 81<217.572 288.681>
VStem: 217 82<65.3547 135.681 288.56 353.256>
AnchorPoint: "l;bl" 0 10 basechar 0
AnchorPoint: "l;x" 0 380 basechar 0
AnchorPoint: "l;hi" 0 650 basechar 0
AnchorPoint: "l;o" 0 200 basechar 0
AnchorPoint: "l;lo" 0 -260 basechar 0
AnchorPoint: "r;bl" 527 10 basechar 0
AnchorPoint: "r;x" 527 380 basechar 0
AnchorPoint: "r;hi" 527 650 basechar 0
AnchorPoint: "r;o" 527 200 basechar 0
AnchorPoint: "r;lo" 527 -260 basechar 0
LayerCount: 3
Fore
SplineSet
31 212 m 0
 31 225 31 232 49 232 c 2
 480 232 l 2
 496 232 496 225 496 211 c 0
 496 194 496 188 475 188 c 2
 48 188 l 2
 30 188 31 195 31 212 c 0
212 320 m 0
 212 342 232 361 254 361 c 0
 276 361 294 343 294 321 c 0
 294 299 275 280 253 280 c 0
 231 280 212 298 212 320 c 0
217 101 m 0
 217 123 236 141 258 141 c 0
 280 141 299 122 299 100 c 0
 299 78 281 60 259 60 c 0
 237 60 217 78 217 101 c 0
EndSplineSet
EndChar

StartChar: guilsinglleft
Encoding: 8249 8249 121
Width: 258
VWidth: 488
Flags: HW
HStem: 62 262<183 186>
VStem: 50 86<169.727 216.273>
AnchorPoint: "r;bl" 258 10 basechar 0
AnchorPoint: "r;x" 258 380 basechar 0
AnchorPoint: "r;o" 258 200 basechar 0
AnchorPoint: "l;bl" 0 10 basechar 0
AnchorPoint: "l;x" 0 380 basechar 0
AnchorPoint: "l;o" 0 200 basechar 0
LayerCount: 3
Fore
SplineSet
136 193 m 0
 136 181 198 82 198 74 c 0
 198 72 186 62 184 62 c 0
 183 62 143 103 105 138 c 0
 76 165 50 188 50 193 c 0
 50 198 76 221 105 248 c 0
 143 283 183 324 184 324 c 0
 186 324 198 314 198 312 c 0
 198 304 136 205 136 193 c 0
EndSplineSet
AlternateSubs2: "'aalt' Access All Alternates lookup 0 subtable" guilsinglleft.u
AlternateSubs2: "'aalt' Access All Alternates in Latin lookup 0 subtable" guilsinglleft.u
Substitution2: "'case' Case-Sensitive Forms in Latin lookup 12 subtable" guilsinglleft.u
EndChar

StartChar: guilsinglright
Encoding: 8250 8250 122
Width: 258
VWidth: 488
Flags: HW
HStem: 62 262<72 75>
VStem: 122 86<169.727 216.273>
AnchorPoint: "r;o" 258 200 basechar 0
AnchorPoint: "r;x" 258 380 basechar 0
AnchorPoint: "r;bl" 258 10 basechar 0
AnchorPoint: "l;o" 0 200 basechar 0
AnchorPoint: "l;x" 0 380 basechar 0
AnchorPoint: "l;bl" 0 10 basechar 0
LayerCount: 3
Fore
SplineSet
122 193 m 0
 122 205 60 304 60 312 c 0
 60 314 72 324 74 324 c 0
 75 324 115 283 153 248 c 0
 182 221 208 198 208 193 c 0
 208 188 182 165 153 138 c 0
 115 103 75 62 74 62 c 0
 72 62 60 72 60 74 c 0
 60 82 122 181 122 193 c 0
EndSplineSet
AlternateSubs2: "'aalt' Access All Alternates lookup 0 subtable" guilsinglright.u
AlternateSubs2: "'aalt' Access All Alternates in Latin lookup 0 subtable" guilsinglright.u
Substitution2: "'case' Case-Sensitive Forms in Latin lookup 12 subtable" guilsinglright.u
EndChar

StartChar: minus
Encoding: 8722 8722 123
Width: 527
VWidth: 488
Flags: HW
HStem: 188 44<31.0031 495.999>
AnchorPoint: "l;bl" 0 10 basechar 0
AnchorPoint: "l;x" 0 380 basechar 0
AnchorPoint: "l;hi" 0 650 basechar 0
AnchorPoint: "l;o" 0 200 basechar 0
AnchorPoint: "l;lo" 0 -260 basechar 0
AnchorPoint: "r;bl" 527 10 basechar 0
AnchorPoint: "r;x" 527 380 basechar 0
AnchorPoint: "r;hi" 527 650 basechar 0
AnchorPoint: "r;o" 527 200 basechar 0
AnchorPoint: "r;lo" 527 -260 basechar 0
LayerCount: 3
Fore
SplineSet
31 212 m 0
 31 225 31 232 49 232 c 2
 480 232 l 2
 496 232 496 225 496 211 c 0
 496 194 496 188 475 188 c 2
 48 188 l 2
 30 188 31 195 31 212 c 0
EndSplineSet
EndChar

StartChar: zero.u
Encoding: 65549 -1 124
Width: 500
VWidth: 0
Flags: W
HStem: -20 27<190.017 284.643> 580 40<256.914 369.462>
VStem: 59 63<98.7757 356.635> 429 58<231.426 499.537>
LayerCount: 3
Fore
SplineSet
236 -20 m 0
 122 -20 59 84 59 231 c 0
 59 475 189 620 319 620 c 0
 421 620 487 516 487 372 c 0
 487 167 387 -20 236 -20 c 0
236 7 m 0
 362 7 429 243 429 396 c 0
 429 493 394 580 313 580 c 0
 205 580 122 381 122 187 c 0
 122 68 173 7 236 7 c 0
EndSplineSet
EndChar

StartChar: one.u
Encoding: 65550 -1 125
Width: 500
VWidth: 0
Flags: W
HStem: 0 27<153.006 226.648 297 373.999> 570 33<216 302.498>
VStem: 303 84<488.391 584>
LayerCount: 3
Fore
SplineSet
225 27 m 1
 234 83 303 547 303 582 c 2
 303 584 l 1
 298 584 228 570 224 570 c 0
 217 570 216 576 216 579 c 2
 216 592 l 2
 216 600 217 602 226 603 c 0
 266 608 372 629 378 629 c 0
 385 629 387 625 387 619 c 0
 387 608 363 483 351 395 c 2
 297 27 l 1
 363 27 l 2
 374 27 374 26 374 14 c 0
 374 -1 373 -3 363 -3 c 0
 347 -3 296 0 266 0 c 0
 236 0 190 -3 167 -3 c 0
 154 -3 153 -2 153 15 c 0
 153 27 155 27 171 27 c 2
 225 27 l 1
EndSplineSet
EndChar

StartChar: two.u
Encoding: 65551 -1 126
Width: 500
VWidth: 0
Flags: W
HStem: 0 58<122.001 425.613> 568 52<212.217 337.247>
VStem: 383 71<373.265 520.387>
LayerCount: 3
Fore
SplineSet
270 568 m 0
 172 568 112 469 107 469 c 0
 101 469 87 479 87 486 c 0
 87 501 186 620 298 620 c 0
 391 620 454 552 454 467 c 0
 454 396 413 324 373 280 c 0
 306 207 218 158 186 132 c 0
 169 118 122 61 122 59 c 0
 122 58 124 58 129 58 c 2
 417 58 l 2
 421 58 438 124 442 124 c 0
 447 124 464 122 464 119 c 0
 464 112 442 50 432 6 c 0
 431 1 428 0 421 0 c 2
 74 0 l 2
 63 0 60 5 60 11 c 0
 60 22 159 147 164 151 c 0
 218 200 383 304 383 442 c 0
 383 503 351 568 270 568 c 0
EndSplineSet
EndChar

StartChar: three.u
Encoding: 65552 -1 127
Width: 500
VWidth: 0
Flags: W
HStem: -17 26<168.454 279.071> 276 36<165.004 221.251> 588 37<196.951 317.669>
VStem: 356 63<416.153 551.294> 362 66<80.6586 224.222>
LayerCount: 3
Fore
SplineSet
207 -17 m 0xe8
 156 -17 68 11 68 30 c 0
 68 41 94 53 106 53 c 0
 112 53 125 52 149 34 c 0
 168 20 188 9 218 9 c 0
 302 9 362 73 362 161 c 0xe8
 362 213 325 255 279 269 c 0
 260 275 241 277 222 277 c 0
 206 277 192 276 176 276 c 0
 170 276 165 283 165 294 c 0
 165 302 165 312 170 312 c 0
 231 318 282 334 316 368 c 0
 341 393 356 435 356 476 c 0
 356 533 327 588 264 588 c 0
 193 588 154 538 148 538 c 0
 140 538 130 548 131 556 c 0
 133 569 196 625 279 625 c 0
 369 625 419 560 419 495 c 0xf0
 419 364 268 318 268 311 c 0
 268 307 428 300 428 163 c 0
 428 45 319 -17 207 -17 c 0xe8
EndSplineSet
EndChar

StartChar: four.u
Encoding: 65553 -1 128
Width: 500
VWidth: 0
Flags: W
HStem: -14 21G<246.5 256.5> 201 54<89.0051 278.875 353.999 441>
VStem: 331 72<495.819 618>
DStem2: 241.941 -14 305.165 -14 0.156434 0.987688<9.9657 214.242 285.723 519.897>
LayerCount: 3
Fore
SplineSet
402 599 m 2
 354 273 l 2
 351 255 355 255 369 255 c 2
 434 255 l 2
 440 255 441 255 441 245 c 2
 441 211 l 2
 441 201 441 201 429 201 c 2
 351 201 l 2
 337 201 339 201 337 187 c 0
 328 128 312 7 312 2 c 0
 312 -5 305 -6 302 -7 c 0
 296 -9 264 -14 249 -14 c 0
 244 -14 242 -9 244 -1 c 2
 280 186 l 1
 284 201 279 201 264 201 c 2
 51 201 l 2
 43 201 33 202 33 209 c 0
 33 220 43 240 61 264 c 0
 111 332 238 472 311 559 c 0
 326 576 339 580 350 590 c 0
 371 610 389 628 397 628 c 0
 402 628 403 622 403 614 c 0
 403 609 402 603 402 599 c 2
111 255 m 2
 278 255 l 2
 296 255 293 256 297 275 c 0
 302 298 331 498 331 534 c 0
 331 538 331 540 330 540 c 0
 325 540 173 358 105 281 c 0
 99 275 89 264 89 259 c 0
 89 255 96 255 111 255 c 2
EndSplineSet
EndChar

StartChar: five.u
Encoding: 65554 -1 129
Width: 500
VWidth: 0
Flags: W
HStem: -11 26<20.006 179.711> 541 69<178.175 383.598> 564 61<152.646 358.586>
VStem: 75 43<361 425.52> 296 64<112.367 256.501> 384 23<610.963 637.445>
DStem2: 78 377 122 431 0.267779 0.96348<44.6154 203.354>
LayerCount: 3
Fore
SplineSet
407 633 m 0xdc
 407 623 399 595 393 566 c 0
 390 553 387 541 374 541 c 0xdc
 358 541 176 564 165 564 c 0
 156 564 158 560 157 558 c 0
 153 545 133 472 122 431 c 0
 120 422 118 416 118 412 c 0
 118 406 122 404 132 401 c 0
 188 385 360 350 360 207 c 0
 360 21 175 -11 79 -11 c 0
 63 -11 35 -8 25 -5 c 0
 22 -4 20 -4 20 1 c 0
 20 13 22 18 30 18 c 0
 47 18 64 15 97 15 c 0
 189 15 296 55 296 187 c 0
 296 285 197 327 94 352 c 0
 80 355 75 358 75 364 c 0
 75 367 76 371 78 377 c 0
 92 417 125 549 146 620 c 0
 147 622 157 625 162 625 c 0xbc
 182 625 292 610 370 610 c 0
 379 610 380 618 384 633 c 0
 385 636 387 638 389 638 c 0
 391 638 407 637 407 633 c 0xdc
EndSplineSet
EndChar

StartChar: six.u
Encoding: 65555 -1 130
Width: 500
VWidth: 0
Flags: W
HStem: -22 26<193.607 289.54> 334 26<214.198 320.34>
VStem: 76 58<66.4357 284.661> 381 66<96.8166 285.121>
LayerCount: 3
Fore
SplineSet
242 -22 m 0
 142 -22 76 50 76 170 c 0
 76 546 405 635 452 635 c 0
 456 635 460 618 460 611 c 0
 460 604 394 606 299 530 c 0
 227 473 191 395 177 355 c 0
 174 348 172 340 172 337 c 0
 172 331 184 337 191 340 c 0
 214 348 254 360 288 360 c 0
 387 360 447 292 447 200 c 0
 447 59 358 -22 242 -22 c 0
156 286 m 0
 140 247 134 201 134 148 c 0
 134 62 175 4 240 4 c 0
 330 4 381 106 381 205 c 0
 381 290 335 334 261 334 c 0
 212 334 164 306 156 286 c 0
EndSplineSet
EndChar

StartChar: seven.u
Encoding: 65556 -1 131
Width: 500
VWidth: 0
Flags: W
HStem: -25 21G<158.5 165> 555 58<134.279 409.998>
VStem: 73 27<497.266 527.538> 106 31<615.644 650.768> 129 45<-22.8097 71.1487>
LayerCount: 3
Fore
SplineSet
117 651 m 0xf0
 126 651 137 649 137 643 c 0xf0
 137 637 133 622 133 615 c 0
 133 613 155 613 184 613 c 2
 459 613 l 2
 466 613 472 612 472 604 c 0
 472 597 299 296 256 212 c 0
 208 119 193 72 174 -8 c 0
 171 -19 168 -25 162 -25 c 0
 155 -25 129 -18 129 -6 c 0xe8
 129 44 193 175 273 310 c 2
 405 534 l 2
 408 539 410 543 410 547 c 0
 410 552 407 555 396 555 c 2
 198 555 l 2
 168 555 115 553 113 546 c 2
 100 506 l 2
 98 501 98 497 90 497 c 0
 83 497 73 500 73 506 c 0
 73 516 93 564 106 624 c 0
 109 638 112 651 117 651 c 0xf0
EndSplineSet
EndChar

StartChar: eight.u
Encoding: 65557 -1 132
Width: 500
VWidth: 0
Flags: W
HStem: -14 24<186.968 284.624> 305 38<257.501 267.531> 618 27<221.067 327.276>
VStem: 63 57<61.4953 205.504> 115 47<434.546 564.905> 359 61<72.5691 210.197> 380 50<430.269 573.384>
LayerCount: 3
Fore
SplineSet
420 150 m 0xe4
 420 46 325 -14 224 -14 c 0
 137 -14 63 48 63 126 c 0xf4
 63 258 220 310 220 316 c 0
 220 320 115 388 115 485 c 0
 115 579 190 645 284 645 c 0
 364 645 430 588 430 511 c 0xea
 430 394 304 337 304 331 c 0
 304 326 420 266 420 150 c 0xe4
239 305 m 0
 230 305 120 254 120 138 c 0
 120 55 180 10 233 10 c 0
 297 10 359 61 359 140 c 0
 359 230 246 305 239 305 c 0
380 496 m 0xea
 380 563 341 618 278 618 c 0
 203 618 162 567 162 497 c 0
 162 416 281 343 286 343 c 0
 297 343 380 405 380 496 c 0xea
EndSplineSet
EndChar

StartChar: nine.u
Encoding: 65558 -1 133
Width: 500
VWidth: 0
Flags: W
HStem: -2 28<29.0221 133.119> 239 34<173.703 284.828> 603 27<209.454 303.822>
VStem: 59 61<323.603 508.698> 364 62<309.211 538.966>
LayerCount: 3
Fore
SplineSet
59 402 m 0
 59 543 149 630 262 630 c 0
 353 630 426 560 426 432 c 0
 426 23 88 -2 34 -2 c 0
 30 -2 29 4 29 10 c 0
 29 20 30 26 40 26 c 0
 184 26 279 104 335 267 c 0
 338 275 332 278 323 273 c 0
 294 256 244 239 200 239 c 0
 108 239 59 317 59 402 c 0
120 409 m 0
 120 344 150 273 232 273 c 0
 289 273 322 291 345 309 c 0
 359 320 364 408 364 443 c 0
 364 525 328 603 259 603 c 0
 182 603 120 517 120 409 c 0
EndSplineSet
EndChar

StartChar: quotesinglbase
Encoding: 8218 8218 138
Width: 209
VWidth: 0
Flags: W
HStem: -130 242
VStem: 112 55<-40.6164 81.9713>
LayerCount: 3
Fore
SplineSet
91 58 m 0
 91 86 127 112 138 112 c 0
 153 112 167 52 167 27 c 0
 167 -49 69 -130 65 -130 c 0
 61 -130 48 -116 48 -112 c 0
 48 -108 112 -58 112 -25 c 0
 112 1 91 32 91 58 c 0
EndSplineSet
EndChar

StartChar: quotereversed
Encoding: 8219 8219 139
Width: 209
VWidth: 0
Flags: W
HStem: 435 242
VStem: 42 55<524.384 646.971>
LayerCount: 3
Fore
SplineSet
118 623 m 0
 118 597 97 566 97 540 c 0
 97 507 161 457 161 453 c 0
 161 449 148 435 144 435 c 0
 140 435 42 516 42 592 c 0
 42 617 56 677 71 677 c 0
 82 677 118 651 118 623 c 0
EndSplineSet
EndChar

StartChar: quotedblbase
Encoding: 8222 8222 140
Width: 394
VWidth: 0
Flags: W
HStem: -130 242
VStem: 102 55<-40.6164 81.9713> 287 55<-40.6164 81.9713>
LayerCount: 3
Fore
SplineSet
81 58 m 0
 81 86 117 112 128 112 c 0
 143 112 157 52 157 27 c 0
 157 -49 59 -130 55 -130 c 0
 51 -130 38 -116 38 -112 c 0
 38 -108 102 -58 102 -25 c 0
 102 1 81 32 81 58 c 0
266 58 m 0
 266 86 302 112 313 112 c 0
 328 112 342 52 342 27 c 0
 342 -49 244 -130 240 -130 c 0
 236 -130 223 -116 223 -112 c 0
 223 -108 287 -58 287 -25 c 0
 287 1 266 32 266 58 c 0
EndSplineSet
EndChar

StartChar: uni201F
Encoding: 8223 8223 141
Width: 394
VWidth: 0
Flags: W
HStem: 435 242
VStem: 42 55<524.384 646.971> 227 55<524.384 646.971>
LayerCount: 3
Fore
SplineSet
303 623 m 0
 303 597 282 566 282 540 c 0
 282 507 346 457 346 453 c 0
 346 449 333 435 329 435 c 0
 325 435 227 516 227 592 c 0
 227 617 241 677 256 677 c 0
 267 677 303 651 303 623 c 0
118 623 m 0
 118 597 97 566 97 540 c 0
 97 507 161 457 161 453 c 0
 161 449 148 435 144 435 c 0
 140 435 42 516 42 592 c 0
 42 617 56 677 71 677 c 0
 82 677 118 651 118 623 c 0
EndSplineSet
EndChar

StartChar: acutecomb
Encoding: 769 769 142
Width: 0
VWidth: 0
Flags: HW
HStem: 449 155
VStem: -228 127
AnchorPoint: "r;k;hi" -86 650 basechar 0
AnchorPoint: "top" -200 500 mark 0
LayerCount: 3
Fore
SplineSet
-225 457 m 2
 -164 580 l 2
 -156 595 -145 604 -132 604 c 0
 -113 604 -101 595 -101 583 c 0
 -101 573 -103 566 -110 558 c 2
 -201 455 l 2
 -204 451 -206 449 -209 449 c 2
 -224 449 l 2
 -227 449 -228 450 -228 451 c 0
 -228 452 -226 455 -225 457 c 2
EndSplineSet
EndChar

StartChar: uni0302
Encoding: 770 770 144
Width: 0
VWidth: 0
Flags: HW
HStem: 460 124
VStem: -310 206<461 463>
AnchorPoint: "r;k;hi" -104 650 basechar 0
AnchorPoint: "l;k;hi" -260 650 basechar 0
AnchorPoint: "top" -200 500 mark 0
LayerCount: 3
Fore
SplineSet
-306 468 m 2
 -215 572 l 2
 -205 583 -205 584 -195 584 c 2
 -175 584 l 2
 -165 584 -165 583 -159 572 c 2
 -106 468 l 2
 -104 465 -104 463 -104 462 c 0
 -104 461 -105 460 -109 460 c 2
 -121 460 l 2
 -122 460 -124 462 -128 466 c 2
 -191 528 l 2
 -195 532 -195 531 -199 528 c 2
 -284 466 l 2
 -289 462 -292 460 -293 460 c 2
 -305 460 l 2
 -308 460 -310 461 -310 462 c 0
 -310 463 -308 465 -306 468 c 2
EndSplineSet
EndChar

StartChar: gravecomb
Encoding: 768 768 145
Width: 0
VWidth: 0
Flags: HW
HStem: 449 157
VStem: -272 87
AnchorPoint: "l;k;hi" -277 650 basechar 0
AnchorPoint: "top" -200 500 mark 0
LayerCount: 3
Fore
SplineSet
-186 457 m 2
 -186 455 -185 452 -185 451 c 0
 -185 450 -186 449 -189 449 c 2
 -204 449 l 2
 -207 449 -209 451 -211 455 c 2
 -268 562 l 2
 -271 567 -272 571 -272 575 c 0
 -272 594 -262 606 -238 606 c 0
 -225 606 -215 597 -212 582 c 2
 -186 457 l 2
EndSplineSet
EndChar

StartChar: dotlessi
Encoding: 305 305 185
Width: 270
VWidth: 0
Flags: HW
HStem: -6 61<73.1719 153.5> 328 55<106 185.582>
VStem: 60 71<7.6574 107.493> 131 65<255.991 368.623>
AnchorPoint: "r;o" 270 200 basechar 0
AnchorPoint: "r;x" 270 380 basechar 0
AnchorPoint: "r;bl" 250 10 basechar 0
AnchorPoint: "l;o" 0 200 basechar 0
AnchorPoint: "l;x" 20 380 basechar 0
AnchorPoint: "l;bl" 0 10 basechar 0
AnchorPoint: "top" 186 500 basechar 0
LayerCount: 3
Fore
SplineSet
196 361 m 0xd0
 196 314 131 103 131 75 c 0
 131 65 131 55 144 55 c 0
 163 55 220 119 223 119 c 0
 227 119 235 110 235 107 c 0
 235 93 115 -6 84 -6 c 0
 74 -6 60 -3 60 12 c 0xe0
 60 63 131 249 131 310 c 0
 131 320 129 328 119 328 c 0
 93 328 42 269 37 269 c 0
 32 269 25 277 25 282 c 0
 25 288 139 383 176 383 c 0
 186 383 196 378 196 361 c 0xd0
EndSplineSet
EndChar

